<svg id="svg" xmlns="http://www.w3.org/2000/svg" xmlns:xlink="http://www.w3.org/1999/xlink" width="400" height="400" viewBox="0, 0, 400,400"><g id="svgg"><path id="path0" d="M190.525 0.337 C 94.380 5.111,15.793 76.311,1.895 171.235 C 0.393 181.496,0.186 184.938,0.177 199.831 C 0.152 245.203,13.365 285.172,40.119 320.653 C 88.353 384.619,170.108 413.506,248.341 394.225 C 346.353 370.069,410.924 275.643,398.281 174.958 C 385.311 71.667,294.313 -4.817,190.525 0.337 M216.074 27.234 C 346.236 39.897,416.718 186.500,345.013 295.425 C 276.377 399.688,123.244 399.692,54.730 295.431 C -14.865 189.528,49.655 46.192,174.979 28.286 C 180.086 27.556,183.010 27.266,192.047 26.593 C 195.645 26.325,210.919 26.732,216.074 27.234 M307.953 128.148 C 283.658 129.912,267.914 147.105,268.805 170.897 C 269.479 188.863,276.673 198.255,299.662 211.178 C 314.362 219.442,317.733 223.417,317.372 232.066 C 316.825 245.168,301.274 249.077,281.505 241.081 C 273.805 237.967,270.270 239.033,267.234 245.385 C 261.997 256.342,265.392 262.466,279.188 266.948 C 315.784 278.837,347.564 257.357,344.189 223.012 C 342.496 205.781,334.664 195.867,313.706 184.423 C 297.801 175.739,293.404 170.028,296.057 161.503 C 299.152 151.557,311.211 149.166,326.129 155.537 C 331.859 157.985,334.155 158.146,336.920 156.293 C 341.009 153.553,344.077 143.170,342.021 139.029 C 338.761 132.464,322.044 127.124,307.953 128.148 M175.752 129.283 C 171.252 130.091,167.958 132.111,166.321 135.066 L 165.313 136.887 165.212 180.541 C 165.096 230.957,165.183 233.113,167.689 241.798 C 172.763 259.383,185.392 268.524,206.769 270.084 C 233.285 272.019,250.457 260.215,255.747 236.417 L 256.659 232.318 256.766 184.796 L 256.873 137.273 256.003 135.496 C 251.803 126.911,234.582 126.927,230.581 135.520 L 229.787 137.225 229.780 178.680 C 229.772 228.553,229.664 230.301,226.182 236.927 C 219.963 248.762,202.663 248.240,196.782 236.041 C 193.564 229.364,193.570 229.475,193.570 180.696 C 193.570 134.446,193.659 136.506,191.553 133.960 C 188.535 130.311,181.547 128.242,175.752 129.283 M68.918 130.153 C 66.566 130.888,63.602 133.878,62.648 136.476 L 61.929 138.435 61.929 199.212 C 61.929 266.258,61.763 261.596,64.241 264.351 C 68.067 268.607,68.692 268.698,94.234 268.695 C 122.413 268.692,126.729 268.018,136.147 262.149 C 160.866 246.742,156.960 202.932,130.253 196.052 L 127.969 195.464 130.534 194.002 C 143.538 186.590,149.915 176.611,149.915 163.673 C 149.915 146.597,139.930 135.172,120.981 130.567 C 116.928 129.582,71.892 129.224,68.918 130.153 M107.233 153.624 C 117.227 155.687,122.656 162.538,121.661 171.831 C 120.506 182.616,113.347 187.113,96.870 187.403 L 89.002 187.542 89.002 170.252 L 89.002 152.961 96.531 152.966 C 102.643 152.969,104.658 153.093,107.233 153.624 M107.953 207.262 C 121.493 209.323,128.094 218.698,125.075 231.578 C 122.705 241.688,116.645 245.007,100.085 245.264 L 90.694 245.410 90.694 226.089 L 90.694 206.768 97.716 206.770 C 102.124 206.771,105.934 206.954,107.953 207.262 " stroke="none" fill="#000000" fill-rule="evenodd"></path></g></svg>