<svg id="svg" xmlns="http://www.w3.org/2000/svg" xmlns:xlink="http://www.w3.org/1999/xlink" width="400" height="400" viewBox="0, 0, 400,400"><g id="svgg"><path id="path0" d="M190.525 0.337 C 94.380 5.111,15.793 76.311,1.895 171.235 C 0.393 181.496,0.186 184.938,0.177 199.831 C 0.152 245.203,13.365 285.172,40.119 320.653 C 88.353 384.619,170.108 413.506,248.341 394.225 C 346.353 370.069,410.924 275.643,398.281 174.958 C 385.311 71.667,294.313 -4.817,190.525 0.337 M216.074 27.234 C 346.236 39.897,416.718 186.500,345.013 295.425 C 276.377 399.688,123.244 399.692,54.730 295.431 C -14.865 189.528,49.655 46.192,174.979 28.286 C 180.086 27.556,183.010 27.266,192.047 26.593 C 195.645 26.325,210.919 26.732,216.074 27.234 M76.142 80.372 C 76.142 80.651,76.278 80.880,76.444 80.880 C 76.611 80.880,76.834 80.651,76.941 80.372 C 77.060 80.063,76.942 79.865,76.639 79.865 C 76.366 79.865,76.142 80.093,76.142 80.372 M306.606 88.221 C 305.772 88.304,304.933 88.502,304.741 88.661 C 304.549 88.820,303.442 89.057,302.281 89.189 C 301.119 89.320,300.169 89.560,300.169 89.722 C 300.169 89.884,299.408 90.017,298.477 90.017 C 297.547 90.017,296.785 90.147,296.785 90.307 C 296.785 90.466,295.688 90.699,294.346 90.823 C 293.005 90.948,291.824 91.178,291.723 91.336 C 291.622 91.493,290.208 91.731,288.580 91.865 C 286.952 91.998,285.534 92.247,285.430 92.416 C 285.325 92.586,284.411 92.724,283.398 92.724 C 282.385 92.724,281.557 92.848,281.557 93.000 C 281.557 93.151,279.501 93.479,276.988 93.727 C 274.475 93.975,272.420 94.286,272.420 94.418 C 272.420 94.550,271.327 94.759,269.991 94.883 C 268.656 95.007,267.399 95.239,267.199 95.399 C 266.999 95.559,265.503 95.797,263.875 95.929 C 262.246 96.061,260.914 96.308,260.914 96.477 C 260.914 96.646,260.305 96.785,259.560 96.785 C 258.816 96.785,258.206 96.922,258.206 97.088 C 258.206 97.255,256.988 97.499,255.499 97.631 C 254.010 97.763,252.792 97.988,252.792 98.130 C 252.792 98.273,251.117 98.499,249.069 98.631 C 247.022 98.764,245.347 99.012,245.347 99.182 C 245.347 99.353,244.890 99.492,244.332 99.492 C 243.773 99.492,243.316 99.622,243.316 99.781 C 243.316 99.940,242.145 100.169,240.713 100.290 C 239.281 100.411,238.020 100.655,237.910 100.833 C 237.800 101.011,236.421 101.262,234.845 101.390 C 233.269 101.519,231.898 101.748,231.798 101.900 C 231.698 102.052,230.137 102.280,228.329 102.407 L 225.042 102.638 225.042 101.428 C 225.042 100.762,224.814 99.989,224.535 99.710 C 224.255 99.431,224.027 98.882,224.027 98.491 C 224.027 98.099,223.799 97.691,223.519 97.584 C 223.240 97.477,223.012 97.135,223.012 96.824 C 223.012 96.289,221.914 95.093,221.422 95.093 C 221.297 95.093,220.857 94.776,220.444 94.389 C 220.032 94.001,219.070 93.600,218.307 93.498 C 217.545 93.396,216.920 93.180,216.920 93.018 C 216.920 92.856,215.474 92.724,213.706 92.724 C 211.788 92.724,210.491 92.861,210.491 93.063 C 210.491 93.249,210.013 93.401,209.429 93.401 C 207.791 93.401,202.281 94.115,201.523 94.425 C 201.151 94.577,199.942 94.795,198.838 94.908 C 197.733 95.021,196.667 95.241,196.469 95.396 C 196.271 95.551,194.814 95.781,193.232 95.907 C 191.650 96.033,190.305 96.282,190.243 96.460 C 190.180 96.639,189.533 96.785,188.804 96.785 C 188.075 96.785,187.479 96.924,187.479 97.093 C 187.479 97.263,186.184 97.509,184.602 97.641 C 183.020 97.773,181.726 97.992,181.726 98.129 C 181.726 98.265,180.470 98.474,178.935 98.592 C 177.401 98.710,176.094 98.961,176.031 99.150 C 175.968 99.338,175.701 99.492,175.437 99.492 C 175.173 99.492,174.958 99.645,174.958 99.831 C 174.958 100.017,174.767 100.174,174.535 100.179 C 174.002 100.192,170.556 103.456,169.893 104.576 C 169.566 105.131,169.353 106.691,169.266 109.185 L 169.134 112.955 166.293 113.191 C 164.730 113.321,163.452 113.551,163.452 113.701 C 163.452 113.851,162.233 114.081,160.743 114.213 C 159.253 114.345,157.949 114.590,157.846 114.756 C 157.743 114.923,156.983 115.059,156.156 115.059 C 155.329 115.059,154.653 115.192,154.653 115.354 C 154.653 115.516,153.130 115.757,151.269 115.889 C 149.408 116.021,147.885 116.251,147.885 116.400 C 147.885 116.550,146.744 116.779,145.349 116.909 C 143.954 117.040,142.738 117.268,142.647 117.417 C 142.555 117.565,141.488 117.793,140.275 117.923 C 139.063 118.053,138.071 118.279,138.071 118.427 C 138.071 118.574,136.396 118.803,134.349 118.936 C 132.301 119.069,130.626 119.303,130.626 119.457 C 130.626 119.610,129.294 119.846,127.665 119.980 C 126.036 120.114,124.619 120.355,124.515 120.516 C 124.412 120.678,123.117 120.898,121.639 121.007 C 120.161 121.115,118.646 121.328,118.274 121.480 C 117.902 121.631,116.455 121.929,115.059 122.141 C 113.663 122.353,111.950 122.614,111.252 122.720 C 110.554 122.827,109.983 123.030,109.983 123.173 C 109.983 123.315,108.917 123.537,107.614 123.665 C 106.311 123.794,105.245 124.019,105.245 124.167 C 105.245 124.314,103.925 124.536,102.311 124.660 C 100.697 124.784,99.197 125.035,98.977 125.218 C 98.757 125.401,97.412 125.649,95.989 125.769 C 94.566 125.889,93.401 126.105,93.401 126.248 C 93.401 126.391,91.726 126.617,89.679 126.749 C 87.631 126.882,85.956 127.103,85.956 127.241 C 85.956 127.379,85.357 127.572,84.626 127.670 C 82.812 127.913,81.555 129.145,81.318 130.913 C 81.214 131.686,80.997 132.318,80.835 132.318 C 80.674 132.318,80.541 132.699,80.541 133.164 C 80.541 133.629,80.672 134.010,80.831 134.010 C 80.991 134.010,81.221 135.081,81.342 136.389 C 81.627 139.457,83.043 141.753,84.667 141.783 C 84.982 141.789,85.333 141.946,85.448 142.132 C 85.708 142.551,88.663 142.584,88.663 142.168 C 88.663 142.002,90.035 141.757,91.711 141.624 C 93.388 141.491,94.834 141.262,94.926 141.113 C 95.018 140.965,96.692 140.735,98.646 140.601 C 100.601 140.468,102.200 140.237,102.200 140.088 C 102.200 139.939,103.228 139.722,104.484 139.605 C 105.740 139.488,107.033 139.248,107.356 139.070 C 107.679 138.893,108.402 138.748,108.963 138.748 C 109.524 138.748,109.983 138.608,109.983 138.437 C 109.983 138.265,111.506 138.017,113.367 137.885 C 115.228 137.753,116.751 137.531,116.751 137.390 C 116.751 137.250,117.892 137.028,119.287 136.898 C 120.682 136.767,121.903 136.531,122.000 136.373 C 122.098 136.215,123.393 135.980,124.879 135.850 C 126.365 135.721,127.580 135.499,127.580 135.357 C 127.580 135.215,129.255 134.990,131.303 134.856 C 133.350 134.722,135.025 134.489,135.025 134.339 C 135.025 134.188,136.053 133.966,137.310 133.846 C 138.566 133.726,139.898 133.494,140.271 133.331 C 140.643 133.167,141.633 132.931,142.470 132.807 C 143.308 132.682,144.146 132.466,144.332 132.326 C 144.518 132.186,146.036 131.972,147.707 131.849 C 149.377 131.726,150.892 131.477,151.074 131.295 C 151.256 131.113,151.831 130.964,152.352 130.964 C 152.873 130.964,153.299 130.835,153.299 130.676 C 153.299 130.517,154.769 130.299,156.564 130.192 C 158.360 130.085,159.921 129.856,160.033 129.683 C 160.145 129.510,161.760 129.260,163.621 129.127 C 165.482 128.994,167.056 128.744,167.118 128.571 C 167.180 128.399,167.865 128.251,168.641 128.242 C 169.416 128.234,170.736 128.070,171.574 127.878 C 172.411 127.686,174.010 127.349,175.127 127.131 C 176.244 126.913,177.310 126.636,177.496 126.516 C 177.682 126.396,179.169 126.187,180.800 126.052 C 182.432 125.918,183.844 125.682,183.938 125.529 C 184.033 125.376,185.176 125.146,186.479 125.018 C 187.782 124.889,188.929 124.652,189.029 124.490 C 190.119 122.727,190.186 123.926,190.186 145.162 L 190.186 166.127 161.409 166.228 C 140.498 166.301,132.566 166.433,132.390 166.710 C 132.258 166.920,131.349 167.201,130.372 167.334 C 129.395 167.467,128.596 167.714,128.596 167.883 C 128.596 168.052,128.301 168.190,127.942 168.190 C 127.148 168.190,123.119 170.221,122.741 170.812 C 122.592 171.045,122.341 171.235,122.183 171.235 C 121.010 171.235,113.029 178.205,113.029 179.230 C 113.029 179.486,112.879 179.695,112.697 179.695 C 112.514 179.695,112.272 180.065,112.159 180.517 C 112.045 180.969,111.738 181.421,111.475 181.522 C 111.213 181.622,110.998 181.938,110.998 182.223 C 110.998 182.508,110.850 182.741,110.668 182.741 C 110.487 182.741,110.026 183.426,109.645 184.264 C 109.263 185.102,108.804 185.787,108.625 185.787 C 108.446 185.787,108.202 186.396,108.083 187.140 C 107.964 187.885,107.733 188.494,107.571 188.494 C 107.409 188.494,107.276 188.875,107.276 189.340 C 107.276 189.805,107.130 190.186,106.953 190.186 C 106.775 190.186,106.530 190.719,106.407 191.371 C 106.285 192.022,106.064 192.555,105.916 192.555 C 105.768 192.555,105.543 193.316,105.415 194.247 C 105.287 195.178,105.044 195.939,104.875 195.939 C 104.707 195.939,104.569 196.235,104.569 196.596 C 104.569 196.957,104.434 197.336,104.268 197.438 C 104.103 197.540,103.861 198.196,103.731 198.896 C 103.600 199.596,103.381 200.321,103.244 200.508 C 102.882 201.000,102.200 203.512,102.200 204.354 C 102.200 204.751,102.057 205.076,101.882 205.076 C 101.707 205.076,101.459 206.142,101.330 207.445 C 101.202 208.748,100.974 209.814,100.823 209.814 C 100.672 209.814,100.444 210.880,100.315 212.183 C 100.187 213.486,99.949 214.552,99.787 214.552 C 99.625 214.552,99.492 214.996,99.492 215.539 C 99.492 216.082,99.348 216.576,99.171 216.638 C 98.994 216.701,98.743 218.198,98.613 219.966 C 98.483 221.734,98.257 223.260,98.109 223.357 C 97.962 223.454,97.734 225.472,97.602 227.841 C 97.471 230.211,97.233 232.149,97.074 232.149 C 96.671 232.149,96.705 254.685,97.109 255.419 C 97.287 255.742,97.531 257.948,97.651 260.321 C 97.770 262.695,97.986 264.636,98.129 264.636 C 98.273 264.636,98.498 266.159,98.630 268.020 C 98.762 269.882,99.010 271.404,99.181 271.404 C 99.352 271.404,99.492 271.852,99.492 272.400 C 99.492 272.947,99.630 273.480,99.797 273.583 C 99.965 273.687,100.209 274.686,100.338 275.803 C 100.468 276.920,100.696 277.834,100.845 277.834 C 100.994 277.834,101.223 278.900,101.354 280.203 C 101.484 281.506,101.694 282.572,101.818 282.572 C 101.943 282.572,102.228 283.537,102.452 284.716 C 102.676 285.895,103.090 287.303,103.373 287.846 C 103.656 288.389,103.888 289.090,103.890 289.405 C 103.891 289.719,104.044 290.071,104.230 290.186 C 104.416 290.301,104.569 290.843,104.569 291.391 C 104.569 291.938,104.709 292.386,104.880 292.386 C 105.051 292.386,105.297 292.881,105.427 293.486 C 105.556 294.091,105.779 294.738,105.922 294.924 C 106.065 295.110,106.296 295.790,106.434 296.436 C 106.572 297.081,106.805 297.842,106.952 298.128 C 107.563 299.315,108.291 301.143,108.291 301.489 C 108.291 301.694,108.443 301.861,108.629 301.861 C 108.816 301.861,108.968 302.094,108.968 302.379 C 108.968 302.665,109.183 302.980,109.445 303.081 C 109.707 303.181,110.018 303.647,110.136 304.115 C 110.253 304.583,110.724 305.370,111.181 305.864 C 111.639 306.357,112.014 306.958,112.014 307.198 C 112.014 307.439,112.242 307.723,112.521 307.830 C 112.800 307.937,113.029 308.202,113.029 308.419 C 113.029 308.636,114.387 310.104,116.048 311.682 C 120.130 315.562,120.794 316.090,122.250 316.616 C 122.576 316.734,122.843 316.965,122.843 317.129 C 122.843 317.294,123.016 317.428,123.229 317.428 C 123.743 317.428,126.704 318.882,126.847 319.205 C 126.909 319.345,127.557 319.555,128.286 319.672 C 129.014 319.788,129.611 320.016,129.611 320.179 C 129.611 320.341,130.059 320.474,130.606 320.474 C 131.153 320.474,131.688 320.614,131.794 320.786 C 131.900 320.957,132.975 321.203,134.183 321.333 C 135.391 321.462,136.379 321.702,136.379 321.867 C 136.379 322.255,258.106 322.263,258.346 321.875 C 258.445 321.715,259.461 321.500,260.605 321.396 C 261.748 321.293,262.849 321.043,263.051 320.841 C 263.253 320.639,263.844 320.474,264.365 320.474 C 264.887 320.474,265.313 320.321,265.313 320.135 C 265.313 319.949,265.618 319.797,265.991 319.797 C 266.364 319.797,267.237 319.492,267.932 319.120 C 268.626 318.748,269.387 318.443,269.623 318.443 C 269.858 318.443,270.051 318.303,270.051 318.132 C 270.051 317.960,270.533 317.714,271.123 317.585 C 271.713 317.455,272.587 316.986,273.066 316.543 C 273.544 316.099,274.077 315.736,274.249 315.736 C 274.622 315.736,275.020 315.400,277.602 312.902 C 278.684 311.855,279.712 310.998,279.886 310.998 C 280.061 310.998,280.203 310.864,280.203 310.700 C 280.203 310.535,280.774 309.794,281.472 309.053 C 284.419 305.921,286.848 301.844,287.486 298.960 C 287.727 297.868,288.697 295.703,289.070 295.421 C 289.201 295.323,289.411 294.599,289.537 293.814 C 289.662 293.028,289.891 292.386,290.045 292.386 C 290.199 292.386,290.430 291.815,290.558 291.117 C 290.686 290.419,290.884 289.772,290.996 289.679 C 291.537 289.233,292.038 287.884,292.246 286.316 C 292.372 285.365,292.600 284.510,292.753 284.415 C 292.906 284.321,293.134 283.334,293.260 282.223 C 293.386 281.112,293.606 280.203,293.750 280.203 C 293.894 280.203,294.117 279.289,294.247 278.173 C 294.377 277.056,294.606 276.142,294.758 276.142 C 294.909 276.142,295.140 274.848,295.272 273.266 C 295.404 271.684,295.634 270.389,295.783 270.389 C 295.932 270.389,296.150 269.361,296.267 268.105 C 296.383 266.849,296.625 265.554,296.804 265.228 C 296.984 264.902,297.228 263.036,297.347 261.082 C 297.467 259.128,297.694 257.530,297.852 257.530 C 298.010 257.530,298.139 251.362,298.139 243.824 C 298.139 236.286,298.009 230.118,297.851 230.118 C 297.693 230.118,297.460 228.411,297.333 226.325 C 297.207 224.238,296.978 222.449,296.825 222.349 C 296.672 222.248,296.441 221.106,296.311 219.812 C 296.181 218.517,295.946 217.299,295.787 217.104 C 295.629 216.910,295.390 215.571,295.256 214.129 C 295.123 212.686,294.897 211.506,294.754 211.506 C 294.611 211.506,294.386 210.630,294.253 209.560 C 294.121 208.490,293.894 207.462,293.749 207.276 C 293.605 207.090,293.377 206.176,293.243 205.245 C 293.109 204.315,292.880 203.401,292.735 203.215 C 292.590 203.029,292.367 202.157,292.240 201.277 C 292.112 200.397,291.865 199.589,291.689 199.480 C 291.514 199.372,291.371 198.988,291.371 198.626 C 291.371 198.265,291.238 197.970,291.075 197.970 C 290.913 197.970,290.683 197.360,290.564 196.616 C 290.445 195.871,290.209 195.262,290.040 195.262 C 289.871 195.262,289.625 194.772,289.493 194.174 C 289.243 193.034,289.135 192.761,288.213 190.920 C 287.902 190.300,287.648 189.530,287.648 189.208 C 287.648 188.887,287.424 188.328,287.151 187.967 C 286.878 187.605,286.650 187.029,286.644 186.685 C 286.634 186.135,285.741 184.218,285.279 183.756 C 284.907 183.385,283.587 181.402,283.587 181.216 C 283.587 181.106,283.206 180.664,282.741 180.233 C 282.276 179.801,281.895 179.328,281.895 179.180 C 281.895 178.218,273.846 171.235,272.736 171.235 C 272.581 171.235,272.331 171.038,272.183 170.797 C 271.674 169.974,266.197 167.468,264.467 167.267 C 263.536 167.159,262.666 166.904,262.534 166.700 C 262.362 166.436,253.974 166.300,233.684 166.231 L 205.076 166.134 205.081 144.234 C 205.084 132.190,205.198 122.161,205.335 121.947 C 205.472 121.734,206.614 121.449,207.873 121.315 C 209.132 121.181,210.245 120.936,210.346 120.772 C 210.448 120.608,211.359 120.474,212.372 120.474 C 213.385 120.474,214.213 120.339,214.213 120.175 C 214.213 120.011,215.354 119.770,216.749 119.639 C 218.144 119.508,219.361 119.278,219.454 119.128 C 219.547 118.977,220.995 118.745,222.671 118.613 C 224.348 118.480,225.719 118.255,225.719 118.113 C 225.719 117.970,227.242 117.746,229.103 117.614 C 230.964 117.482,232.487 117.252,232.487 117.102 C 232.487 116.953,233.629 116.724,235.025 116.593 C 236.421 116.462,237.563 116.225,237.563 116.066 C 237.563 115.907,238.629 115.672,239.932 115.544 C 241.235 115.415,242.301 115.200,242.301 115.066 C 242.301 114.931,243.620 114.728,245.233 114.614 C 246.845 114.501,248.322 114.250,248.515 114.057 C 248.708 113.864,249.588 113.706,250.471 113.706 C 251.353 113.706,252.157 113.573,252.257 113.412 C 252.357 113.250,253.660 113.011,255.153 112.881 C 256.646 112.750,257.868 112.524,257.868 112.379 C 257.868 112.233,259.500 112.008,261.496 111.879 C 263.491 111.750,265.204 111.517,265.303 111.362 C 265.401 111.206,266.586 110.970,267.936 110.835 C 269.285 110.701,270.389 110.474,270.389 110.331 C 270.389 110.188,271.455 109.965,272.758 109.837 C 274.061 109.709,275.127 109.483,275.127 109.336 C 275.127 109.188,276.447 108.966,278.061 108.842 C 279.675 108.718,281.175 108.467,281.395 108.285 C 281.615 108.102,282.960 107.854,284.383 107.734 C 285.807 107.613,286.971 107.400,286.971 107.259 C 286.971 107.118,288.573 106.893,290.530 106.760 C 292.487 106.627,294.171 106.383,294.272 106.220 C 294.373 106.056,295.132 105.922,295.959 105.922 C 296.786 105.922,297.462 105.784,297.462 105.614 C 297.462 105.445,298.756 105.198,300.338 105.066 C 301.920 104.935,303.215 104.712,303.215 104.572 C 303.215 104.432,304.319 104.209,305.668 104.076 C 307.018 103.943,308.274 103.715,308.460 103.570 C 308.646 103.425,309.710 103.217,310.824 103.108 C 311.937 102.998,312.902 102.749,312.967 102.554 C 313.032 102.359,313.318 102.200,313.601 102.200 C 314.391 102.200,315.724 100.770,315.730 99.915 C 315.733 99.497,315.888 99.154,316.074 99.154 C 316.261 99.154,316.413 98.393,316.413 97.462 C 316.413 96.531,316.281 95.770,316.120 95.770 C 315.959 95.770,315.751 94.706,315.658 93.407 C 315.340 88.966,312.946 87.594,306.606 88.221 M159.391 184.732 C 159.391 184.897,159.695 185.111,160.068 185.208 C 160.739 185.384,160.745 185.670,160.745 220.742 L 160.745 256.098 159.910 256.645 C 158.970 257.261,117.766 257.503,117.766 256.892 C 117.766 256.728,117.462 256.514,117.090 256.416 C 116.506 256.264,116.413 255.955,116.413 254.177 C 116.413 253.028,116.263 252.115,116.074 252.115 C 115.858 252.115,115.736 249.239,115.736 244.162 C 115.736 239.788,115.866 236.210,116.024 236.210 C 116.183 236.210,116.422 233.738,116.554 230.717 C 116.687 227.696,116.922 225.145,117.076 225.049 C 117.230 224.952,117.466 223.541,117.601 221.912 C 117.736 220.283,117.966 218.951,118.112 218.951 C 118.258 218.951,118.483 218.037,118.613 216.920 C 118.742 215.803,118.981 214.807,119.144 214.706 C 119.306 214.606,119.539 213.769,119.662 212.846 C 119.784 211.923,120.017 211.168,120.179 211.168 C 120.341 211.168,120.474 210.720,120.474 210.172 C 120.474 209.625,120.606 209.095,120.768 208.995 C 120.929 208.896,121.163 208.049,121.287 207.114 C 121.411 206.179,121.640 205.415,121.796 205.415 C 121.952 205.415,122.177 204.805,122.296 204.061 C 122.415 203.316,122.653 202.707,122.826 202.707 C 122.998 202.707,123.242 202.022,123.368 201.184 C 123.494 200.347,123.694 199.662,123.814 199.662 C 124.047 199.662,124.660 198.329,125.058 196.954 C 125.192 196.489,125.511 195.808,125.765 195.441 C 126.019 195.074,126.227 194.426,126.227 194.003 C 126.227 193.579,126.379 193.232,126.565 193.232 C 126.751 193.232,126.904 193.032,126.904 192.788 C 126.904 191.750,130.882 188.310,133.820 186.807 C 134.553 186.432,135.352 186.125,135.597 186.125 C 135.841 186.125,136.041 185.980,136.041 185.804 C 136.041 185.627,136.958 185.378,138.079 185.251 C 139.200 185.125,140.198 184.889,140.298 184.727 C 140.538 184.339,159.391 184.344,159.391 184.732 M214.299 184.905 C 214.861 185.331,214.887 188.452,214.806 244.031 L 214.721 302.707 197.462 302.707 L 180.203 302.707 180.117 244.031 C 180.036 188.452,180.063 185.331,180.625 184.905 C 181.497 184.243,213.427 184.243,214.299 184.905 M254.626 184.727 C 254.725 184.889,255.724 185.125,256.845 185.251 C 257.966 185.378,258.883 185.627,258.883 185.804 C 258.883 185.980,259.252 186.125,259.702 186.125 C 260.567 186.125,262.600 187.133,262.604 187.563 C 262.605 187.703,262.800 187.817,263.038 187.817 C 263.276 187.817,263.731 188.122,264.050 188.494 C 264.369 188.866,264.860 189.171,265.141 189.171 C 265.422 189.171,265.651 189.318,265.651 189.498 C 265.651 189.677,266.108 190.344,266.667 190.980 C 267.225 191.616,267.682 192.307,267.682 192.515 C 267.682 192.723,267.807 192.893,267.960 192.893 C 268.274 192.893,269.712 195.633,269.712 196.230 C 269.712 196.442,269.858 196.616,270.035 196.616 C 270.213 196.616,270.458 197.149,270.581 197.800 C 270.703 198.452,270.936 198.985,271.100 198.985 C 271.263 198.985,271.494 199.594,271.613 200.338 C 271.732 201.083,271.945 201.692,272.086 201.692 C 272.227 201.692,272.445 202.374,272.570 203.207 C 272.695 204.040,272.930 204.804,273.092 204.904 C 273.255 205.005,273.492 205.924,273.620 206.947 C 273.748 207.970,273.987 208.891,274.151 208.992 C 274.316 209.094,274.450 209.473,274.450 209.834 C 274.450 210.195,274.581 210.491,274.741 210.491 C 274.902 210.491,275.126 211.279,275.240 212.242 C 275.354 213.205,275.585 214.081,275.754 214.188 C 275.923 214.295,276.171 215.487,276.305 216.837 C 276.440 218.187,276.671 219.367,276.820 219.459 C 276.969 219.551,277.200 220.579,277.334 221.742 C 277.468 222.906,277.711 223.943,277.874 224.047 C 278.038 224.151,278.271 226.321,278.394 228.869 C 278.516 231.417,278.745 233.503,278.902 233.503 C 279.059 233.503,279.188 238.147,279.188 243.824 C 279.188 250.479,279.068 254.146,278.849 254.146 C 278.663 254.146,278.511 254.617,278.511 255.192 C 278.511 255.955,278.327 256.287,277.834 256.416 C 277.462 256.514,277.157 256.728,277.157 256.892 C 277.157 257.062,268.162 257.191,256.345 257.191 C 242.696 257.191,235.533 257.075,235.533 256.853 C 235.533 256.667,235.305 256.514,235.025 256.514 C 234.577 256.514,234.518 252.322,234.518 220.812 C 234.518 189.303,234.577 185.110,235.025 185.110 C 235.305 185.110,235.533 184.958,235.533 184.772 C 235.533 184.347,254.364 184.303,254.626 184.727 " stroke="none" fill="#000000" fill-rule="evenodd"></path></g></svg>