<svg xmlns="http://www.w3.org/2000/svg" xmlns:xlink="http://www.w3.org/1999/xlink" id="svg" width="400" height="400" version="1.1" viewBox="0 0 400 400"><g id="svgg"><path id="path0" fill="#000" fill-rule="evenodd" stroke="none" d="M83.756 0.356 C 40.266 3.346,5.034 37.107,0.356 80.274 C -0.141 84.861,-0.141 315.478,0.356 320.064 C 4.865 361.666,38.334 395.135,79.936 399.644 C 84.522 400.141,315.139 400.141,319.726 399.644 C 360.891 395.183,393.005 363.671,399.202 321.658 C 399.925 316.756,400.369 96.135,399.678 85.279 C 396.724 38.894,361.578 3.498,315.338 0.341 C 309.601 -0.051,89.462 -0.037,83.756 0.356 M315.446 26.743 C 346.520 29.821,370.482 53.941,373.264 84.941 C 373.983 92.948,373.569 315.804,372.828 319.797 C 367.260 349.804,344.629 370.875,315.059 373.584 C 309.639 374.080,90.022 374.080,84.602 373.584 C 53.452 370.731,29.269 346.548,26.416 315.398 C 25.932 310.109,25.922 90.425,26.406 84.957 C 29.116 54.343,53.145 29.895,83.587 26.780 C 87.824 26.347,311.084 26.311,315.446 26.743 M68.866 130.213 C 66.455 131.013,63.597 133.891,62.648 136.476 L 61.929 138.435 61.929 199.777 L 61.929 261.119 62.798 262.863 C 67.235 271.767,85.191 271.278,88.553 262.160 C 88.842 261.376,88.957 254.571,88.976 237.132 L 89.002 213.182 94.637 213.274 L 100.272 213.367 111.664 238.930 C 117.929 252.990,123.415 264.980,123.854 265.574 C 130.147 274.085,149.466 266.482,148.470 255.887 C 148.318 254.268,146.830 250.924,138.736 234.010 C 133.481 223.029,128.526 212.644,127.724 210.932 L 126.266 207.820 128.916 206.291 C 144.661 197.210,152.155 181.273,149.585 162.341 C 147.254 145.171,135.149 132.954,117.655 130.117 C 112.803 129.330,71.284 129.412,68.866 130.213 M173.604 129.927 C 170.662 130.826,168.035 133.140,166.713 135.999 L 165.990 137.563 165.897 198.816 C 165.793 267.520,165.575 261.591,168.313 264.562 C 172.150 268.725,171.908 268.697,204.749 268.697 C 237.009 268.697,234.685 268.919,238.101 265.509 C 244.428 259.191,242.719 247.825,234.898 244.209 C 233.363 243.499,232.946 243.484,213.113 243.386 L 192.893 243.287 192.893 226.398 L 192.893 209.510 209.898 209.408 C 226.564 209.308,226.936 209.291,228.505 208.566 C 237.269 204.518,237.990 191.873,229.719 187.292 L 227.919 186.294 210.406 186.198 L 192.893 186.102 192.893 170.563 L 192.893 155.023 211.591 154.923 L 230.288 154.822 232.203 153.882 C 241.733 149.202,240.771 132.715,230.807 129.947 C 229.388 129.553,174.893 129.534,173.604 129.927 M262.729 129.979 C 259.696 130.858,256.691 134.056,255.672 137.489 C 255.048 139.588,254.887 259.068,255.504 261.290 C 258.207 271.022,277.386 272.185,281.594 262.872 L 282.403 261.083 282.498 237.140 L 282.594 213.198 288.082 213.201 L 293.570 213.204 302.859 234.098 C 316.450 264.669,316.574 264.934,317.978 266.371 C 325.063 273.628,342.291 266.241,341.712 256.194 C 341.564 253.641,341.552 253.613,330.839 231.303 C 318.138 204.855,319.215 207.920,322.081 206.382 C 338.183 197.741,346.082 180.034,342.640 160.296 C 339.844 144.260,327.878 132.906,310.829 130.113 C 307.320 129.538,264.661 129.419,262.729 129.979 M107.276 153.952 C 116.737 156.734,121.620 162.901,121.626 172.081 C 121.636 185.407,112.906 192.428,95.854 192.809 L 89.002 192.963 89.002 172.926 L 89.002 152.890 96.870 153.048 C 103.689 153.185,105.076 153.306,107.276 153.952 M297.462 153.313 C 310.245 155.330,317.218 164.885,314.574 176.765 C 312.177 187.542,303.397 192.884,288.071 192.891 L 282.572 192.893 282.572 172.927 L 282.572 152.961 288.917 152.964 C 292.407 152.965,296.252 153.122,297.462 153.313"/></g></svg>