<svg id="svg" xmlns="http://www.w3.org/2000/svg" xmlns:xlink="http://www.w3.org/1999/xlink" width="400" height="400" viewBox="0, 0, 400,400" version="1.1"><g id="svgg"><path id="path0" d="M190.525 0.337 C 94.380 5.111,15.793 76.311,1.895 171.235 C 0.393 181.496,0.186 184.938,0.177 199.831 C 0.152 245.203,13.365 285.172,40.119 320.653 C 88.353 384.619,170.108 413.506,248.341 394.225 C 346.353 370.069,410.924 275.643,398.281 174.958 C 385.311 71.667,294.313 -4.817,190.525 0.337 M216.074 27.234 C 346.236 39.897,416.718 186.500,345.013 295.425 C 276.377 399.688,123.244 399.692,54.730 295.431 C -14.865 189.528,49.655 46.192,174.979 28.286 C 180.086 27.556,183.010 27.266,192.047 26.593 C 195.645 26.325,210.919 26.732,216.074 27.234 M116.557 105.539 C 108.819 108.187,104.794 116.788,107.118 125.707 C 107.975 129.000,111.295 134.010,112.619 134.010 C 112.845 134.010,113.029 134.147,113.029 134.314 C 113.029 134.822,115.555 135.972,117.218 136.221 C 118.078 136.350,118.782 136.591,118.782 136.756 C 118.782 136.928,132.184 137.056,150.251 137.056 L 181.721 137.056 181.808 220.728 C 181.894 303.306,181.904 304.417,182.564 305.753 C 184.606 309.884,190.143 313.702,194.840 314.217 C 196.003 314.345,197.040 314.586,197.144 314.754 C 197.388 315.149,203.046 315.155,203.046 314.760 C 203.046 314.596,204.074 314.355,205.330 314.225 C 206.586 314.095,207.951 313.772,208.364 313.508 C 208.776 313.245,209.412 313.029,209.778 313.029 C 210.143 313.029,210.671 312.800,210.950 312.521 C 211.229 312.242,211.646 312.014,211.876 312.014 C 212.107 312.014,212.536 311.788,212.831 311.512 C 215.681 308.846,216.998 307.299,217.817 305.657 L 218.782 303.723 218.869 220.389 L 218.956 137.056 250.237 137.056 C 267.572 137.056,281.598 136.925,281.698 136.762 C 281.798 136.600,282.524 136.365,283.310 136.239 C 286.476 135.733,291.224 131.463,292.218 128.227 C 292.356 127.778,292.588 127.259,292.734 127.073 C 292.880 126.887,293.107 126.009,293.239 125.123 C 293.371 124.236,293.614 123.428,293.778 123.326 C 294.164 123.088,294.171 118.541,293.787 118.303 C 293.627 118.204,293.398 117.396,293.280 116.507 C 293.161 115.618,292.845 114.433,292.577 113.875 C 292.309 113.316,291.999 112.631,291.886 112.352 C 291.262 110.799,288.104 107.276,287.336 107.276 C 287.136 107.276,286.971 107.134,286.971 106.962 C 286.971 106.789,286.096 106.294,285.025 105.862 L 283.080 105.076 200.677 105.014 C 123.224 104.955,118.171 104.986,116.557 105.539 " stroke="none" fill="#000000" fill-rule="evenodd"></path></g></svg>