<svg xmlns="http://www.w3.org/2000/svg" viewBox="0 0 48 48" width="48" height="48"><path d="M 16.5 5 C 12.916 5 10 7.916 10 11.5 L 10 41.5 C 10 42.063 10.315406 42.579938 10.816406 42.835938 C 11.317406 43.091938 11.919953 43.046797 12.376953 42.716797 L 22.039062 35.759766 C 22.024062 35.506766 22 35.257 22 35 C 22 33.891 22.155969 32.820016 22.417969 31.791016 L 13 38.572266 L 13 11.5 C 13 9.57 14.57 8 16.5 8 L 31.5 8 C 33.43 8 35 9.57 35 11.5 L 35 22 C 36.034 22 37.035 22.134281 38 22.363281 L 38 11.5 C 38 7.916 35.084 5 31.5 5 L 16.5 5 z M 35 24 C 28.925 24 24 28.925 24 35 C 24 41.075 28.925 46 35 46 C 41.075 46 46 41.075 46 35 C 46 28.925 41.075 24 35 24 z M 35 27 C 35.552 27 36 27.448 36 28 L 36 34 L 42 34 C 42.552 34 43 34.448 43 35 C 43 35.552 42.552 36 42 36 L 36 36 L 36 42 C 36 42.552 35.552 43 35 43 C 34.448 43 34 42.552 34 42 L 34 36 L 28 36 C 27.448 36 27 35.552 27 35 C 27 34.448 27.448 34 28 34 L 34 34 L 34 28 C 34 27.448 34.448 27 35 27 z"/></svg>