<svg xmlns="http://www.w3.org/2000/svg" viewBox="0 0 48 48" width="48" height="48"><path d="M 30.5 7 A 1.50015 1.50015 0 0 0 29.089844 9.0117188 L 31.267578 15 L 18.818359 15 L 17.871094 13 L 19.5 13 A 1.50015 1.50015 0 1 0 19.5 10 L 15.722656 10 A 1.50015 1.50015 0 0 0 15.255859 10 L 13.5 10 A 1.50015 1.50015 0 1 0 13.5 13 L 14.550781 13 L 16.009766 16.082031 L 12.34375 22.5 C 11.453019 22.182332 10.498471 22 9.5 22 C 4.813 22 1 25.813 1 30.5 C 1 35.187 4.813 39 9.5 39 C 12.938 39 15.899328 36.944 17.236328 34 L 13.738281 34 C 12.728281 35.221 11.204 36 9.5 36 C 6.468 36 4 33.533 4 30.5 C 4 27.467 6.468 25 9.5 25 C 9.9557237 25 10.396537 25.061004 10.820312 25.166016 L 8.1972656 29.755859 A 1.50015 1.50015 0 0 0 9.5 32 L 24.277344 32 A 1.50015 1.50015 0 0 0 25.902344 31.070312 L 32.751953 19.082031 L 34.236328 23.164062 C 31.710602 24.641512 30 27.376825 30 30.5 C 30 35.176657 33.823343 39 38.5 39 C 43.176657 39 47 35.176657 47 30.5 C 47 25.823343 43.176657 22 38.5 22 C 38.00624 22 37.525928 22.053023 37.054688 22.134766 L 32.642578 10 L 34.5 10 A 1.50015 1.50015 0 1 0 34.5 7 L 30.5 7 z M 20.238281 18 L 29.914062 18 L 24.625 27.257812 L 20.238281 18 z M 17.576172 19.388672 L 22.128906 29 L 17.859375 29 C 17.501195 26.99999 16.448274 25.238846 14.951172 23.984375 L 17.576172 19.388672 z M 38.5 25 C 41.555343 25 44 27.444657 44 30.5 C 44 33.555343 41.555343 36 38.5 36 C 35.444657 36 33 33.555343 33 30.5 C 33 28.652037 33.898427 27.032489 35.28125 26.037109 L 37.089844 31.011719 A 1.50015 1.50015 0 1 0 39.910156 29.988281 L 38.103516 25.019531 C 38.235145 25.010262 38.365861 25 38.5 25 z M 13.425781 26.65625 C 14.059692 27.303484 14.532842 28.104998 14.787109 29 L 12.085938 29 L 13.425781 26.65625 z"/></svg>