<svg id="svg" xmlns="http://www.w3.org/2000/svg" xmlns:xlink="http://www.w3.org/1999/xlink" width="400" height="400" viewBox="0, 0, 400,400"><g id="svgg"><path id="path0" d="M11.084 0.167 C -2.767 2.203,-3.958 21.587,9.510 25.768 L 10.749 26.153 199.069 26.202 C 334.468 26.238,387.756 26.200,388.697 26.067 C 403.487 23.977,403.551 2.226,388.773 0.183 C 387.243 -0.029,12.522 -0.044,11.084 0.167 M307.697 128.148 C 291.882 129.474,279.069 137.660,272.865 150.402 C 266.752 162.960,267.655 179.970,275.026 191.113 C 279.955 198.563,284.979 202.575,300.042 211.086 C 304.046 213.348,308.004 215.664,308.839 216.232 C 320.303 224.041,320.934 238.004,310.061 243.241 C 302.789 246.744,292.845 245.914,280.828 240.801 C 274.078 237.930,270.544 239.099,267.546 245.197 C 262.109 256.256,265.449 262.322,279.473 266.856 C 314.044 278.032,344.482 259.607,344.477 227.507 C 344.474 210.851,336.823 198.021,321.283 188.611 C 320.214 187.964,316.389 185.824,312.782 183.856 C 305.525 179.896,304.875 179.509,302.920 177.990 C 288.821 167.036,296.251 149.768,314.177 151.829 C 318.040 152.273,321.939 153.419,327.056 155.614 C 332.334 157.878,334.403 157.937,337.245 155.902 C 341.360 152.955,344.131 142.966,342.003 138.756 C 338.745 132.311,321.532 126.989,307.697 128.148 M176.471 129.179 C 171.277 129.828,167.392 132.414,165.920 136.203 L 165.468 137.368 165.415 180.956 C 165.357 229.865,165.352 229.610,166.578 236.225 C 170.371 256.684,183.139 267.896,204.824 269.812 C 235.603 272.531,254.408 257.692,256.783 228.810 C 257.086 225.123,257.022 138.289,256.716 137.136 C 253.798 126.174,232.344 126.401,230.063 137.418 C 229.931 138.055,229.877 150.342,229.877 179.737 C 229.876 206.581,229.814 221.994,229.701 223.529 C 228.658 237.672,223.152 244.881,213.001 245.397 C 203.285 245.890,196.883 240.321,194.511 229.314 C 193.547 224.838,193.598 227.260,193.494 180.449 L 193.398 137.368 193.014 136.419 C 190.920 131.243,184.044 128.233,176.471 129.179 M70.770 129.680 C 66.853 130.449,63.897 133.063,62.536 136.961 L 62.040 138.383 61.996 198.890 C 61.957 252.824,61.981 259.508,62.212 260.422 C 63.132 264.050,66.299 266.811,71.011 268.093 L 72.704 268.553 92.594 268.607 C 115.724 268.670,117.272 268.607,122.847 267.359 C 142.353 262.994,153.050 248.511,152.466 227.253 C 152.025 211.195,142.618 198.495,129.083 195.685 C 127.843 195.428,127.896 195.218,129.398 194.447 C 145.146 186.363,152.610 171.978,149.297 156.097 C 146.233 141.408,132.876 131.203,114.718 129.678 C 112.088 129.458,71.897 129.459,70.770 129.680 M103.864 152.868 C 115.763 154.029,121.768 159.760,121.768 169.953 C 121.768 177.455,118.619 182.306,111.856 185.222 C 107.814 186.964,104.890 187.384,95.937 187.510 L 89.039 187.606 89.039 170.147 L 89.039 152.687 95.527 152.687 C 99.095 152.687,102.847 152.768,103.864 152.868 M106.608 206.865 C 120.028 208.327,126.878 215.884,125.780 228.015 C 124.871 238.055,119.724 243.275,108.988 245.043 C 107.561 245.278,105.691 245.345,98.900 245.406 L 90.563 245.481 90.563 226.083 L 90.563 206.686 97.764 206.686 C 101.724 206.686,105.704 206.767,106.608 206.865 M10.326 374.193 C -2.643 376.961,-3.673 395.032,8.887 399.440 L 10.241 399.915 199.492 399.959 L 388.743 400.002 390.097 399.660 C 402.920 396.428,403.277 378.668,390.605 374.414 L 389.420 374.016 200.423 373.987 C 39.801 373.962,11.261 373.993,10.326 374.193 " stroke="none" fill="#000000" fill-rule="evenodd"></path></g></svg>