<svg id="svg" xmlns="http://www.w3.org/2000/svg" xmlns:xlink="http://www.w3.org/1999/xlink" width="400" height="400" viewBox="0, 0, 400,400"><g id="svgg"><path id="path0" d="M10.725 0.250 C -1.466 2.463,-4.021 18.991,6.945 24.705 C 7.646 25.071,8.788 25.546,9.484 25.761 L 10.749 26.153 199.238 26.197 C 367.622 26.235,387.888 26.212,389.229 25.982 C 403.685 23.493,403.269 2.200,388.726 0.178 C 386.663 -0.109,12.310 -0.038,10.725 0.250 M276.767 82.446 C 251.024 86.996,229.880 90.722,229.780 90.726 C 229.680 90.729,229.430 89.875,229.225 88.828 C 228.111 83.137,224.134 79.524,218.705 79.271 C 216.816 79.183,179.914 85.486,177.296 86.343 C 171.949 88.095,168.909 93.699,170.048 99.703 C 170.193 100.468,170.277 101.129,170.235 101.171 C 170.193 101.213,149.031 104.972,123.209 109.524 C 71.043 118.719,75.322 117.904,74.245 118.852 C 72.568 120.328,72.349 121.797,73.169 126.046 C 73.910 129.881,75.017 131.170,77.698 131.318 C 78.562 131.366,186.286 112.596,192.679 111.283 L 193.144 111.188 193.144 135.577 L 193.144 159.966 164.917 159.967 C 132.142 159.967,132.298 159.960,126.647 161.749 C 114.429 165.618,106.370 173.528,101.136 186.791 C 86.409 224.108,86.424 265.947,101.180 303.428 C 107.019 318.261,116.936 326.723,131.866 329.613 L 133.813 329.990 198.477 330.049 C 266.907 330.112,265.397 330.128,269.488 329.311 C 282.859 326.643,292.961 317.858,298.474 304.105 C 313.668 266.194,313.592 223.285,298.262 185.442 C 292.590 171.441,281.836 162.732,267.287 160.357 C 265.668 160.092,262.909 160.062,236.182 160.011 L 206.855 159.956 206.897 134.363 L 206.940 108.769 266.686 98.234 C 299.546 92.439,326.664 87.602,326.947 87.485 C 329.402 86.468,329.992 84.598,329.233 80.250 C 328.522 76.183,327.742 74.927,325.548 74.318 C 324.463 74.016,324.417 74.024,276.767 82.446 M159.458 178.511 C 159.783 178.702,160.221 179.113,160.431 179.425 L 160.813 179.991 160.813 219.430 L 160.813 258.868 160.465 259.430 C 160.275 259.739,159.837 260.167,159.492 260.381 L 158.866 260.770 135.675 260.821 C 108.469 260.881,110.243 260.981,109.287 259.344 C 108.226 257.528,108.021 240.681,108.946 231.316 C 110.353 217.069,114.996 199.074,119.679 189.717 C 122.903 183.276,129.240 178.921,136.352 178.261 C 139.944 177.927,158.812 178.131,159.458 178.511 M218.928 178.324 C 219.771 178.625,220.206 179.026,220.587 179.856 C 220.946 180.637,221.095 308.693,220.739 309.935 C 220.519 310.702,219.629 311.600,218.882 311.808 C 218.505 311.913,211.430 311.973,199.831 311.972 C 179.178 311.969,180.497 312.047,179.585 310.769 L 179.179 310.199 179.136 245.221 L 179.093 180.243 179.464 179.583 C 179.875 178.852,180.431 178.422,181.207 178.236 C 182.243 177.987,218.220 178.071,218.928 178.324 M265.297 178.464 C 273.140 180.037,278.371 184.673,281.654 192.963 C 289.596 213.016,292.947 234.914,291.237 255.594 C 290.941 259.177,290.720 259.806,289.547 260.417 C 288.844 260.784,242.287 260.998,241.010 260.641 C 240.297 260.441,239.385 259.543,239.193 258.852 C 238.900 257.800,238.957 180.582,239.250 179.893 C 239.552 179.184,240.180 178.616,240.991 178.319 C 241.980 177.956,263.401 178.084,265.297 178.464 M10.241 374.212 C -2.631 376.959,-3.602 395.057,8.887 399.440 L 10.241 399.915 199.408 399.962 C 372.291 400.004,388.683 399.984,389.843 399.737 C 402.836 396.965,403.385 378.704,390.605 374.414 L 389.420 374.016 200.423 373.987 C 33.317 373.962,11.289 373.988,10.241 374.212 " stroke="none" fill="#000000" fill-rule="evenodd"></path></g></svg>