<svg xmlns="http://www.w3.org/2000/svg" viewBox="0 0 48 48" width="48" height="48"><path d="M 17.160156 4.0019531 C 16.778783 3.9894171 16.399146 4.0200617 16.027344 4.09375 C 15.283739 4.2411266 14.575173 4.5581435 13.958984 5.03125 C 12.725281 5.977712 12 7.443878 12 9 L 12 27 L 8.5 27 C 5.475 27 3 29.475 3 32.5 L 3 42.5 C 3 43.328 3.672 44 4.5 44 L 20.5 44 L 33.5 44 L 35 44 L 43.5 44 C 44.328 44 45 43.328 45 42.5 L 45 25.5 C 45 22.475 42.525 20 39.5 20 L 35 20 L 35 12.5 C 35 10.246522 33.476836 8.2583396 31.300781 7.671875 L 18.300781 4.171875 C 17.924641 4.0702057 17.54153 4.0144891 17.160156 4.0019531 z M 17.068359 7.0019531 C 17.22096 7.0062675 17.372172 7.0285287 17.519531 7.0683594 L 30.519531 10.568359 C 31.393476 10.803895 32 11.595478 32 12.5 L 32 41 L 22 41 L 22 32.5 C 22 29.475 19.525 27 16.5 27 L 15 27 L 15 9 C 15 8.392122 15.30086 7.7816943 15.785156 7.4101562 C 16.146373 7.132816 16.610557 6.9890099 17.068359 7.0019531 z M 19 13 C 18.448 13 18 13.448 18 14 L 18 16 C 18 16.552 18.448 17 19 17 L 21 17 C 21.552 17 22 16.552 22 16 L 22 14 C 22 13.448 21.552 13 21 13 L 19 13 z M 26 13 C 25.448 13 25 13.448 25 14 L 25 16 C 25 16.552 25.448 17 26 17 L 28 17 C 28.552 17 29 16.552 29 16 L 29 14 C 29 13.448 28.552 13 28 13 L 26 13 z M 19 20 C 18.448 20 18 20.448 18 21 L 18 23 C 18 23.552 18.448 24 19 24 L 21 24 C 21.552 24 22 23.552 22 23 L 22 21 C 22 20.448 21.552 20 21 20 L 19 20 z M 26 20 C 25.448 20 25 20.448 25 21 L 25 23 C 25 23.552 25.448 24 26 24 L 28 24 C 28.552 24 29 23.552 29 23 L 29 21 C 29 20.448 28.552 20 28 20 L 26 20 z M 26 27 C 25.448 27 25 27.448 25 28 L 25 30 C 25 30.552 25.448 31 26 31 L 28 31 C 28.552 31 29 30.552 29 30 L 29 28 C 29 27.448 28.552 27 28 27 L 26 27 z M 38 27 L 40 27 C 40.552 27 41 27.448 41 28 L 41 30 C 41 30.552 40.552 31 40 31 L 38 31 C 37.448 31 37 30.552 37 30 L 37 28 C 37 27.448 37.448 27 38 27 z M 8 34 L 10 34 C 10.552 34 11 34.448 11 35 L 11 37 C 11 37.552 10.552 38 10 38 L 8 38 C 7.448 38 7 37.552 7 37 L 7 35 C 7 34.448 7.448 34 8 34 z M 15 34 L 17 34 C 17.552 34 18 34.448 18 35 L 18 37 C 18 37.552 17.552 38 17 38 L 15 38 C 14.448 38 14 37.552 14 37 L 14 35 C 14 34.448 14.448 34 15 34 z M 26 34 C 25.448 34 25 34.448 25 35 L 25 37 C 25 37.552 25.448 38 26 38 L 28 38 C 28.552 38 29 37.552 29 37 L 29 35 C 29 34.448 28.552 34 28 34 L 26 34 z M 38 34 L 40 34 C 40.552 34 41 34.448 41 35 L 41 37 C 41 37.552 40.552 38 40 38 L 38 38 C 37.448 38 37 37.552 37 37 L 37 35 C 37 34.448 37.448 34 38 34 z"/></svg>