<svg xmlns="http://www.w3.org/2000/svg" xmlns:xlink="http://www.w3.org/1999/xlink" id="svg" width="400" height="400" version="1.1" viewBox="0 0 400 400"><g id="svgg"><path id="path0" fill="#000" fill-rule="evenodd" stroke="none" d="M185.427 14.832 C 167.942 19.416,168.076 19.214,151.259 66.406 C 144.138 86.387,128.339 130.323,116.148 164.042 L 93.984 225.349 90.035 227.080 C 87.863 228.032,70.711 234.998,51.920 242.560 C 15.198 257.339,13.110 258.329,7.897 263.437 C -4.873 275.951,0.226 292.078,20.483 303.244 C 60.791 325.462,164.812 380.400,169.855 382.135 C 187.721 388.280,212.996 388.306,230.256 382.198 C 236.155 380.111,379.491 303.885,386.373 299.176 C 403.028 287.779,402.920 269.462,386.135 258.729 C 383.212 256.860,319.967 230.727,309.766 227.174 C 306.189 225.928,306.083 225.728,299.764 208.203 C 296.510 199.180,284.717 166.484,273.558 135.547 C 262.399 104.609,249.339 68.223,244.537 54.688 C 233.552 23.730,233.058 22.866,223.570 18.033 C 214.212 13.267,196.930 11.817,185.427 14.832 M158.020 105.412 C 178.590 116.917,217.860 117.315,240.191 106.246 C 243.605 104.554,246.499 103.270,246.622 103.393 C 248.080 104.851,259.933 140.364,259.335 141.482 C 250.661 157.688,196.656 165.265,163.672 154.904 C 151.077 150.947,138.829 142.806,140.193 139.297 C 140.494 138.524,143.568 130.068,147.024 120.508 C 150.480 110.947,153.448 103.125,153.619 103.125 C 153.790 103.125,155.770 104.154,158.020 105.412 M124.389 231.658 C 166.977 256.813,251.536 253.273,285.152 224.928 C 287.308 223.110,289.213 221.768,289.385 221.944 C 289.722 222.289,294.209 234.071,299.326 248.047 C 303.766 260.176,302.598 264.277,292.578 271.739 C 253.369 300.938,146.995 300.920,107.422 271.708 C 95.368 262.811,95.334 261.528,106.386 232.391 L 110.547 221.422 115.234 225.221 C 117.813 227.310,121.932 230.207,124.389 231.658"/></g></svg>