<svg id="svg" xmlns="http://www.w3.org/2000/svg" xmlns:xlink="http://www.w3.org/1999/xlink" width="400" height="400" viewBox="0, 0, 400,400" version="1.1"><g id="svgg"><path id="path0" d="M186.782 14.492 C 171.683 17.924,166.816 22.574,161.072 39.063 C 159.351 44.004,155.424 55.078,152.347 63.672 C 149.269 72.266,145.773 82.109,144.579 85.547 C 143.384 88.984,140.736 96.367,138.694 101.953 C 136.651 107.539,132.951 117.734,130.470 124.609 C 127.989 131.484,125.197 139.219,124.264 141.797 C 123.331 144.375,120.279 152.813,117.481 160.547 C 114.683 168.281,110.882 178.828,109.035 183.984 C 93.700 226.782,94.430 224.991,91.765 226.387 C 89.343 227.656,66.522 236.915,50.000 243.332 C 44.199 245.585,36.992 248.506,33.984 249.824 C 30.977 251.141,26.064 253.140,23.067 254.265 C -1.411 263.458,-6.272 284.349,12.806 298.357 C 15.001 299.969,22.598 304.353,29.688 308.101 C 36.777 311.848,43.281 315.326,44.141 315.831 C 45.752 316.776,51.796 320.024,61.328 325.065 C 64.336 326.656,69.167 329.231,72.065 330.787 C 74.962 332.343,79.532 334.783,82.221 336.210 C 84.910 337.637,89.922 340.326,93.359 342.187 C 96.797 344.047,101.367 346.508,103.516 347.655 C 116.853 354.777,121.168 357.088,125.000 359.162 C 127.363 360.441,132.461 363.173,136.328 365.232 C 140.195 367.292,147.402 371.171,152.344 373.851 C 172.085 384.561,178.759 386.284,200.391 386.253 C 221.824 386.223,229.453 384.170,249.219 373.111 C 253.301 370.828,262.793 365.689,270.313 361.693 C 304.927 343.297,316.073 337.317,316.797 336.751 C 317.227 336.416,322.500 333.596,328.516 330.485 C 334.531 327.374,344.432 322.054,350.518 318.664 C 356.604 315.274,361.765 312.500,361.988 312.500 C 366.556 312.500,390.975 296.035,394.850 290.341 C 405.300 274.989,397.394 262.348,370.703 251.732 C 352.933 244.665,350.458 243.662,347.266 242.236 C 345.547 241.468,342.734 240.394,341.016 239.849 C 339.297 239.305,337.539 238.613,337.109 238.313 C 336.680 238.013,329.448 235.037,321.040 231.699 C 305.835 225.664,305.747 225.615,304.907 222.776 C 304.442 221.206,300.986 211.484,297.227 201.172 C 293.467 190.859,289.365 179.609,288.112 176.172 C 286.858 172.734,285.021 167.637,284.028 164.844 C 279.661 152.556,273.344 135.014,271.088 128.906 C 269.739 125.254,268.342 121.387,267.984 120.313 C 267.626 119.238,265.866 114.316,264.073 109.375 C 262.280 104.434,257.105 90.020,252.573 77.344 C 248.040 64.668,243.312 51.484,242.065 48.047 C 240.818 44.609,239.245 40.052,238.569 37.919 C 236.307 30.782,232.807 24.320,230.226 22.518 C 228.856 21.561,227.559 20.547,227.344 20.264 C 223.398 15.066,199.327 11.640,186.782 14.492 M213.994 29.541 C 222.111 32.484,220.723 29.957,232.525 63.281 C 235.340 71.230,238.524 80.118,239.602 83.030 C 241.834 89.066,241.696 89.474,236.371 92.594 C 219.292 102.603,184.446 102.864,165.158 93.127 C 157.304 89.163,156.542 94.202,171.347 52.195 C 177.393 35.038,178.305 33.164,181.377 31.572 C 190.948 26.611,203.718 25.816,213.994 29.541 M161.808 107.233 C 183.469 117.535,226.199 115.981,244.119 104.239 C 245.232 103.510,246.270 103.049,246.427 103.214 C 246.931 103.749,249.304 109.645,250.792 114.063 C 251.589 116.426,252.943 120.293,253.801 122.656 C 261.031 142.566,260.871 140.808,255.855 145.211 C 233.382 164.943,166.034 164.631,143.773 144.693 L 139.610 140.965 145.671 124.193 C 149.004 114.969,152.099 106.294,152.549 104.916 C 153.366 102.413,153.369 102.411,155.394 103.778 C 156.510 104.531,159.396 106.086,161.808 107.233 M274.254 180.357 C 284.304 208.583,284.188 206.545,276.165 213.896 C 245.986 241.547,151.710 241.024,122.907 213.047 C 116.388 206.715,116.391 206.770,121.515 192.361 C 123.917 185.606,127.652 174.980,129.814 168.750 C 134.484 155.298,134.182 155.710,137.555 158.174 C 166.030 178.970,235.336 179.096,261.719 158.400 C 265.979 155.058,264.031 151.646,274.254 180.357 M124.949 232.001 C 165.751 256.059,247.674 253.309,282.688 226.707 C 286.272 223.984,289.362 221.915,289.556 222.108 C 289.750 222.302,290.919 225.229,292.154 228.613 C 293.390 231.997,295.502 237.578,296.849 241.016 C 304.045 259.387,303.755 262.929,294.441 270.462 C 251.580 305.126,118.136 299.338,98.551 261.965 C 96.770 258.567,99.042 249.906,106.152 232.993 C 107.466 229.870,108.952 225.938,109.456 224.257 L 110.372 221.199 115.670 225.427 C 118.585 227.752,122.760 230.710,124.949 232.001 M85.436 247.730 C 66.062 299.038,206.865 329.100,287.500 290.872 C 311.517 279.486,320.368 265.350,314.431 247.864 C 312.873 243.275,311.514 243.061,328.906 250.141 C 337.285 253.552,345.547 256.859,347.266 257.489 C 348.984 258.119,351.797 259.283,353.516 260.075 C 355.234 260.867,357.520 261.778,358.594 262.101 C 359.668 262.423,361.953 263.316,363.672 264.085 C 365.391 264.855,368.654 266.190,370.923 267.051 C 377.353 269.494,382.866 273.375,384.100 276.328 C 386.692 282.532,381.892 286.307,350.781 302.536 C 344.980 305.562,335.664 310.566,330.078 313.655 C 324.492 316.744,317.394 320.559,314.305 322.132 C 311.215 323.706,305.414 326.799,301.414 329.006 C 297.414 331.213,287.109 336.710,278.516 341.222 C 269.922 345.734,262.012 350.031,260.938 350.771 C 251.129 357.532,224.204 369.740,216.016 371.139 C 198.165 374.189,173.439 371.138,165.234 364.873 C 164.494 364.308,162.193 363.064,144.531 353.682 C 140.449 351.513,117.070 338.960,92.578 325.785 C 68.086 312.610,46.992 301.278,45.703 300.603 C 44.414 299.927,40.371 297.755,36.719 295.775 C 33.066 293.795,28.250 291.266,26.015 290.155 C 20.179 287.253,14.533 281.043,15.215 278.275 C 16.218 274.203,29.382 264.844,34.108 264.844 C 34.830 264.844,46.237 260.346,53.045 257.378 C 59.029 254.769,86.339 243.953,86.532 244.116 C 86.644 244.210,86.151 245.836,85.436 247.730 " stroke="none" fill="#000000" fill-rule="evenodd"></path></g></svg>