<svg xmlns="http://www.w3.org/2000/svg" viewBox="0 0 48 48" width="48" height="48"><path d="M 30.5 7 A 1.50015 1.50015 0 0 0 29.089844 9.0117188 L 31.414062 15.404297 L 22.347656 20.923828 L 18.027344 13 L 19.5 13 A 1.50015 1.50015 0 1 0 19.5 10 L 15.712891 10 A 1.50015 1.50015 0 0 0 15.261719 10 L 13.5 10 A 1.50015 1.50015 0 1 0 13.5 13 L 14.609375 13 L 19.783203 22.484375 L 15.863281 24.871094 C 14.30388 23.112143 12.024627 22 9.5 22 C 4.823343 22 1 25.823343 1 30.5 C 1 35.176657 4.823343 39 9.5 39 L 14.183594 39 C 14.867323 41.854977 17.444794 44 20.5 44 L 22.5 44 A 1.50015 1.50015 0 0 0 24 42.5 L 24 42 L 26.5 42 A 1.50015 1.50015 0 1 0 26.5 39 L 24 39 L 24 36 L 26.5 36 A 1.50015 1.50015 0 1 0 26.5 33 L 24 33 L 24 32.5 A 1.50015 1.50015 0 0 0 22.5 31 L 20.5 31 C 17.444794 31 14.867323 33.145023 14.183594 36 L 9.5 36 C 6.444657 36 4 33.555343 4 30.5 C 4 27.444657 6.444657 25 9.5 25 C 10.951591 25 12.259104 25.558991 13.238281 26.46875 L 8.7207031 29.21875 A 1.50015 1.50015 0 1 0 10.279297 31.78125 L 32.460938 18.279297 L 34.236328 23.164062 C 31.710602 24.641512 30 27.376825 30 30.5 C 30 35.176657 33.823343 39 38.5 39 C 43.176657 39 47 35.176657 47 30.5 C 47 25.823343 43.176657 22 38.5 22 C 38.00624 22 37.525928 22.053023 37.054688 22.134766 L 32.642578 10 L 34.5 10 A 1.50015 1.50015 0 1 0 34.5 7 L 30.5 7 z M 38.5 25 C 41.555343 25 44 27.444657 44 30.5 C 44 33.555343 41.555343 36 38.5 36 C 35.444657 36 33 33.555343 33 30.5 C 33 28.652037 33.898427 27.032489 35.28125 26.037109 L 37.089844 31.011719 A 1.50015 1.50015 0 1 0 39.910156 29.988281 L 38.103516 25.019531 C 38.235145 25.010262 38.365861 25 38.5 25 z M 20.5 34 L 21 34 L 21 34.253906 A 1.50015 1.50015 0 0 0 21 34.740234 L 21 40.253906 A 1.50015 1.50015 0 0 0 21 40.740234 L 21 41 L 20.5 41 C 18.549938 41 17 39.450062 17 37.5 C 17 35.549938 18.549938 34 20.5 34 z"/></svg>