<svg xmlns="http://www.w3.org/2000/svg" viewBox="0 0 48 48" width="48" height="48"><path d="M 7.4765625 4.9785156 A 1.50015 1.50015 0 0 0 6 6.5 L 6 31.5 L 6 43.5 A 1.50015 1.50015 0 1 0 9 43.5 L 9 33 L 40.5 33 A 1.50015 1.50015 0 0 0 42 31.5 L 42 6.5 A 1.50015 1.50015 0 0 0 40.5 5 L 7.7460938 5 A 1.50015 1.50015 0 0 0 7.4765625 4.9785156 z M 9 8 L 16 8 L 16 15 L 24 15 L 24 8 L 32 8 L 32 15 L 39 15 L 39 23 L 32 23 L 32 30 L 24 30 L 24 23 L 16 23 L 16 30 L 9 30 L 9 23 L 16 23 L 16 15 L 9 15 L 9 8 z M 24 23 L 32 23 L 32 15 L 24 15 L 24 23 z"/></svg>