<svg xmlns="http://www.w3.org/2000/svg" viewBox="0 0 48 48" width="48" height="48"><path d="M 5.5 8 A 1.5 1.5 0 0 0 5.5 11 A 1.5 1.5 0 0 0 5.5 8 z M 11.5 8 A 1.50015 1.50015 0 1 0 11.5 11 L 42.5 11 A 1.50015 1.50015 0 1 0 42.5 8 L 11.5 8 z M 5.5 15 A 1.5 1.5 0 0 0 5.5 18 A 1.5 1.5 0 0 0 5.5 15 z M 11.5 15 A 1.50015 1.50015 0 1 0 11.5 18 L 42.5 18 A 1.50015 1.50015 0 1 0 42.5 15 L 11.5 15 z M 5.5 29 A 1.5 1.5 0 0 0 5.5 32 A 1.5 1.5 0 0 0 5.5 29 z M 11.5 29 A 1.50015 1.50015 0 1 0 11.5 32 L 42.5 32 A 1.50015 1.50015 0 1 0 42.5 29 L 11.5 29 z M 5.5 36 A 1.5 1.5 0 0 0 5.5 39 A 1.5 1.5 0 0 0 5.5 36 z M 11.5 36 A 1.50015 1.50015 0 1 0 11.5 39 L 42.5 39 A 1.50015 1.50015 0 1 0 42.5 36 L 11.5 36 z"/></svg>