<svg xmlns="http://www.w3.org/2000/svg" viewBox="0 0 48 48" width="48" height="48"><path d="M 8.5 6 A 1.50015 1.50015 0 0 0 7 7.5 L 7 40.5 A 1.50015 1.50015 0 0 0 8.5 42 L 23.5 42 A 1.50015 1.50015 0 0 0 25 40.5 L 25 35.216797 C 26.103752 39.090427 29.532736 42 33.75 42 C 38.840869 42 43 37.840865 43 32.75 C 43 28.532739 40.090428 25.103754 36.216797 24 C 40.090428 22.896246 43 19.467261 43 15.25 C 43 10.159135 38.840869 6 33.75 6 C 29.532736 6 26.103752 8.9095728 25 12.783203 L 25 7.5 A 1.50015 1.50015 0 0 0 23.5 6 L 8.5 6 z M 10 9 L 22 9 L 22 39 L 10 39 L 10 9 z M 33.75 9 C 37.21955 9 40 11.780452 40 15.25 C 40 18.719548 37.21955 21.5 33.75 21.5 C 30.28045 21.5 27.5 18.719548 27.5 15.25 C 27.5 11.780452 30.28045 9 33.75 9 z M 25 17.716797 C 25.87511 20.788005 28.211994 23.124888 31.283203 24 C 28.211994 24.875112 25.87511 27.211995 25 30.283203 L 25 17.716797 z M 33.75 26.5 C 37.21955 26.5 40 29.280452 40 32.75 C 40 36.219548 37.21955 39 33.75 39 C 30.28045 39 27.5 36.219548 27.5 32.75 C 27.5 29.280452 30.28045 26.5 33.75 26.5 z"/></svg>