<svg xmlns="http://www.w3.org/2000/svg" viewBox="0 0 48 48" width="48" height="48"><path d="M 23.976562 2.9785156 A 1.50015 1.50015 0 0 0 22.5 4.5 L 22.5 6.0761719 C 13.772732 6.8015194 6.8015188 13.772738 6.0761719 22.5 L 4.5 22.5 A 1.50015 1.50015 0 1 0 4.5 25.5 L 6.0761719 25.5 C 6.8015188 34.227262 13.772732 41.198481 22.5 41.923828 L 22.5 43.5 A 1.50015 1.50015 0 1 0 25.5 43.5 L 25.5 41.923828 C 29.256212 41.611639 32.69151 40.155252 35.441406 37.884766 C 39.080682 34.879953 41.51067 30.471053 41.923828 25.5 L 43.5 25.5 A 1.50015 1.50015 0 0 0 43.650391 25.494141 A 1.50015 1.50015 0 0 0 43.5 22.5 L 41.923828 22.5 C 41.914546 22.388322 41.917571 22.273207 41.90625 22.162109 C 41.35205 16.723757 38.366649 11.992662 34.056641 9.078125 C 31.574145 7.3993984 28.648789 6.3378765 25.5 6.0761719 L 25.5 4.5 A 1.50015 1.50015 0 0 0 23.976562 2.9785156 z M 22.5 9.0761719 L 22.5 10.5 A 1.50015 1.50015 0 1 0 25.5 10.5 L 25.5 9.0761719 C 28.039525 9.3267767 30.390321 10.204159 32.394531 11.556641 C 34.788026 13.171819 36.68774 15.461185 37.824219 18.154297 C 38.392458 19.500853 38.768623 20.947585 38.921875 22.462891 C 38.923108 22.475086 38.922624 22.487796 38.923828 22.5 L 37.5 22.5 A 1.50015 1.50015 0 1 0 37.5 25.5 L 38.923828 25.5 C 38.822864 26.523132 38.623227 27.515268 38.328125 28.466797 C 37.453381 31.287332 35.770129 33.747935 33.548828 35.580078 C 31.327527 37.412221 28.567723 38.61537 25.537109 38.921875 C 25.524914 38.923108 25.512204 38.922624 25.5 38.923828 L 25.5 37.5 A 1.50015 1.50015 0 0 0 23.976562 35.978516 A 1.50015 1.50015 0 0 0 22.5 37.5 L 22.5 38.923828 C 21.982332 38.872744 21.473298 38.7974 20.972656 38.695312 C 14.605941 37.397051 9.7258169 32.083234 9.0761719 25.5 L 10.5 25.5 A 1.50015 1.50015 0 0 0 10.650391 25.494141 A 1.50015 1.50015 0 0 0 10.5 22.5 L 9.0761719 22.5 C 9.0773762 22.487796 9.0768916 22.475086 9.078125 22.462891 C 9.7945366 15.379268 15.411298 9.7756975 22.5 9.0761719 z M 24 19 C 22.458334 19 21.112148 19.632133 20.253906 20.597656 C 19.395664 21.563179 19 22.791667 19 24 C 19 25.208333 19.395664 26.436821 20.253906 27.402344 C 21.112148 28.367867 22.458334 29 24 29 C 25.541666 29 26.887852 28.367867 27.746094 27.402344 C 28.604336 26.436821 29 25.208333 29 24 C 29 22.791667 28.604336 21.563179 27.746094 20.597656 C 26.887852 19.632133 25.541666 19 24 19 z M 24 22 C 24.791666 22 25.195482 22.242867 25.503906 22.589844 C 25.81233 22.936821 26 23.458333 26 24 C 26 24.541667 25.81233 25.063179 25.503906 25.410156 C 25.195482 25.757133 24.791666 26 24 26 C 23.208334 26 22.804518 25.757133 22.496094 25.410156 C 22.18767 25.063179 22 24.541667 22 24 C 22 23.864583 22.01079 23.730095 22.033203 23.599609 C 22.100443 23.208154 22.264776 22.850077 22.496094 22.589844 C 22.804518 22.242867 23.208334 22 24 22 z"/></svg>