<svg id="svg" xmlns="http://www.w3.org/2000/svg" xmlns:xlink="http://www.w3.org/1999/xlink" width="400" height="400" viewBox="0, 0, 400,400" version="1.1"><g id="svgg"><path id="path0" d="M194.374 25.664 C 188.533 28.212,187.500 30.567,187.500 41.333 L 187.500 49.597 179.867 50.610 C 116.057 59.075,63.514 109.076,52.045 172.251 L 49.276 187.500 40.942 187.500 C 27.446 187.500,21.512 194.010,25.246 204.720 C 27.378 210.837,30.733 212.500,40.942 212.500 L 49.276 212.500 52.045 227.749 C 63.296 289.721,113.118 338.489,175.391 348.485 L 187.500 350.429 187.500 358.911 C 187.500 372.558,193.963 378.504,204.720 374.754 C 210.856 372.616,212.500 369.267,212.500 358.911 L 212.500 350.429 224.527 348.489 C 287.008 338.409,336.688 289.812,347.955 227.749 L 350.724 212.500 359.058 212.500 C 372.554 212.500,378.488 205.990,374.754 195.280 C 372.614 189.140,369.267 187.500,358.877 187.500 L 350.360 187.500 349.276 178.822 C 341.540 116.905,291.884 64.634,229.297 52.525 L 212.500 49.275 212.500 40.262 C 212.500 31.513,209.221 25.000,204.815 25.000 C 204.026 25.000,202.444 24.674,201.300 24.276 C 200.155 23.877,197.039 24.502,194.374 25.664 M187.500 84.478 C 187.500 97.545,194.146 103.441,204.720 99.754 C 210.800 97.635,212.500 94.266,212.500 84.340 L 212.500 76.288 219.141 77.345 C 269.013 85.283,309.643 123.589,321.064 173.438 C 324.376 187.893,324.531 187.500,315.522 187.500 C 302.455 187.500,296.559 194.146,300.246 204.720 C 302.358 210.781,305.734 212.500,315.522 212.500 C 324.535 212.500,324.384 212.114,321.043 226.563 C 310.218 273.384,272.842 310.919,227.035 320.970 C 211.903 324.290,212.500 324.514,212.500 315.522 C 212.500 305.734,210.781 302.358,204.720 300.246 C 194.146 296.559,187.500 302.455,187.500 315.522 C 187.500 324.724,188.214 324.523,170.551 320.289 C 125.699 309.537,89.168 272.297,79.071 227.035 C 75.698 211.914,75.480 212.500,84.478 212.500 C 97.545 212.500,103.441 205.854,99.754 195.280 C 97.642 189.219,94.266 187.500,84.478 187.500 C 75.276 187.500,75.477 188.214,79.711 170.551 C 89.773 128.578,122.493 94.050,164.205 81.387 C 186.030 74.761,187.500 74.956,187.500 84.478 " stroke="none" fill="#000000" fill-rule="evenodd"></path></g></svg>