<svg id="svg" xmlns="http://www.w3.org/2000/svg" xmlns:xlink="http://www.w3.org/1999/xlink" width="400" height="400" viewBox="0, 0, 400,400"><g id="svgg"><path id="path0" d="M194.075 0.100 C 70.853 4.706,-18.346 114.783,3.136 235.732 C 18.482 322.131,89.872 388.967,177.317 398.803 C 187.760 399.978,204.090 400.373,213.204 399.672 C 252.431 396.653,286.827 384.238,317.309 362.093 C 413.868 291.943,428.153 154.096,348.043 65.517 C 309.179 22.545,251.317 -2.039,194.075 0.100 M208.379 26.409 C 308.747 31.523,383.919 119.819,372.738 219.467 C 360.429 329.183,249.554 399.988,144.901 364.967 C 45.044 331.550,-2.489 217.527,44.095 123.149 C 72.289 66.027,127.939 29.762,192.636 26.350 C 195.085 26.220,205.444 26.260,208.379 26.409 M119.340 94.645 C 108.410 95.608,101.613 102.064,100.567 112.471 C 100.315 114.979,100.302 289.412,100.554 291.498 C 101.528 299.571,107.649 304.416,116.885 304.425 C 125.642 304.433,132.414 299.546,133.828 292.198 C 134.031 291.142,134.067 281.137,134.067 225.278 C 134.067 175.379,134.114 159.615,134.264 159.665 C 134.372 159.701,144.387 179.989,156.518 204.749 C 185.689 264.286,184.668 262.226,185.896 264.069 C 189.312 269.198,193.614 271.505,199.831 271.542 C 206.092 271.579,210.174 269.511,213.779 264.473 C 215.041 262.710,215.031 262.730,244.484 202.636 C 256.048 179.042,265.605 159.706,265.722 159.668 C 265.891 159.613,265.934 172.858,265.936 225.504 C 265.939 296.934,265.880 292.338,266.835 294.704 C 271.707 306.765,291.653 308.077,297.807 296.741 C 298.136 296.136,298.621 294.994,298.885 294.202 L 299.365 292.763 299.365 202.116 C 299.365 116.057,299.350 111.398,299.066 110.082 C 296.863 99.879,289.462 94.568,277.444 94.568 C 267.085 94.568,261.631 97.907,256.198 107.575 C 255.571 108.692,242.769 135.201,227.750 166.483 C 212.731 197.766,200.347 223.360,200.229 223.360 C 200.112 223.360,187.670 197.880,172.581 166.737 C 140.929 101.410,142.798 105.107,139.512 101.325 C 134.898 96.014,128.359 93.849,119.340 94.645 " stroke="none" fill="#000000" fill-rule="evenodd"></path></g></svg>