<svg id="svg" xmlns="http://www.w3.org/2000/svg" xmlns:xlink="http://www.w3.org/1999/xlink" width="400" height="400" viewBox="0, 0, 400,400"><g id="svgg"><path id="path0" d="M11.084 0.167 C -2.744 2.200,-3.956 21.597,9.484 25.761 L 10.749 26.153 199.069 26.202 C 334.492 26.238,387.756 26.200,388.697 26.067 C 403.503 23.974,403.567 2.229,388.773 0.183 C 387.243 -0.029,12.522 -0.044,11.084 0.167 M196.099 80.292 C 194.781 80.800,193.783 81.773,193.323 82.999 C 193.202 83.322,193.144 89.333,193.144 101.739 L 193.144 120.004 183.707 120.053 L 174.270 120.102 173.282 120.602 C 170.233 122.145,169.953 123.062,169.953 131.508 L 169.953 138.246 166.102 138.361 C 152.762 138.760,131.723 139.938,129.111 140.433 C 119.258 142.301,111.177 150.573,109.120 160.897 C 108.212 165.450,106.043 192.136,105.602 204.171 L 105.399 209.697 99.208 210.922 C 92.158 212.317,91.475 212.544,90.232 213.905 C 88.874 215.390,88.392 217.802,89.083 219.648 C 89.297 220.217,135.307 292.096,135.767 292.578 C 135.853 292.667,136.991 292.437,138.532 292.018 C 153.194 288.032,168.508 288.180,182.988 292.447 C 187.586 293.802,190.540 294.991,196.763 297.991 C 200.410 299.750,199.402 299.809,204.050 297.563 C 222.631 288.586,242.492 286.701,261.658 292.095 C 262.798 292.416,263.826 292.676,263.943 292.673 C 264.231 292.666,310.459 220.632,310.836 219.604 C 311.826 216.907,310.293 213.423,307.704 212.483 C 307.214 212.305,304.026 211.597,300.619 210.909 L 294.424 209.659 294.313 204.914 C 294.075 194.675,291.770 165.852,290.802 161.002 C 288.761 150.774,281.026 142.584,271.518 140.584 C 268.616 139.973,253.098 139.034,236.107 138.441 L 230.064 138.231 230.013 131.367 L 229.962 124.503 229.510 123.538 C 228.933 122.308,227.755 121.130,226.525 120.554 L 225.561 120.102 216.208 120.054 L 206.856 120.006 206.856 102.014 C 206.856 82.037,206.908 82.984,205.726 81.603 C 204.560 80.241,203.915 80.069,200.000 80.082 C 197.841 80.089,196.428 80.165,196.099 80.292 M224.884 156.232 C 242.832 156.809,263.984 157.838,267.004 158.280 C 270.640 158.813,272.734 161.738,273.296 167.070 C 274.146 175.138,275.342 189.709,275.851 198.205 C 276.163 203.421,276.124 203.785,275.161 204.630 C 273.991 205.658,276.732 206.120,237.562 198.287 C 204.658 191.707,201.553 191.114,200.000 191.113 C 198.446 191.113,195.359 191.703,162.444 198.285 C 124.366 205.900,125.959 205.621,124.939 204.860 C 124.092 204.229,123.873 203.608,123.894 201.901 C 123.961 196.518,126.388 167.049,126.979 164.452 C 127.603 161.711,129.542 159.290,131.737 158.512 C 133.474 157.897,160.205 156.583,181.380 156.073 C 188.819 155.894,217.658 155.999,224.884 156.232 M76.344 305.035 C 68.293 305.507,61.662 307.084,60.062 308.906 C 58.255 310.964,58.200 312.678,59.808 316.860 C 62.308 323.363,63.906 324.405,69.403 323.115 C 73.246 322.212,74.850 322.051,79.983 322.051 C 87.207 322.051,90.243 322.622,98.807 325.589 C 112.762 330.425,127.670 330.260,142.608 325.104 C 156.685 320.245,168.574 320.848,181.549 327.077 C 197.007 334.498,202.696 334.583,217.216 327.613 C 223.310 324.687,225.746 323.809,230.298 322.896 C 239.235 321.103,247.207 321.736,256.961 325.013 C 273.253 330.487,286.919 330.508,302.621 325.084 C 312.839 321.554,321.423 321.005,331.257 323.253 C 336.043 324.347,337.750 323.122,340.053 316.937 C 342.926 309.220,340.734 307.080,328.311 305.471 C 318.384 304.186,307.906 305.259,298.519 308.523 C 284.755 313.308,275.478 313.396,262.364 308.865 C 244.185 302.584,227.749 303.657,209.775 312.300 C 200.343 316.836,199.518 316.821,189.336 311.934 C 178.051 306.517,168.103 304.411,156.743 305.032 C 149.120 305.449,144.614 306.398,135.892 309.425 C 124.880 313.246,114.595 313.072,102.380 308.857 C 93.497 305.792,84.913 304.532,76.344 305.035 M10.326 374.193 C -2.644 376.961,-3.674 395.031,8.887 399.440 L 10.241 399.915 199.492 399.959 L 388.743 400.002 390.097 399.660 C 402.941 396.423,403.298 378.675,390.605 374.414 L 389.420 374.016 200.423 373.987 C 39.816 373.962,11.261 373.993,10.326 374.193 " stroke="none" fill="#000000" fill-rule="evenodd"></path></g></svg>