<svg xmlns="http://www.w3.org/2000/svg" xmlns:xlink="http://www.w3.org/1999/xlink" id="svg" width="400" height="400" viewBox="0 0 400 400"><g id="svgg"><path id="path0" fill="#000" fill-rule="evenodd" stroke="none" d="M190.525 0.337 C 94.380 5.111,15.793 76.311,1.895 171.235 C 0.393 181.496,0.186 184.938,0.177 199.831 C 0.152 245.203,13.365 285.172,40.119 320.653 C 88.353 384.619,170.108 413.506,248.341 394.225 C 346.353 370.069,410.924 275.643,398.281 174.958 C 385.311 71.667,294.313 -4.817,190.525 0.337 M216.074 27.234 C 346.236 39.897,416.718 186.500,345.013 295.425 C 276.377 399.688,123.244 399.692,54.730 295.431 C -14.865 189.528,49.655 46.192,174.979 28.286 C 180.086 27.556,183.010 27.266,192.047 26.593 C 195.645 26.325,210.919 26.732,216.074 27.234 M189.171 98.816 C 189.171 99.002,188.954 99.154,188.688 99.154 C 188.422 99.154,187.737 99.722,187.165 100.416 L 186.125 101.677 186.125 116.998 L 186.125 132.318 178.500 132.318 C 170.365 132.318,168.657 132.597,168.295 133.982 C 168.200 134.344,167.909 134.722,167.649 134.822 C 167.266 134.969,167.174 136.202,167.174 141.222 L 167.174 147.440 161.536 147.663 C 158.436 147.785,154.385 147.885,152.534 147.885 C 146.967 147.885,134.734 148.897,131.754 149.603 C 127.928 150.511,124.978 152.212,122.116 155.161 C 120.444 156.884,120.229 157.167,119.986 157.953 C 119.857 158.371,119.609 158.714,119.436 158.714 C 119.262 158.714,119.120 158.947,119.120 159.232 C 119.120 159.517,118.892 159.838,118.613 159.945 C 118.333 160.052,118.104 160.314,118.103 160.527 C 118.102 160.740,117.895 161.309,117.643 161.791 C 117.391 162.274,117.080 163.226,116.953 163.906 C 116.825 164.587,116.588 165.144,116.426 165.144 C 116.265 165.144,116.035 166.324,115.917 167.766 C 115.799 169.209,115.341 174.120,114.899 178.680 C 114.457 183.240,113.933 189.941,113.734 193.570 C 113.536 197.200,113.275 201.871,113.154 203.952 L 112.936 207.734 110.359 207.972 C 108.943 208.103,107.685 208.365,107.564 208.553 C 107.444 208.742,106.189 208.970,104.777 209.061 C 103.194 209.162,102.062 209.403,101.825 209.689 C 101.613 209.944,101.230 210.152,100.974 210.152 C 100.717 210.152,100.508 210.357,100.508 210.607 C 100.508 210.858,100.203 211.338,99.831 211.675 C 98.853 212.560,98.853 216.600,99.831 217.843 C 100.203 218.317,100.508 218.912,100.508 219.166 C 100.508 219.420,100.649 219.628,100.822 219.628 C 101.098 219.628,102.082 221.071,104.399 224.874 C 105.146 226.100,105.871 227.204,107.326 229.328 C 107.857 230.103,108.291 230.817,108.291 230.915 C 108.291 231.013,109.091 232.289,110.068 233.749 C 112.063 236.732,112.306 237.111,113.595 239.255 C 114.098 240.093,114.862 241.209,115.292 241.735 C 115.722 242.261,116.074 242.913,116.074 243.184 C 116.074 243.455,116.303 243.764,116.582 243.871 C 116.861 243.978,117.090 244.278,117.090 244.537 C 117.090 244.796,117.242 245.008,117.428 245.008 C 117.614 245.008,117.766 245.237,117.766 245.516 C 117.766 245.795,118.071 246.328,118.443 246.701 C 118.816 247.073,119.120 247.530,119.120 247.716 C 119.120 247.902,119.256 248.054,119.422 248.054 C 119.588 248.054,119.812 248.407,119.920 248.838 C 120.028 249.269,120.426 249.977,120.803 250.412 C 121.180 250.847,121.489 251.409,121.489 251.659 C 121.489 251.910,121.641 252.115,121.827 252.115 C 122.014 252.115,122.166 252.348,122.166 252.633 C 122.166 252.918,122.394 253.239,122.673 253.346 C 122.953 253.453,123.181 253.742,123.181 253.988 C 123.181 254.234,123.371 254.637,123.604 254.883 C 123.837 255.129,124.396 256.006,124.846 256.832 C 125.297 257.659,126.477 259.520,127.469 260.968 C 128.461 262.417,129.272 263.682,129.272 263.780 C 129.272 263.878,129.805 264.700,130.457 265.606 C 131.108 266.513,131.641 267.427,131.641 267.638 C 131.641 267.848,131.768 268.020,131.923 268.020 C 132.077 268.020,132.420 268.439,132.683 268.951 C 132.947 269.463,133.250 269.958,133.355 270.051 C 133.662 270.321,137.056 275.460,137.056 275.655 C 137.056 277.622,139.622 278.244,143.147 277.131 C 153.243 273.945,169.489 274.712,181.387 278.935 C 185.402 280.360,186.125 280.670,186.125 280.962 C 186.125 281.103,186.271 281.218,186.449 281.218 C 186.627 281.218,188.036 281.826,189.579 282.569 C 193.077 284.253,192.520 284.299,197.404 281.913 C 201.904 279.715,206.494 277.837,207.386 277.830 C 207.698 277.827,208.942 277.513,210.152 277.131 C 218.068 274.633,233.942 274.637,242.469 277.139 C 246.582 278.346,246.705 278.302,249.059 274.777 C 250.181 273.096,251.100 271.592,251.100 271.435 C 251.100 271.278,251.331 270.957,251.614 270.722 C 251.896 270.488,252.371 269.784,252.667 269.158 C 252.964 268.532,253.342 268.020,253.507 268.020 C 253.672 268.020,253.807 267.792,253.807 267.513 C 253.807 267.234,253.959 267.005,254.146 267.005 C 254.332 267.005,254.484 266.829,254.484 266.614 C 254.484 266.399,254.902 265.676,255.413 265.007 C 255.924 264.338,256.571 263.395,256.851 262.913 C 257.972 260.980,258.757 259.778,259.645 258.635 C 260.157 257.976,260.575 257.318,260.575 257.173 C 260.575 257.029,261.413 255.666,262.437 254.146 C 263.460 252.625,264.298 251.294,264.298 251.188 C 264.298 251.081,264.679 250.495,265.144 249.885 C 265.609 249.275,265.990 248.674,265.990 248.548 C 265.990 248.423,266.447 247.744,267.005 247.039 C 267.563 246.334,268.025 245.627,268.030 245.467 C 268.035 245.308,268.492 244.579,269.045 243.848 C 269.598 243.117,270.051 242.378,270.051 242.205 C 270.051 242.032,270.508 241.314,271.066 240.609 C 271.624 239.904,272.081 239.227,272.081 239.104 C 272.081 238.915,273.539 236.604,276.341 232.351 C 276.697 231.811,277.293 230.880,277.665 230.284 C 278.614 228.762,279.563 227.291,281.448 224.418 C 282.346 223.051,283.245 221.644,283.448 221.290 C 283.651 220.937,284.045 220.380,284.324 220.053 C 288.570 215.082,286.715 209.449,280.706 209.063 C 279.275 208.971,278.005 208.738,277.884 208.545 C 277.764 208.352,276.507 208.085,275.092 207.953 L 272.520 207.713 272.301 203.634 C 272.180 201.391,272.081 197.097,272.081 194.092 C 272.081 190.956,271.939 188.487,271.748 188.296 C 271.564 188.113,271.315 185.912,271.194 183.406 C 271.073 180.900,270.841 178.680,270.678 178.472 C 270.515 178.264,270.264 175.476,270.119 172.276 C 269.964 168.854,269.708 166.361,269.498 166.223 C 269.301 166.095,269.044 165.382,268.927 164.639 C 268.809 163.896,268.557 163.236,268.367 163.172 C 268.176 163.109,268.020 162.608,268.020 162.059 C 268.020 161.511,267.806 160.979,267.543 160.879 C 267.281 160.778,266.973 160.326,266.860 159.874 C 266.747 159.422,266.504 159.052,266.322 159.052 C 266.139 159.052,265.990 158.753,265.990 158.387 C 265.990 157.324,261.376 152.927,258.758 151.494 C 254.096 148.943,242.064 147.703,220.558 147.560 L 218.613 147.547 218.613 141.674 C 218.613 132.456,218.443 132.319,207.022 132.319 L 199.323 132.318 199.323 117.281 C 199.323 100.317,199.342 100.448,196.677 98.900 C 195.787 98.383,189.171 98.309,189.171 98.816 M209.814 163.457 C 215.863 163.643,223.483 163.947,226.747 164.134 C 230.012 164.320,236.257 164.613,240.624 164.785 C 244.992 164.957,249.005 165.265,249.541 165.469 C 250.662 165.895,252.101 167.162,252.109 167.730 C 252.112 167.943,252.324 168.197,252.580 168.296 C 252.888 168.414,253.129 169.370,253.291 171.124 C 253.426 172.581,253.653 173.926,253.795 174.112 C 253.937 174.298,254.150 176.345,254.269 178.661 C 254.388 180.976,254.615 182.956,254.773 183.060 C 254.931 183.164,255.150 186.658,255.258 190.824 C 255.379 195.462,255.595 198.539,255.816 198.760 C 256.404 199.348,256.252 202.272,255.593 203.042 C 254.818 203.947,253.907 203.907,248.617 202.739 C 239.813 200.795,237.029 200.221,235.364 200.005 C 234.433 199.885,231.768 199.371,229.442 198.863 C 227.115 198.355,223.080 197.502,220.474 196.967 C 217.868 196.431,214.213 195.666,212.352 195.266 C 210.491 194.865,207.978 194.379,206.768 194.184 C 205.558 193.990,203.080 193.468,201.260 193.025 C 195.259 191.563,190.950 191.605,183.418 193.198 C 179.239 194.082,171.246 195.719,168.359 196.281 C 167.242 196.499,165.795 196.802,165.144 196.954 C 164.492 197.107,163.046 197.409,161.929 197.625 C 160.812 197.842,157.843 198.452,155.330 198.981 C 152.817 199.509,149.924 200.089,148.900 200.269 C 145.766 200.820,141.498 201.698,136.887 202.740 C 129.035 204.515,129.350 204.920,130.106 194.005 C 132.165 164.305,131.678 165.304,144.332 164.800 C 148.426 164.637,154.898 164.333,158.714 164.123 C 175.950 163.177,193.342 162.950,209.814 163.457 M84.264 287.814 C 76.172 288.755,73.937 290.188,73.951 294.425 C 73.958 296.422,74.094 297.155,74.543 297.604 C 74.864 297.925,75.132 298.519,75.138 298.924 C 75.199 302.844,78.851 304.748,84.018 303.554 C 86.852 302.899,87.964 302.825,93.281 302.939 C 99.701 303.077,100.466 303.229,107.614 305.801 C 118.041 309.552,135.013 309.520,143.993 305.733 C 144.738 305.419,147.174 304.640,149.408 304.002 L 153.469 302.841 160.068 302.970 C 166.188 303.090,166.849 303.165,169.179 304.003 C 170.561 304.500,171.898 304.907,172.150 304.907 C 172.402 304.907,174.317 305.722,176.406 306.719 C 182.944 309.838,185.085 310.668,187.159 310.884 C 188.266 311.000,189.171 311.225,189.171 311.385 C 189.171 311.764,196.183 311.764,196.417 311.384 C 196.516 311.225,197.402 310.999,198.385 310.884 C 200.367 310.651,204.254 309.155,209.126 306.750 C 210.889 305.880,213.021 304.979,213.864 304.746 C 214.708 304.514,216.594 303.985,218.057 303.570 C 220.496 302.878,221.253 302.828,227.194 302.964 C 234.096 303.122,235.015 303.300,241.624 305.770 C 251.875 309.599,268.710 309.533,278.445 305.625 C 285.492 302.797,295.068 301.953,301.705 303.574 C 306.811 304.821,309.144 303.647,310.486 299.154 C 310.848 297.944,311.339 296.753,311.578 296.507 C 312.281 295.785,312.130 292.632,311.347 291.676 C 309.989 290.019,309.505 289.687,307.450 289.003 C 301.781 287.117,284.901 286.885,280.471 288.633 C 280.044 288.801,278.477 289.276,276.988 289.689 C 275.499 290.101,273.639 290.726,272.854 291.077 C 266.070 294.112,252.965 293.933,245.888 290.709 C 245.052 290.328,244.170 290.013,243.927 290.008 C 243.684 290.003,242.343 289.620,240.948 289.156 C 233.495 286.681,219.079 286.826,210.564 289.462 C 206.785 290.632,205.435 291.177,201.560 293.092 C 200.464 293.634,199.300 294.078,198.973 294.078 C 198.647 294.078,198.293 294.306,198.186 294.585 C 198.078 294.865,197.618 295.093,197.162 295.093 C 196.707 295.093,196.270 295.283,196.193 295.516 C 196.009 296.067,189.599 296.115,189.243 295.568 C 189.110 295.364,188.583 295.095,188.071 294.970 C 187.559 294.844,187.140 294.592,187.140 294.410 C 187.140 294.227,186.857 294.078,186.511 294.078 C 186.165 294.078,184.985 293.633,183.888 293.090 C 179.863 291.094,178.135 290.350,176.481 289.897 C 175.550 289.642,173.646 289.124,172.250 288.744 C 162.854 286.191,146.624 287.361,138.598 291.169 C 135.254 292.756,125.317 293.837,120.954 293.089 C 117.364 292.473,113.560 291.475,111.878 290.709 C 111.042 290.328,110.160 290.015,109.917 290.013 C 109.674 290.010,108.306 289.635,106.876 289.178 C 101.651 287.509,91.925 286.922,84.264 287.814"/></g></svg>