<svg xmlns="http://www.w3.org/2000/svg" xmlns:xlink="http://www.w3.org/1999/xlink" id="svg" width="400" height="400" version="1.1" viewBox="0 0 400 400"><g id="svgg"><path id="path0" fill="#eb3424" fill-rule="evenodd" stroke="none" d="M335.618 79.997 C 335.292 80.245,335.027 80.582,335.029 80.748 C 335.035 81.345,331.205 91.890,330.801 92.386 C 330.574 92.665,330.037 93.984,329.609 95.317 C 328.964 97.323,328.737 97.690,328.290 97.447 C 327.993 97.286,325.008 95.842,321.658 94.239 C 318.308 92.636,314.829 90.954,313.928 90.502 C 311.665 89.365,310.477 89.412,309.829 90.665 C 309.234 91.815,309.294 91.976,313.601 100.846 C 317.334 108.534,317.414 108.716,317.224 109.024 C 317.128 109.179,316.763 109.306,316.413 109.306 C 316.063 109.306,315.689 109.447,315.583 109.619 C 315.477 109.790,314.902 110.038,314.305 110.169 C 313.708 110.300,312.987 110.531,312.701 110.682 C 312.416 110.833,311.041 111.340,309.645 111.808 C 299.576 115.186,299.154 115.397,299.154 117.060 C 299.154 118.915,298.172 118.424,310.660 122.821 C 313.173 123.706,315.725 124.644,316.331 124.905 L 317.434 125.381 316.787 126.734 C 316.430 127.479,315.147 130.144,313.936 132.657 C 309.389 142.085,309.253 142.435,309.729 143.433 C 310.206 144.433,311.634 144.793,312.830 144.215 C 326.361 137.667,328.613 136.622,328.795 136.804 C 328.881 136.890,329.258 137.858,329.632 138.954 C 330.006 140.051,330.446 141.252,330.610 141.624 C 330.774 141.997,331.088 142.834,331.306 143.486 C 333.019 148.585,335.077 154.139,335.398 154.525 C 336.416 155.752,338.734 154.807,339.237 152.961 C 339.364 152.496,339.605 151.810,339.774 151.438 C 339.943 151.066,340.557 149.391,341.138 147.716 C 345.029 136.504,344.944 136.706,345.674 136.926 C 346.329 137.124,354.279 140.888,357.868 142.700 C 358.799 143.169,359.865 143.612,360.237 143.684 C 360.609 143.755,361.410 143.910,362.017 144.027 C 364.875 144.579,364.756 143.392,361.222 136.109 C 359.623 132.814,358.281 129.966,358.240 129.780 C 358.199 129.594,357.669 128.474,357.064 127.292 C 356.458 126.110,356.010 125.107,356.069 125.062 C 356.379 124.828,372.711 119.120,373.073 119.120 C 373.712 119.120,374.619 117.979,374.619 117.175 C 374.619 116.209,374.278 115.398,373.872 115.398 C 373.577 115.398,356.328 109.323,356.080 109.132 C 356.028 109.092,357.461 106.030,359.265 102.329 C 363.083 94.498,362.636 95.450,362.945 94.501 C 363.081 94.082,363.327 93.739,363.491 93.739 C 363.656 93.739,363.765 93.625,363.735 93.486 C 363.704 93.346,363.793 92.827,363.933 92.333 C 364.797 89.268,363.002 89.398,355.736 92.924 C 352.442 94.522,349.594 95.864,349.408 95.906 C 349.222 95.947,348.135 96.460,346.993 97.045 L 344.916 98.110 341.955 89.749 C 338.052 78.729,337.799 78.341,335.618 79.997"/><path id="path1" fill="#24343c" fill-rule="evenodd" stroke="none" d="M190.525 0.337 C 94.380 5.111,15.793 76.311,1.895 171.235 C 0.393 181.496,0.186 184.938,0.177 199.831 C 0.152 245.203,13.365 285.172,40.119 320.653 C 88.353 384.619,170.108 413.506,248.341 394.225 C 339.966 371.643,403.949 286.224,399.668 192.200 C 399.165 181.154,398.744 177.306,396.425 162.606 C 396.199 161.167,394.620 154.008,393.926 151.269 C 370.551 59.047,285.102 -4.360,190.525 0.337 M216.074 27.234 C 260.399 31.546,302.727 53.230,330.558 85.880 C 331.727 87.252,332.675 88.114,332.699 87.826 C 332.753 87.163,332.802 86.997,333.277 85.849 C 333.494 85.325,333.672 84.687,333.672 84.431 C 333.672 84.175,333.803 83.884,333.964 83.785 C 334.124 83.686,334.456 82.888,334.702 82.012 C 335.382 79.581,338.281 78.236,338.599 80.203 C 338.644 80.482,338.873 81.168,339.109 81.726 C 339.344 82.284,339.550 82.843,339.566 82.967 C 339.581 83.091,339.708 83.307,339.848 83.446 C 339.987 83.586,340.102 83.893,340.102 84.129 C 340.102 84.365,340.265 84.987,340.464 85.511 C 340.663 86.035,340.817 86.501,340.806 86.547 C 340.789 86.619,341.107 87.502,342.542 91.371 C 342.715 91.836,342.808 92.231,342.748 92.249 C 342.688 92.267,342.849 92.534,343.104 92.841 C 343.359 93.149,343.468 93.401,343.346 93.401 C 343.224 93.401,343.312 93.744,343.542 94.162 C 343.772 94.581,343.991 95.105,344.029 95.327 C 344.066 95.548,344.277 96.277,344.498 96.946 L 344.900 98.163 347.069 96.950 C 348.262 96.283,349.239 95.829,349.239 95.942 C 349.239 96.055,351.180 95.148,353.553 93.927 C 355.926 92.707,358.058 91.708,358.291 91.708 C 358.524 91.709,358.714 91.531,358.714 91.314 C 358.714 91.097,358.809 91.014,358.925 91.130 C 359.041 91.247,359.765 91.016,360.533 90.619 C 362.990 89.346,364.554 90.117,363.941 92.299 C 363.797 92.812,363.704 93.346,363.735 93.486 C 363.765 93.625,363.638 93.739,363.452 93.739 C 363.266 93.739,363.113 94.044,363.113 94.416 C 363.113 94.788,362.961 95.093,362.775 95.093 C 362.589 95.093,362.470 95.207,362.511 95.347 C 362.579 95.579,360.718 99.505,357.284 106.377 C 356.554 107.836,356.006 109.070,356.066 109.118 C 356.206 109.230,362.074 111.331,362.185 111.309 C 362.275 111.292,363.325 111.628,364.129 111.932 C 364.408 112.038,364.712 112.150,364.805 112.182 C 364.898 112.214,365.355 112.395,365.821 112.586 C 367.103 113.111,370.528 114.368,370.814 114.419 C 370.952 114.443,371.447 114.611,371.912 114.791 C 372.377 114.972,373.051 115.178,373.410 115.251 C 375.294 115.630,374.978 119.120,373.059 119.120 C 372.825 119.120,372.204 119.298,371.680 119.515 C 371.156 119.732,370.613 119.941,370.474 119.980 C 370.334 120.019,370.182 120.081,370.135 120.119 C 370.089 120.156,369.822 120.237,369.543 120.297 C 369.264 120.357,368.579 120.585,368.020 120.802 C 367.462 121.020,366.968 121.189,366.922 121.179 C 366.833 121.157,363.495 122.378,362.098 122.943 C 361.633 123.131,360.974 123.338,360.634 123.404 C 360.295 123.469,359.685 123.707,359.281 123.932 C 358.876 124.157,358.469 124.355,358.376 124.373 C 356.978 124.629,356.007 124.993,356.007 125.258 C 356.007 125.441,356.137 125.510,356.296 125.411 C 356.682 125.172,357.430 126.856,357.143 127.320 C 357.019 127.521,357.072 127.590,357.261 127.473 C 357.449 127.356,357.842 127.868,358.133 128.609 C 358.425 129.351,358.524 129.872,358.354 129.767 C 358.184 129.662,358.135 129.811,358.246 130.099 C 358.356 130.387,358.581 130.539,358.746 130.437 C 358.910 130.336,358.944 130.514,358.822 130.833 C 358.672 131.225,358.727 131.335,358.991 131.172 C 359.247 131.013,359.313 131.111,359.182 131.455 C 359.070 131.744,359.157 131.980,359.375 131.980 C 359.592 131.980,359.675 132.132,359.560 132.318 C 359.445 132.504,359.521 132.657,359.729 132.657 C 359.937 132.657,360.014 132.809,359.898 132.995 C 359.783 133.181,359.876 133.333,360.104 133.333 C 360.332 133.333,360.423 133.429,360.307 133.546 C 360.190 133.662,360.658 134.843,361.346 136.168 C 362.035 137.494,362.562 138.693,362.517 138.832 C 362.473 138.972,362.614 139.086,362.831 139.086 C 363.049 139.086,363.131 139.182,363.014 139.298 C 362.897 139.415,363.051 139.986,363.356 140.567 C 363.661 141.149,364.016 142.234,364.144 142.978 C 364.273 143.723,365.144 146.844,366.080 149.915 C 396.430 249.473,331.820 353.797,228.934 371.358 C 129.566 388.320,36.338 316.731,26.935 216.244 C 18.341 124.403,83.784 41.316,174.979 28.286 C 180.086 27.556,183.010 27.266,192.047 26.593 C 195.645 26.325,210.919 26.732,216.074 27.234 M139.763 91.544 C 138.926 91.980,136.946 92.939,135.364 93.673 C 132.410 95.044,127.120 97.543,122.335 99.826 C 120.846 100.537,117.876 101.942,115.736 102.950 C 113.596 103.957,111.235 105.070,110.491 105.422 L 109.137 106.063 109.217 117.245 C 109.261 123.395,109.452 138.249,109.642 150.254 C 109.831 162.259,109.986 186.853,109.985 204.907 C 109.984 233.912,109.844 247.497,109.155 285.533 L 108.982 295.093 129.066 295.093 L 149.150 295.093 149.021 285.195 C 148.950 279.750,148.743 264.560,148.561 251.438 C 148.380 238.316,148.137 212.580,148.022 194.247 L 147.813 160.914 148.615 161.760 C 149.057 162.225,150.547 164.052,151.928 165.821 C 153.308 167.589,154.532 169.112,154.648 169.205 C 154.763 169.298,155.307 169.978,155.855 170.716 C 156.404 171.455,157.081 172.304,157.360 172.604 C 158.111 173.410,159.096 174.632,160.219 176.149 C 160.768 176.890,161.301 177.572,161.403 177.665 C 161.506 177.758,162.190 178.596,162.923 179.526 C 163.656 180.457,164.532 181.491,164.869 181.824 C 165.206 182.157,165.482 182.539,165.482 182.673 C 165.482 182.807,165.829 183.296,166.254 183.760 C 166.678 184.223,167.934 185.745,169.044 187.140 C 170.155 188.536,171.143 189.755,171.241 189.848 C 171.339 189.941,172.555 191.464,173.942 193.232 C 175.330 195.000,176.546 196.523,176.644 196.616 C 176.742 196.709,177.271 197.394,177.818 198.139 C 178.366 198.883,178.901 199.569,179.008 199.662 C 179.115 199.755,180.338 201.277,181.726 203.046 C 183.114 204.814,184.329 206.337,184.427 206.430 C 184.524 206.523,185.289 207.513,186.125 208.629 C 186.962 209.746,187.728 210.736,187.827 210.829 C 187.926 210.922,189.135 212.445,190.512 214.213 C 191.889 215.981,193.110 217.504,193.225 217.597 C 193.340 217.690,193.805 218.299,194.259 218.951 C 195.080 220.131,195.793 221.048,196.458 221.781 C 196.650 221.992,197.176 222.699,197.626 223.350 C 198.076 224.002,198.539 224.611,198.654 224.704 C 198.769 224.797,199.652 225.901,200.616 227.157 C 201.580 228.414,203.102 230.393,203.999 231.557 C 204.895 232.720,206.509 234.814,207.585 236.210 C 210.001 239.344,215.041 245.967,219.948 252.453 C 221.990 255.152,223.787 257.513,223.942 257.699 C 224.097 257.885,224.903 258.951,225.733 260.068 C 226.563 261.184,227.394 262.272,227.580 262.484 C 227.766 262.696,228.223 263.292,228.596 263.809 C 228.968 264.325,229.435 264.913,229.633 265.115 C 229.832 265.317,230.289 265.939,230.648 266.497 C 231.008 267.056,232.751 269.416,234.521 271.743 C 236.291 274.069,238.566 277.114,239.577 278.509 C 240.587 279.904,241.543 281.198,241.700 281.386 C 242.227 282.012,247.528 289.150,249.118 291.373 C 249.982 292.582,250.971 293.907,251.317 294.319 C 251.663 294.730,252.375 295.682,252.898 296.434 C 254.308 298.456,252.077 299.340,277.093 286.852 L 284.642 283.083 284.369 273.268 C 284.012 260.491,284.016 128.878,284.373 109.219 L 284.649 94.072 264.744 94.160 L 244.839 94.247 244.729 106.768 C 244.668 113.655,244.781 132.614,244.979 148.900 C 245.177 165.186,245.431 188.181,245.543 200.000 L 245.747 221.489 244.955 220.643 C 244.519 220.178,243.714 219.188,243.165 218.443 C 242.617 217.699,242.084 217.014,241.981 216.920 C 241.878 216.827,239.661 214.086,237.056 210.829 C 234.450 207.572,232.239 204.831,232.142 204.738 C 232.044 204.645,230.829 203.122,229.442 201.354 C 228.054 199.585,226.831 198.063,226.724 197.970 C 226.617 197.876,226.081 197.196,225.532 196.458 C 224.983 195.720,224.306 194.865,224.027 194.560 C 223.478 193.958,222.159 192.313,220.930 190.694 C 220.506 190.135,220.074 189.602,219.970 189.509 C 219.867 189.416,218.647 187.893,217.259 186.125 C 215.871 184.357,214.653 182.834,214.552 182.741 C 214.450 182.648,213.232 181.125,211.844 179.357 C 210.457 177.589,209.241 176.066,209.143 175.973 C 209.044 175.880,208.516 175.195,207.969 174.450 C 207.421 173.706,206.886 173.020,206.779 172.927 C 206.672 172.834,205.449 171.311,204.061 169.543 C 202.673 167.775,201.451 166.252,201.345 166.159 C 201.239 166.066,200.105 164.619,198.826 162.944 C 197.546 161.269,196.327 159.746,196.117 159.560 C 195.906 159.374,195.261 158.536,194.684 157.699 C 194.107 156.861,193.350 155.871,193.002 155.499 C 192.655 155.127,190.711 152.690,188.683 150.085 C 186.655 147.479,184.900 145.271,184.783 145.178 C 184.666 145.085,183.519 143.638,182.234 141.963 C 180.949 140.288,179.510 138.446,179.035 137.869 C 177.908 136.499,177.212 135.623,173.555 130.964 C 171.874 128.824,169.942 126.401,169.260 125.581 C 168.578 124.760,167.649 123.542,167.195 122.874 C 166.742 122.205,166.197 121.506,165.985 121.320 C 165.773 121.134,165.090 120.296,164.467 119.459 C 163.844 118.621,163.165 117.783,162.958 117.597 C 162.750 117.411,162.213 116.726,161.764 116.074 C 161.314 115.423,160.860 114.814,160.754 114.721 C 160.590 114.577,157.947 111.235,155.668 108.291 C 155.308 107.826,154.365 106.607,153.573 105.584 C 152.780 104.560,152.045 103.646,151.938 103.553 C 151.831 103.460,150.697 102.014,149.418 100.338 C 148.139 98.663,146.928 97.140,146.727 96.954 C 146.526 96.768,145.943 96.007,145.430 95.262 C 144.918 94.518,143.966 93.301,143.315 92.559 C 142.664 91.816,142.132 91.093,142.132 90.951 C 142.132 90.519,141.360 90.712,139.763 91.544"/></g></svg>