<svg id="svg" xmlns="http://www.w3.org/2000/svg" xmlns:xlink="http://www.w3.org/1999/xlink" width="400" height="400" viewBox="0, 0, 400,400" version="1.1"><g id="svgg"><path id="path0" d="M0.965 0.227 C -0.365 0.580,-0.493 22.673,0.835 22.673 C 1.342 22.673,2.707 24.108,2.707 24.641 C 2.707 24.899,3.343 25.044,4.484 25.048 C 6.310 25.054,7.341 25.694,7.882 27.157 C 8.102 27.754,388.102 28.139,389.651 27.544 C 389.945 27.431,390.186 27.153,390.186 26.926 C 390.186 25.964,391.734 25.042,393.349 25.042 C 394.557 25.042,395.000 24.898,395.171 24.450 C 395.468 23.672,396.300 22.834,397.039 22.569 C 397.451 22.421,397.631 21.993,397.631 21.161 C 397.631 20.021,397.686 19.966,398.816 19.966 L 400.000 19.966 400.000 11.337 L 400.000 2.707 398.816 2.707 C 397.696 2.707,397.631 2.645,397.631 1.565 C 397.631 0.557,397.507 0.398,396.574 0.212 C 395.398 -0.024,1.851 -0.009,0.965 0.227 M325.212 61.406 C 325.212 62.474,325.109 62.594,324.027 62.797 L 322.843 63.019 322.843 66.502 L 322.843 69.984 321.574 70.283 L 320.305 70.582 320.135 74.293 C 320.042 76.334,319.890 77.623,319.797 77.157 C 319.573 76.038,317.716 75.128,315.651 75.127 C 314.020 75.127,313.067 74.565,312.591 73.324 C 312.416 72.869,311.906 72.758,309.994 72.758 L 307.614 72.758 307.614 71.589 C 307.614 70.512,307.517 70.402,306.382 70.189 C 304.999 69.929,298.716 70.202,298.160 70.545 C 297.597 70.893,297.681 77.496,298.249 77.496 C 299.265 77.496,300.169 79.019,300.170 80.732 C 300.172 82.518,301.146 84.602,301.979 84.602 C 302.293 84.602,302.518 85.222,302.668 86.499 C 302.948 88.885,303.296 89.532,304.475 89.868 L 305.415 90.136 304.230 90.330 C 303.190 90.501,303.033 90.658,302.940 91.624 L 302.834 92.724 300.063 92.729 C 296.987 92.735,295.656 93.204,295.493 94.340 C 295.394 95.028,295.199 95.093,293.228 95.093 C 290.861 95.093,288.864 95.959,288.486 97.148 C 288.150 98.206,287.697 97.896,287.584 96.531 L 287.479 95.262 265.059 95.175 L 242.640 95.088 242.640 157.696 L 242.640 220.305 241.498 220.305 C 240.429 220.305,240.344 220.220,240.141 218.951 C 239.938 217.683,239.852 217.597,238.788 217.597 C 237.691 217.597,237.646 217.544,237.478 216.061 C 237.304 214.511,236.474 213.198,235.669 213.198 C 235.399 213.198,235.194 212.653,235.129 211.760 C 235.028 210.364,234.988 210.318,233.756 210.216 C 232.556 210.117,232.487 210.048,232.487 208.947 C 232.487 207.847,232.424 207.783,231.323 207.783 C 230.223 207.783,230.154 207.715,230.054 206.514 C 229.959 205.360,229.851 205.236,228.864 205.140 L 227.780 205.035 227.680 202.772 L 227.580 200.508 226.311 200.403 C 225.077 200.300,225.042 200.261,225.042 198.964 C 225.042 197.666,225.011 197.631,223.858 197.631 C 222.730 197.631,222.673 197.575,222.673 196.447 C 222.673 195.290,222.641 195.262,221.320 195.262 L 219.966 195.262 219.966 193.909 C 219.966 192.587,219.938 192.555,218.782 192.555 L 217.597 192.555 217.597 190.186 L 217.597 187.817 216.433 187.817 C 215.332 187.817,215.264 187.748,215.164 186.548 C 215.065 185.348,214.990 185.273,213.790 185.174 C 212.590 185.075,212.521 185.006,212.521 183.905 C 212.521 182.804,212.458 182.741,211.357 182.741 C 210.256 182.741,210.187 182.672,210.088 181.472 C 209.992 180.314,209.887 180.194,208.883 180.097 C 207.853 179.998,207.783 179.909,207.783 178.701 C 207.783 175.965,207.476 175.296,206.218 175.296 C 205.111 175.296,205.076 175.254,205.076 173.942 C 205.076 172.626,205.044 172.589,203.913 172.589 C 202.848 172.589,202.741 172.496,202.644 171.489 C 202.547 170.485,202.428 170.380,201.269 170.284 C 200.065 170.184,200.000 170.119,200.000 168.998 C 200.000 167.495,199.212 165.959,198.322 165.726 C 197.768 165.582,197.631 165.270,197.631 164.160 C 197.631 162.803,197.607 162.775,196.447 162.775 C 195.420 162.775,195.262 162.666,195.262 161.957 C 195.262 160.487,194.916 160.068,193.703 160.068 C 192.617 160.068,192.555 160.004,192.555 158.883 C 192.555 157.758,192.496 157.699,191.385 157.699 L 190.216 157.699 190.116 155.245 L 190.017 152.792 188.748 152.687 C 187.548 152.588,187.479 152.519,187.479 151.418 C 187.479 150.317,187.416 150.254,186.315 150.254 C 185.214 150.254,185.145 150.185,185.046 148.985 C 184.950 147.832,184.842 147.706,183.861 147.611 C 182.921 147.520,182.768 147.367,182.676 146.427 C 182.581 145.445,182.456 145.337,181.303 145.242 L 180.034 145.137 180.034 142.619 L 180.034 140.102 178.849 140.102 C 177.725 140.102,177.665 140.042,177.665 138.938 C 177.665 137.837,177.596 137.768,176.396 137.668 C 175.230 137.572,175.113 137.468,174.958 136.379 C 174.808 135.332,174.661 135.182,173.689 135.089 C 172.682 134.991,172.589 134.884,172.589 133.820 C 172.589 133.011,172.434 132.657,172.081 132.657 C 171.041 132.657,170.260 131.395,170.154 129.545 L 170.051 127.750 168.782 127.645 C 167.582 127.545,167.513 127.476,167.513 126.376 C 167.513 125.271,167.452 125.212,166.328 125.212 C 165.200 125.212,165.144 125.155,165.144 124.027 C 165.144 122.915,165.076 122.843,164.039 122.843 C 162.989 122.843,162.915 122.758,162.520 121.097 C 162.089 119.281,161.304 118.105,160.523 118.105 C 160.209 118.105,160.068 117.632,160.068 116.582 C 160.068 115.073,160.057 115.059,158.905 115.059 C 157.840 115.059,157.733 114.966,157.636 113.959 C 157.539 112.955,157.419 112.850,156.261 112.755 C 155.060 112.655,154.992 112.586,154.992 111.485 C 154.992 110.390,154.925 110.321,153.854 110.321 C 152.723 110.321,152.716 110.312,152.523 108.437 C 152.309 106.369,151.860 105.584,150.889 105.584 C 150.413 105.584,150.254 105.337,150.254 104.596 C 150.254 102.950,149.941 102.538,148.695 102.538 C 147.608 102.538,147.547 102.475,147.547 101.354 C 147.547 100.226,147.490 100.169,146.362 100.169 C 145.234 100.169,145.178 100.113,145.178 98.985 C 145.178 97.829,145.145 97.800,143.824 97.800 L 142.470 97.800 142.470 95.262 L 142.470 92.724 137.563 92.724 L 132.657 92.724 132.657 93.909 L 132.657 95.093 128.934 95.093 L 125.212 95.093 125.212 96.447 L 125.212 97.800 122.673 97.800 L 120.135 97.800 120.135 98.970 L 120.135 100.140 117.682 100.239 L 115.228 100.338 115.124 101.423 L 115.019 102.508 112.755 102.608 L 110.491 102.707 110.386 103.976 L 110.281 105.245 107.763 105.245 L 105.245 105.245 105.245 106.409 C 105.245 107.510,105.176 107.579,103.976 107.678 L 102.707 107.783 102.622 203.358 C 102.529 307.590,102.669 300.169,100.794 300.169 C 100.225 300.169,100.169 300.499,100.169 303.892 L 100.169 307.614 123.858 307.614 L 147.547 307.614 147.547 253.976 L 147.547 200.338 146.362 200.338 L 145.178 200.338 145.178 187.648 L 145.178 174.958 146.342 174.958 C 147.442 174.958,147.511 175.027,147.611 176.227 C 147.710 177.427,147.785 177.501,148.985 177.601 C 150.185 177.700,150.254 177.769,150.254 178.870 C 150.254 179.975,150.314 180.034,151.438 180.034 L 152.623 180.034 152.623 182.572 L 152.623 185.110 153.976 185.110 C 155.298 185.110,155.330 185.138,155.330 186.294 C 155.330 187.422,155.386 187.479,156.514 187.479 C 157.671 187.479,157.699 187.511,157.699 188.832 C 157.699 190.154,157.727 190.186,158.883 190.186 C 160.011 190.186,160.068 190.243,160.068 191.371 C 160.068 192.520,160.107 192.555,161.374 192.555 L 162.680 192.555 162.875 194.440 C 163.088 196.508,163.538 197.293,164.508 197.293 C 165.024 197.293,165.144 197.548,165.144 198.646 C 165.144 199.958,165.179 200.000,166.285 200.000 C 167.355 200.000,167.440 200.085,167.643 201.354 C 167.847 202.633,167.924 202.707,169.040 202.707 C 170.163 202.707,170.220 202.764,170.220 203.892 C 170.220 205.017,170.278 205.076,171.390 205.076 L 172.559 205.076 172.659 207.530 L 172.758 209.983 174.027 210.088 C 175.227 210.187,175.296 210.256,175.296 211.357 C 175.296 212.458,175.359 212.521,176.460 212.521 C 177.561 212.521,177.630 212.590,177.729 213.790 C 177.825 214.949,177.930 215.068,178.934 215.165 L 180.034 215.271 180.034 217.619 L 180.034 219.966 181.387 219.966 L 182.741 219.966 182.741 221.320 C 182.741 222.641,182.769 222.673,183.926 222.673 C 185.054 222.673,185.110 222.730,185.110 223.858 C 185.110 225.011,185.145 225.042,186.443 225.042 C 187.740 225.042,187.779 225.077,187.881 226.311 C 187.977 227.470,188.082 227.590,189.086 227.686 L 190.186 227.792 190.186 230.140 L 190.186 232.487 191.350 232.487 C 192.451 232.487,192.520 232.556,192.619 233.756 C 192.718 234.956,192.793 235.031,193.993 235.130 C 195.193 235.230,195.262 235.299,195.262 236.399 C 195.262 237.504,195.323 237.563,196.447 237.563 L 197.631 237.563 197.631 240.102 L 197.631 242.640 198.985 242.640 C 200.306 242.640,200.338 242.668,200.338 243.824 C 200.338 244.948,200.398 245.008,201.502 245.008 C 202.603 245.008,202.672 245.077,202.771 246.277 C 202.867 247.436,202.972 247.556,203.976 247.653 C 204.983 247.750,205.076 247.857,205.076 248.922 C 205.076 250.053,205.113 250.085,206.430 250.085 L 207.783 250.085 207.783 252.623 L 207.783 255.161 208.968 255.161 C 210.096 255.161,210.152 255.217,210.152 256.345 C 210.152 257.473,210.209 257.530,211.337 257.530 C 212.408 257.530,212.521 257.620,212.521 258.477 C 212.521 259.680,213.078 260.237,214.281 260.237 L 215.228 260.237 215.228 262.606 L 215.228 264.975 216.392 264.975 C 217.493 264.975,217.562 265.044,217.661 266.244 C 217.761 267.444,217.835 267.518,219.036 267.618 C 220.236 267.717,220.305 267.786,220.305 268.887 C 220.305 269.991,220.365 270.051,221.489 270.051 L 222.673 270.051 222.673 272.589 L 222.673 275.127 223.858 275.127 C 224.986 275.127,225.042 275.183,225.042 276.311 C 225.042 277.468,225.075 277.496,226.396 277.496 L 227.750 277.496 227.750 278.849 C 227.750 280.171,227.778 280.203,228.934 280.203 L 230.118 280.203 230.118 282.542 L 230.118 284.881 231.472 285.110 C 232.742 285.325,232.826 285.410,232.826 286.493 C 232.826 287.587,232.888 287.648,234.010 287.648 C 235.138 287.648,235.195 287.704,235.195 288.832 C 235.195 289.958,235.253 290.017,236.364 290.017 L 237.534 290.017 237.633 292.470 L 237.733 294.924 239.002 295.029 C 240.202 295.128,240.271 295.197,240.271 296.298 C 240.271 297.399,240.334 297.462,241.435 297.462 C 242.536 297.462,242.604 297.531,242.704 298.731 C 242.800 299.890,242.905 300.009,243.909 300.106 C 244.972 300.209,245.010 300.264,245.042 301.798 C 245.098 304.429,245.395 305.062,246.629 305.182 C 247.621 305.279,247.716 305.390,247.716 306.451 C 247.716 307.555,247.776 307.614,248.900 307.614 C 250.030 307.614,250.085 307.669,250.085 308.808 L 250.085 310.001 255.076 309.908 L 260.068 309.814 260.174 308.714 L 260.280 307.614 262.627 307.614 L 264.975 307.614 264.975 306.445 L 264.975 305.275 267.428 305.176 L 269.882 305.076 269.987 303.807 L 270.092 302.538 272.609 302.538 L 275.127 302.538 275.127 301.368 L 275.127 300.199 277.580 300.099 L 280.034 300.000 280.139 298.731 L 280.244 297.462 282.577 297.462 L 284.910 297.462 285.132 296.277 C 285.334 295.201,285.459 295.093,286.501 295.093 L 287.648 295.093 287.648 199.903 L 287.648 104.712 290.130 105.027 C 292.389 105.313,292.643 105.424,292.957 106.256 C 293.351 107.299,294.498 107.604,298.054 107.610 C 299.912 107.614,300.169 107.693,300.169 108.263 C 300.169 109.790,300.477 109.983,302.913 109.983 L 305.245 109.983 305.245 111.337 C 305.245 112.648,305.210 112.690,304.105 112.690 C 302.865 112.690,302.551 113.452,302.542 116.476 C 302.538 117.635,302.460 117.731,301.438 117.830 L 300.338 117.936 300.239 120.389 L 300.140 122.843 298.970 122.843 L 297.800 122.843 297.800 126.396 L 297.800 129.949 299.100 129.949 C 300.159 129.949,300.471 130.106,300.787 130.800 C 301.571 132.521,304.569 132.539,304.569 130.824 C 304.569 130.158,305.344 129.949,307.811 129.949 L 309.983 129.949 309.983 128.780 L 309.983 127.610 312.437 127.511 L 314.890 127.411 314.996 126.311 L 315.102 125.212 317.083 125.212 C 318.173 125.212,319.306 125.119,319.600 125.006 C 320.057 124.831,320.135 125.153,320.135 127.217 C 320.135 130.160,320.770 131.871,321.974 132.174 C 322.809 132.383,322.843 132.490,322.843 134.893 C 322.843 137.133,322.910 137.394,323.492 137.394 C 325.019 137.394,325.212 137.702,325.212 140.138 L 325.212 142.470 328.729 142.470 C 332.728 142.470,332.657 142.523,332.657 139.602 C 332.657 137.740,332.926 137.394,334.376 137.394 C 334.958 137.394,335.025 137.133,335.025 134.893 C 335.025 132.515,335.067 132.381,335.862 132.182 C 337.051 131.883,337.401 131.002,337.632 127.723 C 337.795 125.416,337.932 124.877,338.319 125.026 C 338.586 125.128,339.704 125.212,340.806 125.212 L 342.809 125.212 342.809 126.396 L 342.809 127.580 345.140 127.580 L 347.471 127.580 347.684 128.714 L 347.897 129.848 351.301 130.055 C 353.173 130.169,355.917 130.169,357.398 130.055 L 360.090 129.847 359.994 126.430 L 359.898 123.012 358.799 122.906 C 357.744 122.804,357.699 122.739,357.699 121.341 C 357.699 118.428,357.409 117.766,356.134 117.766 L 354.992 117.766 354.992 115.228 L 354.992 112.690 353.807 112.690 C 352.651 112.690,352.623 112.658,352.623 111.337 L 352.623 109.983 354.954 109.983 L 357.285 109.983 357.507 108.799 L 357.729 107.614 360.506 107.610 C 364.139 107.604,364.742 107.424,364.871 106.311 C 364.969 105.467,365.117 105.397,367.394 105.118 C 370.170 104.777,370.220 104.698,370.220 100.676 C 370.220 96.480,368.822 95.093,364.595 95.093 C 362.526 95.093,362.437 95.058,362.437 94.259 C 362.437 93.047,361.520 92.724,358.081 92.724 L 355.034 92.724 354.928 91.624 C 354.835 90.658,354.678 90.501,353.638 90.330 L 352.453 90.136 353.393 89.868 C 354.631 89.516,354.992 88.758,354.992 86.509 C 354.992 84.840,355.069 84.638,355.751 84.541 C 356.754 84.399,357.662 82.507,357.683 80.516 C 357.699 78.965,358.664 77.496,359.666 77.496 C 360.178 77.496,360.232 70.869,359.723 70.554 C 359.200 70.231,352.164 69.923,351.146 70.178 C 350.396 70.366,350.254 70.590,350.254 71.580 L 350.254 72.758 347.716 72.758 C 345.622 72.758,345.178 72.852,345.178 73.296 C 345.178 74.262,343.760 75.104,342.115 75.116 C 341.268 75.122,340.431 75.258,340.254 75.419 C 340.077 75.580,339.437 75.876,338.832 76.078 L 337.733 76.445 337.730 75.194 C 337.721 71.552,337.380 70.462,336.178 70.236 L 335.049 70.024 334.952 66.581 L 334.856 63.137 333.756 62.823 C 332.797 62.548,332.657 62.363,332.657 61.372 L 332.657 60.237 328.934 60.237 L 325.212 60.237 325.212 61.406 M331.452 61.026 C 331.861 61.326,332.125 62.071,332.238 63.248 C 332.370 64.614,332.587 65.135,333.192 65.532 C 334.075 66.110,334.527 67.339,334.847 70.029 C 335.007 71.374,335.328 72.167,336.043 72.981 C 336.797 73.841,337.074 74.569,337.255 76.171 L 337.490 78.247 339.118 78.031 C 340.270 77.878,341.027 77.534,341.710 76.851 C 342.328 76.232,343.211 75.795,344.168 75.634 C 345.141 75.469,345.966 75.055,346.535 74.446 C 347.135 73.804,348.003 73.388,349.309 73.117 C 350.390 72.892,351.294 72.504,351.404 72.217 C 352.082 70.450,357.360 70.363,357.360 72.119 C 357.360 72.268,357.741 72.951,358.206 73.636 C 358.672 74.322,359.052 75.015,359.052 75.176 C 359.052 75.338,358.672 75.801,358.206 76.205 C 357.681 76.663,357.360 77.300,357.360 77.888 C 357.360 79.264,356.380 81.500,355.679 81.723 C 355.258 81.856,354.957 82.521,354.681 83.922 C 354.379 85.455,354.056 86.113,353.315 86.704 C 352.330 87.491,352.108 88.500,352.239 91.600 C 352.283 92.653,352.325 92.680,354.230 92.881 C 357.187 93.194,358.611 93.671,359.337 94.594 C 359.774 95.149,360.335 95.431,361.001 95.431 C 363.393 95.431,365.648 96.115,366.599 97.129 C 367.120 97.684,367.718 98.139,367.926 98.139 C 368.692 98.139,369.543 99.282,369.541 100.306 C 369.536 102.625,367.442 104.480,364.481 104.790 C 362.967 104.948,362.318 105.174,362.076 105.626 C 361.567 106.577,360.495 107.006,357.929 107.288 C 356.020 107.497,355.445 107.705,354.862 108.394 C 354.468 108.860,353.564 109.424,352.853 109.646 C 351.852 109.960,351.614 110.176,351.796 110.609 C 351.925 110.916,352.142 111.732,352.278 112.422 C 352.415 113.111,352.985 114.198,353.546 114.837 C 354.229 115.615,354.646 116.536,354.810 117.634 C 354.969 118.690,355.297 119.439,355.736 119.747 C 356.506 120.286,357.360 122.114,357.360 123.221 C 357.360 123.627,357.761 124.778,358.251 125.779 C 359.274 127.871,359.075 128.364,356.766 129.460 C 354.711 130.435,349.239 129.306,349.239 127.907 C 349.239 127.744,348.668 127.516,347.970 127.401 C 346.032 127.080,344.879 126.554,344.187 125.673 C 343.841 125.233,343.351 124.872,343.099 124.871 C 342.011 124.867,340.048 124.107,339.133 123.337 C 337.794 122.211,337.394 122.288,337.394 123.672 C 337.394 125.887,336.699 128.222,335.839 128.899 C 335.173 129.423,334.956 130.016,334.709 131.985 C 334.470 133.889,334.187 134.692,333.416 135.654 C 332.873 136.332,332.338 137.457,332.226 138.153 C 331.616 141.955,325.550 141.888,325.550 138.080 C 325.550 137.545,325.192 136.677,324.754 136.151 C 323.547 134.700,323.291 134.033,323.033 131.672 C 322.849 129.981,322.625 129.368,322.016 128.889 C 321.155 128.211,320.474 125.999,320.474 123.877 C 320.474 122.295,320.073 122.151,319.019 123.357 C 318.502 123.949,317.654 124.334,316.244 124.618 C 315.070 124.854,314.026 125.281,313.770 125.629 C 313.173 126.438,311.789 127.103,310.184 127.351 C 309.435 127.467,308.462 127.939,307.938 128.441 C 304.247 131.977,297.963 129.535,299.762 125.264 C 300.127 124.397,300.527 123.114,300.652 122.412 C 300.777 121.710,301.323 120.631,301.865 120.013 C 302.460 119.336,302.943 118.313,303.084 117.437 C 303.219 116.591,303.703 115.541,304.241 114.929 C 304.751 114.347,305.387 113.005,305.659 111.936 L 306.152 109.998 304.693 109.440 C 303.890 109.134,303.147 108.610,303.041 108.276 C 302.915 107.879,302.384 107.601,301.509 107.472 C 300.772 107.364,299.530 107.181,298.748 107.066 C 297.827 106.929,296.985 106.513,296.354 105.881 C 295.635 105.163,295.053 104.906,294.136 104.905 C 288.901 104.897,285.822 99.112,290.440 97.959 C 290.952 97.831,291.371 97.589,291.371 97.420 C 291.371 96.728,293.650 95.786,295.849 95.570 C 297.453 95.412,298.289 95.164,298.574 94.763 C 299.209 93.870,300.206 93.462,302.743 93.058 C 305.608 92.602,305.632 92.578,305.632 90.234 C 305.632 87.882,305.385 87.061,304.603 86.813 C 303.849 86.574,303.339 85.492,303.041 83.502 C 302.873 82.385,302.610 81.882,302.063 81.633 C 301.316 81.293,300.508 79.339,300.508 77.877 C 300.508 77.479,300.127 76.822,299.662 76.417 C 298.530 75.433,298.589 74.948,300.106 72.758 C 301.841 70.253,304.146 70.010,306.335 72.101 C 306.907 72.649,307.739 73.096,308.183 73.096 C 309.384 73.096,311.234 73.963,311.636 74.715 C 311.884 75.180,312.508 75.444,313.744 75.608 C 315.082 75.785,315.724 76.082,316.448 76.856 C 317.183 77.643,317.721 77.887,318.838 77.938 L 320.280 78.003 320.547 76.203 C 320.846 74.181,321.315 73.127,322.193 72.504 C 322.610 72.208,322.861 71.394,323.027 69.797 C 323.280 67.384,323.862 65.852,324.641 65.553 C 324.900 65.454,325.293 64.449,325.515 63.321 C 325.761 62.073,326.145 61.137,326.496 60.932 C 327.344 60.438,330.735 60.502,331.452 61.026 M4.338 370.740 C 3.839 371.011,3.334 371.538,3.215 371.911 C 3.050 372.432,2.704 372.589,1.717 372.589 L 0.435 372.589 0.217 374.669 C -0.062 377.342,-0.061 393.525,0.219 395.854 C 0.429 397.603,0.451 397.631,1.570 397.631 C 2.644 397.631,2.707 397.697,2.707 398.816 L 2.707 400.000 198.985 400.000 L 395.262 400.000 395.262 398.816 C 395.262 397.688,395.319 397.631,396.447 397.631 C 397.575 397.631,397.631 397.575,397.631 396.447 C 397.631 395.319,397.688 395.262,398.816 395.262 L 400.000 395.262 400.000 385.279 L 400.000 375.296 398.836 375.296 C 397.735 375.296,397.666 375.227,397.567 374.027 C 397.465 372.795,397.420 372.755,396.024 372.654 C 395.037 372.583,394.585 372.395,394.585 372.057 C 394.585 371.786,394.091 371.262,393.486 370.893 C 392.004 369.990,5.999 369.838,4.338 370.740 " stroke="none" fill="#040404" fill-rule="evenodd"></path><path id="path1" d="M326.496 60.932 C 326.145 61.137,325.761 62.073,325.515 63.321 C 325.293 64.449,324.900 65.454,324.641 65.553 C 323.862 65.852,323.280 67.384,323.027 69.797 C 322.861 71.394,322.610 72.208,322.193 72.504 C 321.315 73.127,320.846 74.181,320.547 76.203 L 320.280 78.003 318.838 77.938 C 317.721 77.887,317.183 77.643,316.448 76.856 C 315.724 76.082,315.082 75.785,313.744 75.608 C 312.508 75.444,311.884 75.180,311.636 74.715 C 311.234 73.963,309.384 73.096,308.183 73.096 C 307.739 73.096,306.907 72.649,306.335 72.101 C 304.146 70.010,301.841 70.253,300.106 72.758 C 298.589 74.948,298.530 75.433,299.662 76.417 C 300.127 76.822,300.508 77.479,300.508 77.877 C 300.508 79.339,301.316 81.293,302.063 81.633 C 302.610 81.882,302.873 82.385,303.041 83.502 C 303.339 85.492,303.849 86.574,304.603 86.813 C 305.385 87.061,305.632 87.882,305.632 90.234 C 305.632 92.578,305.608 92.602,302.743 93.058 C 300.206 93.462,299.209 93.870,298.574 94.763 C 298.289 95.164,297.453 95.412,295.849 95.570 C 293.650 95.786,291.371 96.728,291.371 97.420 C 291.371 97.589,290.952 97.831,290.440 97.959 C 285.822 99.112,288.901 104.897,294.136 104.905 C 295.053 104.906,295.635 105.163,296.354 105.881 C 296.985 106.513,297.827 106.929,298.748 107.066 C 299.530 107.181,300.772 107.364,301.509 107.472 C 302.384 107.601,302.915 107.879,303.041 108.276 C 303.147 108.610,303.890 109.134,304.693 109.440 L 306.152 109.998 305.659 111.936 C 305.387 113.005,304.751 114.347,304.241 114.929 C 303.703 115.541,303.219 116.591,303.084 117.437 C 302.943 118.313,302.460 119.336,301.865 120.013 C 301.323 120.631,300.777 121.710,300.652 122.412 C 300.527 123.114,300.127 124.397,299.762 125.264 C 297.963 129.535,304.247 131.977,307.938 128.441 C 308.462 127.939,309.435 127.467,310.184 127.351 C 311.789 127.103,313.173 126.438,313.770 125.629 C 314.026 125.281,315.070 124.854,316.244 124.618 C 317.654 124.334,318.502 123.949,319.019 123.357 C 320.073 122.151,320.474 122.295,320.474 123.877 C 320.474 125.999,321.155 128.211,322.016 128.889 C 322.625 129.368,322.849 129.981,323.033 131.672 C 323.291 134.033,323.547 134.700,324.754 136.151 C 325.192 136.677,325.550 137.545,325.550 138.080 C 325.550 141.888,331.616 141.955,332.226 138.153 C 332.338 137.457,332.873 136.332,333.416 135.654 C 334.187 134.692,334.470 133.889,334.709 131.985 C 334.956 130.016,335.173 129.423,335.839 128.899 C 336.699 128.222,337.394 125.887,337.394 123.672 C 337.394 122.288,337.794 122.211,339.133 123.337 C 340.048 124.107,342.011 124.867,343.099 124.871 C 343.351 124.872,343.841 125.233,344.187 125.673 C 344.879 126.554,346.032 127.080,347.970 127.401 C 348.668 127.516,349.239 127.744,349.239 127.907 C 349.239 129.306,354.711 130.435,356.766 129.460 C 359.075 128.364,359.274 127.871,358.251 125.779 C 357.761 124.778,357.360 123.627,357.360 123.221 C 357.360 122.114,356.506 120.286,355.736 119.747 C 355.297 119.439,354.969 118.690,354.810 117.634 C 354.646 116.536,354.229 115.615,353.546 114.837 C 352.985 114.198,352.415 113.111,352.278 112.422 C 352.142 111.732,351.925 110.916,351.796 110.609 C 351.614 110.176,351.852 109.960,352.853 109.646 C 353.564 109.424,354.468 108.860,354.862 108.394 C 355.445 107.705,356.020 107.497,357.929 107.288 C 360.495 107.006,361.567 106.577,362.076 105.626 C 362.318 105.174,362.967 104.948,364.481 104.790 C 367.442 104.480,369.536 102.625,369.541 100.306 C 369.543 99.282,368.692 98.139,367.926 98.139 C 367.718 98.139,367.120 97.684,366.599 97.129 C 365.648 96.115,363.393 95.431,361.001 95.431 C 360.335 95.431,359.774 95.149,359.337 94.594 C 358.611 93.671,357.187 93.194,354.230 92.881 C 352.325 92.680,352.283 92.653,352.239 91.600 C 352.108 88.500,352.330 87.491,353.315 86.704 C 354.056 86.113,354.379 85.455,354.681 83.922 C 354.957 82.521,355.258 81.856,355.679 81.723 C 356.380 81.500,357.360 79.264,357.360 77.888 C 357.360 77.300,357.681 76.663,358.206 76.205 C 358.672 75.801,359.052 75.338,359.052 75.176 C 359.052 75.015,358.672 74.322,358.206 73.636 C 357.741 72.951,357.360 72.268,357.360 72.119 C 357.360 70.363,352.082 70.450,351.404 72.217 C 351.294 72.504,350.390 72.892,349.309 73.117 C 348.003 73.388,347.135 73.804,346.535 74.446 C 345.966 75.055,345.141 75.469,344.168 75.634 C 343.211 75.795,342.328 76.232,341.710 76.851 C 341.027 77.534,340.270 77.878,339.118 78.031 L 337.490 78.247 337.255 76.171 C 337.074 74.569,336.797 73.841,336.043 72.981 C 335.328 72.167,335.007 71.374,334.847 70.029 C 334.527 67.339,334.075 66.110,333.192 65.532 C 332.587 65.135,332.370 64.614,332.238 63.248 C 332.002 60.791,328.890 59.536,326.496 60.932 " stroke="none" fill="#c50b04" fill-rule="evenodd"></path></g></svg>