<svg xmlns="http://www.w3.org/2000/svg" xmlns:xlink="http://www.w3.org/1999/xlink" id="svg" width="400" height="400" version="1.1" viewBox="0 0 400 400"><g id="svgg"><path id="path0" fill="#000" fill-rule="evenodd" stroke="none" d="M91.406 33.334 C 82.260 37.099,82.849 30.656,82.830 127.025 L 82.813 210.690 79.565 211.663 C 40.690 223.310,39.421 283.344,77.781 296.109 L 82.812 297.784 82.830 327.212 C 82.849 360.133,82.987 361.071,88.386 364.921 C 91.940 367.456,99.596 367.596,102.824 365.186 C 108.423 361.006,108.179 362.601,108.424 328.538 L 108.645 297.813 110.755 297.283 C 151.641 287.021,151.890 219.401,111.072 211.238 L 108.614 210.746 108.409 125.743 C 108.179 30.637,108.696 39.198,102.914 34.881 C 100.821 33.318,93.753 32.368,91.406 33.334 M193.750 34.451 C 187.876 37.895,187.936 37.622,187.500 62.817 L 187.109 85.399 183.203 86.727 C 143.375 100.266,144.058 159.896,184.180 171.909 L 187.500 172.904 187.500 265.435 C 187.500 369.313,187.048 361.577,193.334 365.261 C 197.686 367.811,202.314 367.811,206.666 365.261 C 212.952 361.577,212.500 369.313,212.500 265.435 L 212.500 172.904 215.820 171.910 C 255.862 159.928,256.677 100.273,216.983 86.790 L 212.891 85.400 212.500 62.817 C 212.063 37.563,212.106 37.760,206.346 34.523 C 202.463 32.340,197.400 32.312,193.750 34.451 M299.219 33.648 C 298.145 34.099,296.442 35.239,295.434 36.180 C 291.189 40.143,291.406 34.838,291.406 134.603 L 291.406 227.096 288.086 228.090 C 250.481 239.343,247.244 296.349,283.335 311.744 C 286.270 312.996,289.272 314.030,290.005 314.041 C 291.226 314.061,291.358 315.977,291.568 336.663 C 291.821 361.596,291.726 361.117,297.176 365.186 C 300.404 367.596,308.060 367.456,311.614 364.921 C 316.768 361.245,317.151 359.217,317.170 335.475 L 317.188 314.310 320.435 313.337 C 359.307 301.690,360.576 241.655,322.219 228.891 L 317.188 227.216 317.170 135.288 C 317.151 32.483,317.524 39.290,311.686 35.133 C 308.795 33.075,302.395 32.312,299.219 33.648 M209.962 111.063 C 216.827 114.323,220.819 122.138,220.113 130.936 C 218.148 155.408,182.113 155.708,179.897 131.272 C 178.370 114.431,194.385 103.666,209.962 111.063 M104.557 235.371 C 120.338 242.217,119.508 268.901,103.376 273.381 C 88.073 277.630,75.797 269.135,75.797 254.297 C 75.797 243.400,81.044 236.772,91.797 234.087 C 94.089 233.514,102.145 234.325,104.557 235.371 M311.779 251.673 C 328.259 256.610,328.405 284.258,311.981 289.933 C 297.660 294.881,283.983 285.678,283.985 271.094 C 283.987 256.071,296.733 247.165,311.779 251.673"/></g></svg>