<svg xmlns="http://www.w3.org/2000/svg" viewBox="0 0 48 48" width="48" height="48"><path d="M 12.5 6 C 8.9280619 6 6 8.9280619 6 12.5 L 6 35.5 C 6 39.071938 8.9280619 42 12.5 42 L 35.5 42 C 39.071938 42 42 39.071938 42 35.5 L 42 12.5 C 42 8.9280619 39.071938 6 35.5 6 L 12.5 6 z M 12.5 9 L 35.5 9 C 37.450062 9 39 10.549938 39 12.5 L 39 35.5 C 39 37.450062 37.450062 39 35.5 39 L 12.5 39 C 10.549938 39 9 37.450062 9 35.5 L 9 12.5 C 9 10.549938 10.549938 9 12.5 9 z M 19.5 14 A 1.50015 1.50015 0 0 0 18 15.5 L 18 26.253906 A 1.50015 1.50015 0 0 0 18 26.740234 L 18 33.5 A 1.50015 1.50015 0 1 0 21 33.5 L 21 28 L 25 28 C 28.848402 28 32 24.848402 32 21 C 32 17.151598 28.848402 14 25 14 L 19.5 14 z M 21 17 L 25 17 C 27.227598 17 29 18.772402 29 21 C 29 23.227598 27.227598 25 25 25 L 21 25 L 21 17 z"/></svg>