<svg id="svg" xmlns="http://www.w3.org/2000/svg" xmlns:xlink="http://www.w3.org/1999/xlink" width="400" height="400" viewBox="0, 0, 400,400" version="1.1"><g id="svgg"><path id="path0" d="M84.807 0.189 C 40.636 2.685,5.605 36.219,0.390 80.999 C 0.025 84.133,-0.189 310.040,0.167 315.700 C 2.975 360.262,37.769 395.843,82.353 399.746 C 86.708 400.128,313.292 400.128,317.647 399.746 C 362.166 395.849,396.832 360.479,399.826 315.899 C 400.065 312.330,400.065 87.560,399.825 84.130 C 396.626 38.347,360.498 2.722,314.685 0.174 C 310.884 -0.037,88.556 -0.023,84.807 0.189 M318.155 26.702 C 348.079 31.074,369.862 53.404,373.541 83.479 C 373.901 86.417,374.120 305.610,373.771 312.580 C 372.166 344.575,349.314 369.139,317.055 373.544 C 314.435 373.902,91.198 374.115,86.077 373.764 C 53.192 371.514,27.931 345.756,26.228 312.738 C 25.882 306.031,26.103 86.385,26.459 83.479 C 30.298 52.107,54.472 28.711,85.485 26.353 C 85.904 26.322,137.854 26.304,200.931 26.313 L 315.616 26.331 318.155 26.702 M71.181 129.614 C 67.078 130.159,63.615 133.326,62.336 137.706 C 61.972 138.953,61.771 258.221,62.129 260.347 C 64.015 271.533,85.915 272.269,88.787 261.244 C 89.005 260.409,89.039 257.033,89.039 236.695 L 89.039 213.114 94.752 213.159 L 100.466 213.204 111.326 237.579 C 124.754 267.719,123.315 264.665,124.805 266.170 C 132.466 273.907,150.725 265.058,148.386 254.744 C 148.164 253.768,145.680 248.428,137.135 230.554 L 126.168 207.617 127.825 206.736 C 140.480 200.010,148.078 189.119,149.708 175.370 C 152.666 150.423,138.290 131.759,114.515 129.678 C 112.602 129.510,72.409 129.452,71.181 129.614 M175.116 129.614 C 170.578 130.216,167.031 133.846,166.132 138.807 C 165.778 140.763,165.786 258.384,166.140 260.057 C 166.833 263.326,169.183 265.879,172.881 267.379 C 175.973 268.633,173.901 268.557,205.078 268.557 L 233.009 268.557 234.109 268.161 C 242.596 265.109,244.816 252.664,238.018 246.251 C 234.929 243.336,235.802 243.432,212.399 243.425 L 193.144 243.419 193.144 226.329 L 193.144 209.240 209.776 209.182 C 225.154 209.128,226.484 209.101,227.423 208.821 C 237.745 205.747,238.392 190.246,228.350 186.581 L 227.084 186.119 210.114 186.073 L 193.144 186.027 193.144 170.378 L 193.144 154.729 211.468 154.679 C 231.685 154.625,230.264 154.699,232.501 153.580 C 242.211 148.725,240.602 131.943,230.216 129.736 C 229.180 129.516,176.732 129.400,175.116 129.614 M263.986 129.747 C 259.733 130.683,256.592 133.939,255.702 138.334 C 255.309 140.274,255.298 259.399,255.690 260.905 C 258.527 271.798,279.495 271.964,282.265 261.116 C 282.489 260.236,282.522 257.089,282.522 236.611 L 282.522 213.114 288.218 213.159 L 293.913 213.204 305.110 238.341 C 317.485 266.123,316.897 264.875,318.258 266.249 C 325.318 273.376,342.998 265.763,342.036 256.011 C 341.857 254.204,341.635 253.709,330.523 230.459 L 319.615 207.635 321.128 206.823 C 336.702 198.470,344.372 184.563,343.448 166.352 C 342.402 145.758,328.624 131.536,307.914 129.673 C 304.818 129.394,265.285 129.461,263.986 129.747 M102.920 152.935 C 115.223 154.431,121.879 161.176,121.879 172.146 C 121.879 183.104,115.191 190.275,102.920 192.475 C 101.076 192.805,100.048 192.864,94.922 192.932 L 89.039 193.011 89.039 172.849 L 89.039 152.687 95.006 152.693 C 99.047 152.696,101.602 152.774,102.920 152.935 M295.859 152.866 C 309.422 154.344,316.773 162.774,315.187 175.032 C 313.633 187.048,304.431 192.975,287.329 192.975 L 282.522 192.975 282.522 172.831 L 282.522 152.687 288.369 152.687 C 291.585 152.687,294.955 152.768,295.859 152.866 " stroke="none" fill="#000000" fill-rule="evenodd"></path></g></svg>