<svg xmlns="http://www.w3.org/2000/svg" viewBox="0 0 48 48" width="48" height="48"><path d="M 24.009766 5 A 1.50015 1.50015 0 0 0 22.658203 5.8300781 L 17.505859 16.134766 L 5.2714844 18.017578 A 1.50015 1.50015 0 0 0 4.4394531 20.560547 L 12.902344 29.023438 L 11.017578 41.271484 A 1.50015 1.50015 0 0 0 13.193359 42.830078 L 24 37.191406 L 34.806641 42.830078 A 1.50015 1.50015 0 0 0 36.982422 41.271484 L 35.097656 29.023438 L 43.560547 20.560547 A 1.50015 1.50015 0 0 0 42.728516 18.017578 L 30.494141 16.134766 L 25.341797 5.8300781 A 1.50015 1.50015 0 0 0 24.009766 5 z"/></svg>