<svg xmlns="http://www.w3.org/2000/svg" viewBox="0 0 48 48" width="48" height="48"><path d="M 15.5 6 C 10.823343 6 7 9.823343 7 14.5 L 7 33.5 C 7 37.071938 9.9280619 40 13.5 40 L 13.546875 40 L 8.6679688 43.251953 A 1.50015 1.50015 0 1 0 10.332031 45.748047 L 18.953125 40 L 29.046875 40 L 37.667969 45.748047 A 1.50015 1.50015 0 1 0 39.332031 43.251953 L 34.453125 40 L 34.5 40 C 38.071938 40 41 37.071938 41 33.5 L 41 14.5 C 41 9.823343 37.176657 6 32.5 6 L 15.5 6 z M 15.5 9 L 32.5 9 C 35.555343 9 38 11.444657 38 14.5 L 38 24 L 10 24 L 10 14.5 C 10 11.444657 12.444657 9 15.5 9 z M 20.5 12 A 1.50015 1.50015 0 1 0 20.5 15 L 27.5 15 A 1.50015 1.50015 0 1 0 27.5 12 L 20.5 12 z M 10 27 L 38 27 L 38 33.5 C 38 35.450062 36.450062 37 34.5 37 L 29.660156 37 A 1.50015 1.50015 0 0 0 29.486328 36.988281 A 1.50015 1.50015 0 0 0 29.308594 37 L 18.703125 37 A 1.50015 1.50015 0 0 0 18.46875 36.988281 A 1.50015 1.50015 0 0 0 18.318359 37 L 13.5 37 C 11.549938 37 10 35.450062 10 33.5 L 10 27 z M 16 30 A 2 2 0 0 0 16 34 A 2 2 0 0 0 16 30 z M 32 30 A 2 2 0 0 0 32 34 A 2 2 0 0 0 32 30 z"/></svg>