<svg id="svg" xmlns="http://www.w3.org/2000/svg" xmlns:xlink="http://www.w3.org/1999/xlink" width="400" height="400" viewBox="0, 0, 400,400" version="1.1"><g id="svgg"><path id="path0" d="M84.807 0.189 C 39.347 2.758,2.990 38.999,0.170 84.554 C -0.190 90.362,0.024 315.856,0.392 319.001 C 5.548 363.070,38.917 395.944,82.353 399.746 C 86.708 400.128,313.292 400.128,317.647 399.746 C 360.997 395.951,394.512 363.004,399.610 319.171 C 399.978 316.008,400.190 89.901,399.830 84.300 C 396.897 38.627,360.561 2.726,314.685 0.174 C 310.884 -0.037,88.556 -0.023,84.807 0.189 M318.155 26.702 C 349.248 31.245,371.964 55.748,373.755 86.677 C 373.991 90.736,373.992 309.246,373.756 313.304 C 371.934 344.775,349.045 369.164,317.224 373.542 C 314.621 373.900,91.583 374.118,86.062 373.767 C 54.870 371.789,29.793 347.666,26.492 316.462 C 26.113 312.876,26.113 87.294,26.492 83.707 C 29.345 56.737,48.403 34.708,74.587 28.115 C 77.893 27.282,80.903 26.801,85.654 26.347 C 85.980 26.316,137.854 26.300,200.931 26.311 L 315.616 26.331 318.155 26.702 M166.822 73.304 C 152.455 73.852,146.589 77.244,134.486 92.002 C 128.094 99.795,125.870 103.605,122.668 112.242 C 111.324 142.844,104.402 178.926,105.784 200.254 C 106.902 217.503,109.931 231.973,116.633 252.079 C 122.933 270.980,129.216 281.084,139.108 288.221 L 139.832 288.743 120.741 309.973 C 98.524 334.679,100.480 332.457,99.856 333.685 C 96.738 339.815,100.562 347.101,106.898 347.101 C 110.564 347.101,110.201 347.387,119.203 337.414 L 126.121 329.750 199.734 329.750 L 273.347 329.750 280.001 337.156 C 288.378 346.479,288.015 346.132,290.121 346.841 C 296.244 348.904,301.996 342.739,300.373 335.853 C 299.800 333.424,299.932 333.587,286.699 318.869 C 279.901 311.308,271.026 301.436,266.977 296.933 C 260.724 289.977,259.660 288.720,259.908 288.581 C 262.723 287.006,269.201 280.111,272.441 275.243 C 281.522 261.599,290.897 230.233,293.184 205.840 C 295.517 180.963,289.282 145.774,276.432 111.299 C 273.569 103.619,271.126 99.529,264.803 91.832 C 252.597 76.974,247.169 73.905,232.020 73.294 C 227.502 73.112,171.642 73.120,166.822 73.304 M262.537 116.733 C 265.959 119.612,271.820 140.632,274.639 160.135 C 276.859 175.489,276.511 185.765,273.722 187.245 C 272.904 187.680,126.112 187.743,125.273 187.309 C 122.831 186.046,122.672 175.421,124.855 159.289 C 127.492 139.799,132.328 120.322,135.366 116.960 L 135.968 116.293 198.991 116.293 L 262.014 116.293 262.537 116.733 M156.237 246.978 C 164.308 249.257,168.192 258.018,164.491 265.595 C 159.722 275.355,145.606 275.220,140.843 265.370 C 135.975 255.300,145.483 243.940,156.237 246.978 M249.683 246.901 C 260.921 249.823,263.208 264.657,253.383 270.899 C 244.731 276.396,233.249 269.991,233.249 259.670 C 233.249 251.127,241.444 244.759,249.683 246.901 M159.540 296.563 C 164.829 297.490,164.240 297.474,197.122 297.545 C 232.496 297.620,234.603 297.564,241.024 296.375 L 242.945 296.020 243.424 296.507 C 243.687 296.776,246.846 300.271,250.444 304.274 L 256.986 311.553 199.815 311.596 C 168.371 311.619,142.612 311.606,142.572 311.566 C 142.533 311.527,145.611 308.023,149.414 303.781 C 156.294 296.104,156.330 296.067,156.919 296.137 C 157.245 296.176,158.425 296.367,159.540 296.563 " stroke="none" fill="#000000" fill-rule="evenodd"></path></g></svg>