<svg xmlns="http://www.w3.org/2000/svg" xmlns:xlink="http://www.w3.org/1999/xlink" id="svg" width="400" height="400" version="1.1" viewBox="0 0 400 400"><g id="svgg"><path id="path0" fill="#000" fill-rule="evenodd" stroke="none" d="M83.756 0.356 C 40.270 3.346,5.034 37.111,0.356 80.274 C -0.141 84.861,-0.141 315.478,0.356 320.064 C 4.865 361.666,38.334 395.135,79.936 399.644 C 84.522 400.141,315.139 400.141,319.726 399.644 C 361.072 395.163,393.605 363.039,399.219 321.151 C 400.162 314.111,400.170 85.888,399.227 79.019 C 393.232 35.340,359.100 3.329,315.338 0.341 C 309.601 -0.051,89.462 -0.037,83.756 0.356 M318.341 21.839 C 349.701 25.917,374.071 50.288,378.160 81.659 C 378.947 87.701,378.950 312.606,378.162 318.680 C 374.200 349.241,351.447 372.660,320.290 378.245 C 315.058 379.183,84.604 379.183,79.372 378.245 C 48.923 372.787,27.503 351.431,21.762 320.807 C 21.016 316.827,20.602 90.936,21.328 83.660 C 24.510 51.759,49.195 26.145,80.880 21.869 C 86.465 21.115,312.556 21.087,318.341 21.839 M165.651 73.441 C 150.541 74.242,141.518 80.624,128.678 99.592 C 120.367 111.870,109.407 150.848,106.250 179.357 C 103.811 201.376,106.933 223.764,116.396 252.115 C 122.538 270.519,128.471 280.245,138.184 287.837 L 139.480 288.851 119.909 310.603 C 98.419 334.488,98.653 334.184,98.665 338.240 C 98.681 343.605,101.978 347.219,106.842 347.201 C 110.274 347.188,110.876 346.721,118.794 337.936 L 125.992 329.949 199.629 329.963 L 273.266 329.977 280.341 337.911 C 288.228 346.757,288.811 347.208,292.337 347.208 C 297.253 347.208,300.337 343.750,300.335 338.240 C 300.333 333.943,301.169 335.036,279.275 310.687 L 259.674 288.887 262.648 286.392 C 271.154 279.255,276.596 270.200,282.092 254.040 C 297.019 210.153,297.254 180.885,283.074 131.810 C 276.136 107.801,272.748 100.971,261.318 87.952 C 252.989 78.465,248.132 75.400,239.044 73.892 C 235.291 73.269,175.790 72.904,165.651 73.441 M262.533 117.181 C 270.110 125.247,279.289 180.878,274.006 186.717 L 273.317 187.479 199.317 187.479 C 129.267 187.479,125.288 187.447,124.788 186.887 C 119.993 181.515,129.241 121.676,135.613 116.836 C 136.054 116.501,149.257 116.413,198.990 116.413 L 261.811 116.413 262.533 117.181 M158.143 247.998 C 163.754 250.760,166.787 256.920,165.342 262.618 C 162.263 274.754,146.022 276.454,140.751 265.192 C 135.646 254.281,147.368 242.693,158.143 247.998 M251.864 247.989 C 258.383 251.198,261.161 259.119,257.996 265.471 C 252.080 277.347,233.996 273.745,233.232 260.538 C 232.659 250.642,243.045 243.647,251.864 247.989 M159.530 296.765 C 166.806 298.059,230.920 298.221,238.240 296.963 C 240.195 296.627,242.028 296.336,242.316 296.315 C 242.603 296.294,245.926 299.704,249.701 303.892 L 256.564 311.506 228.140 311.592 C 212.506 311.640,186.854 311.640,171.134 311.592 L 142.553 311.506 149.492 303.798 C 154.340 298.412,156.596 296.138,156.980 296.249 C 157.282 296.337,158.430 296.569,159.530 296.765"/></g></svg>