<svg xmlns="http://www.w3.org/2000/svg" xmlns:xlink="http://www.w3.org/1999/xlink" id="svg" width="1000" height="1000" version="1.1" viewBox="0 0 1000 1000"><g id="svgg"><path id="path0" fill="#000" fill-rule="evenodd" stroke="none" d="M125.6 1.7C61.7 13.1 14.3 60.2 1.9 124.6 0.5 131.9 0.4 144.3 0.4 334.2L0.4 536 2.4 545.7C15.2 607.4 59.1 651.8 120.8 665.6L130.7 667.8 209.2 668.1 287.6 668.4 287.6 646.4 287.6 624.4 210 624.2 132.4 623.9 124.4 621.7C85.5 611 57.5 582.9 46.6 544L44.4 536 44.2 337.1C44 159.4 44.1 137.6 45.3 131.2 53.4 87.8 84.7 55.8 129.4 45.1 138.7 42.9 518.4 42.3 533.4 44.4 580 51.2 617.1 88.1 623.9 134.6 625 142.2 625.2 154.8 625.2 215.6L625.2 287.6 646.8 287.6 668.4 287.6 668.4 211.9C668.4 149.5 668.1 134.8 667.1 128 657.2 62.5 605.8 11.1 540.4 1.2 526.5-0.9 137.5-0.5 125.6 1.7M270.4 122.7C252.5 124.8 240 133.7 221.8 157.3 204 180.4 187.2 233 178.7 292.1 169.4 358 197.1 456.8 231.8 480.8 233.6 482.1 233.7 482.3 232.5 483.7 231.8 484.5 217 501 199.6 520.3 181.8 540.1 167.4 556.9 166.6 558.8 162.6 567.4 167.1 577.2 176.1 579.6 182.3 581.3 185.3 579.2 199.1 563.8L210.8 550.8 249.2 550.8 287.6 550.8 287.6 535.5 287.6 520.3 263.1 520.1 238.6 519.9 250 507.1 261.4 494.4 267.5 495.5C270.9 496.1 276.8 496.6 280.6 496.6L287.5 496.6 287.9 456.6C288.1 432.8 288.6 415.3 289.2 413.3 289.6 411.4 290.7 407 291.5 403.6 293.5 394.4 298.2 380.9 302.5 372.2 304.6 368 306.3 363.4 306.3 362.1 306.3 360.2 306.7 359.6 307.8 359.6 308.7 359.6 311.2 356.8 314.5 352.2 324.8 337.5 334.1 328 350.3 315.8L353.9 313 281.4 313 208.9 313 207.6 309.9C202.2 297.1 213.7 219.9 224 198.8L226.3 194.2 332 193.9C450.7 193.7 439.1 193 442.5 200.4 449.7 215.6 461.1 266.7 461.1 283.9L461.1 287.6 474.7 287.6 488.3 287.6 487.7 283.6C482.2 243.2 464.1 183.6 451.6 165.2 432.7 137.1 417 125 396.4 122.7 387.4 121.7 279.1 121.7 270.4 122.7M457.3 333.3C399.1 343.7 353.8 384.1 337.5 440.2 331.6 460.3 332.1 442.1 332.1 665.8L332.1 867.6 334.1 877.3C346.9 939.6 392 984.7 454.3 997.6L464 999.6 665.8 999.6C855.7 999.6 868.1 999.5 875.4 998.1 937.8 986.1 983.3 941.9 997.6 879.4L999.5 871 999.8 670.5C1000 524.4 999.8 467.9 999.1 462.4 990.8 396.3 938.4 342.9 872 332.9 858.2 330.8 469.1 331.2 457.3 333.3M865.4 376.1C911.9 382.9 948.8 420 955.6 466.6 957.7 481.6 957.1 861.3 954.9 870.6 944.2 915.3 912.2 946.6 868.8 954.7 862.4 955.9 840.6 956 662.9 955.8L464 955.6 456 953.4C417.1 942.5 389.1 914.6 378.3 875.6L376.1 867.6 375.8 668.8C375.6 491.1 375.8 469.2 376.9 462.9 385.6 416.8 422.5 381.6 468.3 375.8 479.9 374.3 855.1 374.6 865.4 376.1M265.8 414.4C276.4 419.9 280.6 434.3 274.6 444.6 263.1 464.2 233.5 456.4 233.5 433.7 233.5 417 250.8 406.6 265.8 414.4M448.7 548.3C444.2 549.3 438.9 554 436.9 558.6 434.9 563 433.9 760.6 435.8 767.6 440.1 783.7 471.9 785.8 478.9 770.4 480.4 767.2 480.5 764.2 480.5 727.4L480.5 687.8 490.1 687.8 499.7 687.8 517.3 727.4C542.2 783.4 540.2 780.5 553.3 780.5 568.9 780.5 582.1 768.9 579.5 757.4 579.1 755.6 575.3 747 571 738.1 566.8 729.3 562.2 719.8 560.9 717 559.6 714.2 555.1 704.7 550.9 696 542.1 677.8 542.2 678.2 545.9 676.3 573.7 662 588.2 628.5 580.5 596.4 574 569.1 554 551.9 524.6 548.3 515.8 547.2 453.6 547.2 448.7 548.3M622.2 548.6C617.4 550.1 614 552.8 611.6 557L609.6 560.5 609.6 664.2 609.6 767.9 611.8 771.3C613.4 773.7 615.7 775.5 619 777.2L623.9 779.6 671.7 779.9C725.7 780.1 723.9 780.3 728.8 775.7 738.9 766.5 738.3 749 727.7 741.5L724.1 739 689.2 738.6 654.4 738.2 654.2 709.6 654 681.1 683 680.9 712.1 680.6 716.2 678.1C729.6 669.8 727.3 647.1 712.6 643 710.7 642.5 698.4 642.1 681.7 642.1L654 642.1 654 615.9 654 589.7 684.9 589.7C710.9 589.7 716.3 589.5 718.9 588.4 735.9 581.3 734.5 552.7 717 548.3 711.4 546.9 626.7 547.1 622.2 548.6M770.9 549C765.3 550.9 763.4 552.7 760.9 558L758.9 562.2 758.9 664.8C758.9 766.5 758.9 767.4 760.6 770.8 767.8 784.8 797.4 784 802.8 769.6 803.4 768.1 803.7 753.5 803.7 727.5L803.7 687.8 813.6 688 823.5 688.2 842.2 730.5C852.6 753.8 861.9 773.9 863 775.3 871.8 786.2 896.8 779.7 902.4 765.1 904.7 758.9 906 762 872.7 692.6 865.1 676.6 865.2 678.8 871.8 674.9 921.2 646 916.7 570.9 864.6 552.1 850.9 547.1 782.8 544.9 770.9 549M508.2 587.6C526.8 591.5 536.6 603.8 535.3 621.4 533.7 642.1 519.8 652.7 492.6 653.7L480.5 654.2 480.5 620.3 480.5 586.3 491.2 586.3C497.5 586.3 504.3 586.8 508.2 587.6M831.8 587.5C850.1 591.4 858.3 601.3 858.2 619.3 858.1 641.8 844.8 652.7 815.8 653.8L803.7 654.2 803.7 620.3 803.7 586.3 814.9 586.3C821.3 586.3 828.6 586.8 831.8 587.5"/></g></svg>