<svg xmlns="http://www.w3.org/2000/svg" xmlns:xlink="http://www.w3.org/1999/xlink" id="svg" width="400" height="400" version="1.1" viewBox="0 0 400 400"><g id="svgg"><path id="path0" fill="#000" fill-rule="evenodd" stroke="none" d="M10.608 0.270 C -2.877 2.707,-3.694 21.669,9.510 25.768 L 10.749 26.153 199.069 26.202 C 336.974 26.238,387.746 26.201,388.724 26.063 C 403.563 23.964,403.564 2.241,388.726 0.178 C 386.535 -0.127,12.300 -0.036,10.608 0.270 M125.713 62.726 C 123.518 63.531,119.948 68.424,119.961 70.611 C 119.975 73.043,117.547 70.827,144.022 92.568 C 156.154 102.530,166.086 110.738,166.093 110.807 C 166.100 110.876,158.155 117.469,148.436 125.459 L 130.766 139.986 85.358 139.989 L 39.949 139.992 39.949 149.046 L 39.949 158.100 69.446 158.145 L 98.942 158.189 99.582 158.587 C 101.025 159.484,100.889 155.202,100.889 199.630 L 100.889 238.968 100.504 239.539 C 100.292 239.853,99.862 240.284,99.548 240.495 L 98.977 240.880 69.463 240.880 L 39.949 240.880 39.949 270.504 L 39.949 300.127 171.942 300.127 C 305.004 300.126,306.163 300.121,310.368 299.521 C 339.554 295.357,361.713 269.789,359.906 242.361 C 358.325 218.373,346.748 188.445,330.419 166.138 C 317.723 148.794,309.789 142.796,296.346 140.375 C 294.926 140.120,288.774 140.088,223.717 140.001 L 152.639 139.907 167.180 127.958 C 175.177 121.385,181.979 115.714,182.295 115.354 C 184.292 113.080,184.344 108.930,182.408 106.392 C 181.824 105.626,130.490 63.476,129.474 62.928 C 128.481 62.393,126.860 62.305,125.713 62.726 M159.441 158.527 C 160.180 158.963,160.627 159.570,160.820 160.402 C 161.025 161.290,161.025 278.829,160.820 279.716 C 160.627 280.548,160.180 281.156,159.441 281.591 C 158.875 281.924,158.561 281.930,139.992 281.930 C 118.745 281.930,120.474 282.036,119.552 280.668 L 119.171 280.102 119.171 220.110 C 119.171 155.638,119.117 159.681,119.988 158.892 C 120.864 158.099,120.472 158.114,140.245 158.152 C 158.528 158.188,158.876 158.195,159.441 158.527 M218.891 158.296 C 219.627 158.542,220.375 159.223,220.673 159.918 C 220.967 160.607,221.025 278.953,220.731 280.011 C 220.519 280.776,219.612 281.601,218.718 281.842 C 218.260 281.965,212.226 282.007,199.545 281.976 L 181.041 281.930 180.442 281.557 C 180.113 281.352,179.675 280.885,179.469 280.519 L 179.094 279.852 179.094 220.072 C 179.094 161.216,179.099 160.281,179.423 159.647 C 179.764 158.979,180.356 158.495,181.111 158.266 C 181.847 158.043,218.221 158.072,218.891 158.296 M294.625 158.557 C 300.268 159.872,303.185 161.801,308.150 167.499 C 322.052 183.455,332.256 202.323,337.673 222.092 C 340.106 230.971,337.702 237.225,330.832 239.893 C 328.133 240.941,331.026 240.880,283.971 240.880 L 240.930 240.880 240.355 240.498 C 240.039 240.288,239.609 239.776,239.399 239.362 L 239.018 238.608 239.019 199.668 C 239.020 174.635,239.080 160.514,239.187 160.128 C 239.379 159.436,240.228 158.565,240.965 158.305 C 242.088 157.908,292.865 158.147,294.625 158.557 M39.949 324.418 L 39.949 332.968 197.757 332.925 C 352.952 332.883,355.579 332.877,356.411 332.557 C 357.631 332.088,359.220 330.458,359.643 329.242 C 360.125 327.854,360.125 320.982,359.643 319.594 C 359.220 318.378,357.631 316.748,356.411 316.280 C 355.579 315.960,352.952 315.954,197.757 315.912 L 39.949 315.869 39.949 324.418 M10.326 374.183 C -3.018 376.845,-3.449 396.290,9.761 399.668 C 11.826 400.197,388.017 400.191,390.113 399.662 C 403.455 396.299,403.044 376.970,389.572 374.187 C 387.841 373.830,12.117 373.825,10.326 374.183"/></g></svg>