<svg xmlns="http://www.w3.org/2000/svg" viewBox="0 0 48 48" width="48" height="48"><path d="M 23.917969 4.0019531 A 1.50015 1.50015 0 0 0 23.222656 4.2167969 L 9.6132812 12.464844 A 1.50015 1.50015 0 0 0 9.6113281 12.464844 C 7.5032605 13.743313 6 15.879598 6 18.5 A 1.50015 1.50015 0 0 0 7.5 20 L 40.5 20 A 1.50015 1.50015 0 0 0 42 18.5 C 42 15.879598 40.496736 13.743313 38.388672 12.464844 A 1.50015 1.50015 0 0 0 38.386719 12.464844 L 24.777344 4.2167969 A 1.50015 1.50015 0 0 0 23.917969 4.0019531 z M 24 7.2539062 L 36.832031 15.03125 C 37.753801 15.590272 38.269149 16.248237 38.601562 17 L 9.3984375 17 C 9.730851 16.248237 10.246199 15.590272 11.167969 15.03125 L 24 7.2539062 z M 24 11 A 2 2 0 0 0 24 15 A 2 2 0 0 0 24 11 z M 11.476562 21.978516 A 1.50015 1.50015 0 0 0 10 23.5 L 10 36.5 A 1.50015 1.50015 0 0 0 11.5 38 L 36.5 38 A 1.50015 1.50015 0 0 0 38 36.5 L 38 23.5 A 1.50015 1.50015 0 1 0 35 23.5 L 35 35 L 33 35 L 33 23.5 A 1.50015 1.50015 0 1 0 30 23.5 L 30 35 L 28 35 L 28 23.5 A 1.50015 1.50015 0 1 0 25 23.5 L 25 35 L 23 35 L 23 23.5 A 1.50015 1.50015 0 1 0 20 23.5 L 20 35 L 18 35 L 18 23.5 A 1.50015 1.50015 0 1 0 15 23.5 L 15 35 L 13 35 L 13 23.5 A 1.50015 1.50015 0 0 0 11.476562 21.978516 z M 7.5 40 A 1.50015 1.50015 0 1 0 7.5 43 L 40.5 43 A 1.50015 1.50015 0 1 0 40.5 40 L 7.5 40 z"/></svg>