<svg xmlns="http://www.w3.org/2000/svg" viewBox="0 0 48 48" width="48" height="48"><path d="M 26.998047 4 C 24.790047 4 23 5.7920469 23 7.9980469 C 23 10.208047 24.790047 12 26.998047 12 C 29.211047 12 31 10.208047 31 7.9980469 C 31 5.7920469 29.211047 4 26.998047 4 z M 23.998047 14 C 23.289455 14 22.633786 14.199867 22.056641 14.523438 C 21.929154 14.573758 21.799673 14.608149 21.673828 14.669922 A 1.50015 1.50015 0 0 0 21.654297 14.679688 L 14.818359 18.164062 A 1.50015 1.50015 0 0 0 14.328125 18.5625 L 10.328125 23.5625 A 1.5007322 1.5007322 0 1 0 12.671875 25.4375 L 16.435547 20.732422 L 19.318359 19.957031 L 18.105469 26.117188 C 18.093024 26.17225 18.08241 26.227309 18.072266 26.283203 L 18.042969 26.435547 L 18.056641 26.439453 C 18.030585 26.623728 18 26.806639 18 26.998047 C 18 28.292855 18.625172 29.432551 19.578125 30.164062 L 19.574219 30.169922 L 19.708984 30.271484 C 19.734292 30.289262 19.75747 30.308971 19.783203 30.326172 L 26 35 L 30.169922 43.222656 L 30.173828 43.203125 A 1.50015 1.50015 0 0 0 32.904297 41.972656 L 29.904297 33.972656 A 1.50015 1.50015 0 0 0 29.660156 33.552734 L 29.65625 33.546875 L 25.884766 28.425781 L 27.265625 21.361328 L 28.9375 23.826172 L 29.226562 24.292969 A 1.50015 1.50015 0 0 0 29.830078 24.841797 L 35.830078 27.841797 A 1.50015 1.50015 0 1 0 37.169922 25.158203 L 31.550781 22.347656 L 27.78125 16.289062 L 27.779297 16.287109 C 27.545174 15.902866 27.250001 15.567088 26.914062 15.277344 C 26.184061 14.496332 25.153598 14 23.998047 14 z M 18.462891 31.908203 L 17.564453 36.201172 L 13.505859 41.373047 L 13.439453 41.439453 A 1.50015 1.50015 0 1 0 15.560547 43.560547 L 20.560547 38.560547 A 1.50015 1.50015 0 0 0 20.990234 37.738281 L 22.310547 34.751953 L 18.462891 31.908203 z"/></svg>