<svg id="svg" version="1.1" xmlns="http://www.w3.org/2000/svg" xmlns:xlink="http://www.w3.org/1999/xlink" width="400" height="400" viewBox="0, 0, 400,400"><g id="svgg"><path id="path0" d="M214.443 51.362 C 181.209 63.218,185.093 110.806,219.763 116.551 C 250.994 121.726,270.976 84.086,249.611 60.323 C 241.628 51.444,225.637 47.369,214.443 51.362 M172.656 114.610 C 117.197 116.855,107.717 118.862,100.067 129.980 C 96.829 134.687,78.915 181.526,78.910 185.301 C 78.903 190.631,81.743 195.329,86.109 197.206 L 88.233 198.120 83.476 201.584 C 47.155 228.034,39.071 282.884,65.785 321.628 C 100.287 371.667,179.090 370.149,211.039 318.829 C 212.917 315.813,214.629 313.334,214.844 313.321 C 215.059 313.307,221.563 319.142,229.297 326.287 C 248.569 344.090,243.100 342.181,274.843 342.185 C 306.473 342.188,308.594 341.659,308.594 333.772 C 308.594 325.357,307.373 325.000,278.604 325.000 L 253.981 325.000 237.897 310.087 C 226.556 299.571,221.924 294.791,222.188 293.876 C 222.395 293.162,223.008 290.996,223.552 289.063 C 224.167 286.874,224.554 280.462,224.575 272.072 L 224.609 258.597 237.109 258.615 L 249.609 258.633 264.453 281.015 C 283.878 310.306,286.103 313.303,289.996 315.430 C 298.070 319.840,307.668 314.558,308.393 305.306 C 308.701 301.381,307.969 299.413,293.913 266.369 C 274.101 219.791,277.001 223.996,263.470 222.220 C 246.636 220.010,206.895 214.186,206.594 213.886 C 206.294 213.586,214.765 163.718,216.451 155.859 C 220.780 135.682,201.730 113.153,181.250 114.229 C 179.746 114.308,175.879 114.480,172.656 114.610 M132.552 147.426 L 141.346 150.320 140.955 161.684 C 140.740 167.933,140.379 175.198,140.153 177.826 L 139.742 182.606 132.175 183.140 C 124.542 183.678,115.005 185.589,108.667 187.851 C 106.774 188.526,105.054 188.908,104.845 188.699 C 104.392 188.246,120.101 146.917,121.262 145.508 C 122.392 144.135,122.729 144.193,132.552 147.426 M152.344 210.598 C 199.945 222.464,215.380 282.536,179.461 316.136 C 140.048 353.005,75.781 324.843,75.781 270.703 C 75.781 230.610,113.582 200.935,152.344 210.598 M132.422 258.877 C 119.916 264.689,123.800 283.594,137.500 283.594 C 150.156 283.594,154.804 267.634,144.394 259.924 C 141.749 257.965,135.550 257.423,132.422 258.877 " stroke="none" fill="#000000" fill-rule="evenodd"></path></g></svg>