<svg xmlns="http://www.w3.org/2000/svg" width="512" height="512" viewBox="0 0 48 48"><path d="M 42.470703 3.9863281 A 1.50015 1.50015 0 0 0 41.439453 4.4394531 L 4.4394531 41.439453 A 1.50015 1.50015 0 1 0 6.5605469 43.560547 L 11.121094 39 L 39 39 C 43.96 39 48 34.96 48 30 C 48 25.04 43.96 21 39 21 L 38.419922 21 C 38.155675 18.506174 37.257298 16.195379 35.884766 14.236328 L 43.560547 6.5605469 A 1.50015 1.50015 0 0 0 42.470703 3.9863281 z M 24 8 C 16.51 8 10.330078 13.71 9.5800781 21 L 9 21 C 4.04 21 0 25.04 0 30 C 0 33.15 1.6296094 35.939063 4.0996094 37.539062 L 6.2890625 35.349609 C 4.3390625 34.359609 3 32.34 3 30 C 3 26.69 5.69 24 9 24 L 11 24 C 11.83 24 12.5 23.33 12.5 22.5 C 12.5 16.16 17.66 11 24 11 C 25.92 11 27.730078 11.470547 29.330078 12.310547 L 31.529297 10.109375 C 29.329297 8.769375 26.75 8 24 8 z M 33.724609 16.396484 C 34.843193 18.169611 35.5 20.254161 35.5 22.5 C 35.5 23.33 36.17 24 37 24 L 39 24 C 42.31 24 45 26.69 45 30 C 45 33.31 42.31 36 39 36 L 14.121094 36 L 33.724609 16.396484 z"/></svg>