<svg xmlns="http://www.w3.org/2000/svg" xmlns:xlink="http://www.w3.org/1999/xlink" id="svg" width="400" height="400" viewBox="0 0 400 400"><g id="svgg"><path id="path0" fill="#000" fill-rule="evenodd" stroke="none" d="M57.914 41.467 C 49.532 44.022,50.000 34.155,50.000 208.333 C 50.000 389.989,48.930 375.667,62.500 375.667 C 74.919 375.667,75.000 375.321,75.000 322.242 L 75.000 275.000 209.742 275.000 C 338.161 275.000,344.613 274.857,347.242 271.952 C 351.685 267.043,351.445 48.491,346.993 44.462 C 344.198 41.933,65.847 39.050,57.914 41.467 M133.333 95.833 L 133.333 125.000 166.667 125.000 L 200.000 125.000 200.000 95.833 L 200.000 66.667 233.333 66.667 L 266.667 66.667 266.667 95.833 L 266.667 125.000 295.833 125.000 L 325.000 125.000 325.000 158.333 L 325.000 191.667 295.833 191.667 L 266.667 191.667 266.667 220.833 L 266.667 250.000 233.333 250.000 L 200.000 250.000 200.000 220.833 L 200.000 191.667 166.667 191.667 L 133.333 191.667 133.333 220.833 L 133.333 250.000 104.167 250.000 L 75.000 250.000 75.000 220.833 L 75.000 191.667 104.167 191.667 L 133.333 191.667 133.333 158.333 L 133.333 125.000 104.167 125.000 L 75.000 125.000 75.000 95.833 L 75.000 66.667 104.167 66.667 L 133.333 66.667 133.333 95.833 M200.000 158.333 L 200.000 191.667 233.333 191.667 L 266.667 191.667 266.667 158.333 L 266.667 125.000 233.333 125.000 L 200.000 125.000 200.000 158.333"/></g></svg>