<svg xmlns="http://www.w3.org/2000/svg" xmlns:xlink="http://www.w3.org/1999/xlink" id="svg" width="400" height="400" viewBox="0 0 400 400"><g id="svgg"><path id="path0" fill="#000" fill-rule="evenodd" stroke="none" d="M171.792 35.048 C 68.702 56.630,22.744 182.110,88.181 263.333 C 113.519 294.784,174.366 359.396,182.232 363.204 C 192.010 367.937,208.025 367.920,217.846 363.166 C 226.099 359.170,284.173 297.454,311.786 263.333 C 352.379 213.172,351.493 132.941,309.806 84.167 C 276.265 44.923,220.102 24.935,171.792 35.048 M229.925 63.553 C 298.865 81.814,334.601 158.697,304.449 223.886 C 297.955 237.926,291.828 245.714,255.709 285.833 C 198.410 349.479,201.426 347.628,184.427 329.583 C 129.710 271.502,102.739 239.426,95.551 223.886 C 54.374 134.862,135.172 38.455,229.925 63.553 M183.323 126.464 C 142.355 139.840,137.578 199.850,175.833 220.558 C 185.590 225.839,214.410 225.839,224.167 220.558 C 259.368 201.503,258.875 147.300,223.333 129.036 C 216.895 125.728,190.729 124.046,183.323 126.464 M216.274 157.372 C 232.205 171.971,221.731 198.333,200.000 198.333 C 184.165 198.333,177.500 191.421,177.500 175.000 C 177.500 158.579,184.165 151.667,200.000 151.667 C 209.118 151.667,210.626 152.195,216.274 157.372"/></g></svg>