<svg xmlns="http://www.w3.org/2000/svg" xmlns:xlink="http://www.w3.org/1999/xlink" id="svg" width="400" height="400" viewBox="0 0 400 400"><g id="svgg"><path id="path0" fill="#000" fill-rule="evenodd" stroke="none" d="M190.460 45.417 C 188.560 47.479,177.559 68.089,166.014 91.216 C 149.298 124.698,144.256 133.440,141.261 134.129 C 139.192 134.604,115.432 138.371,88.460 142.500 C 16.306 153.546,16.635 152.419,69.964 205.820 L 106.594 242.500 99.130 290.679 C 86.489 372.279,84.950 371.043,154.283 335.001 C 178.969 322.168,199.604 311.668,200.139 311.667 C 200.674 311.667,221.236 322.167,245.833 335.000 C 315.041 371.109,313.519 372.334,300.870 290.679 L 293.406 242.500 330.036 205.820 C 383.423 152.360,383.723 153.384,311.441 142.377 C 284.524 138.278,260.808 134.551,258.739 134.094 C 255.733 133.431,250.765 124.826,233.986 91.216 C 210.463 44.096,208.797 41.667,200.000 41.667 C 195.824 41.667,192.831 42.843,190.460 45.417 M217.533 120.105 C 238.188 161.627,232.146 157.196,277.618 164.177 C 298.637 167.405,317.994 170.491,320.636 171.036 C 325.317 172.003,324.696 172.770,296.052 201.447 C 261.349 236.191,263.968 227.159,272.555 282.500 C 275.793 303.371,278.230 320.595,277.971 320.777 C 277.712 320.959,261.375 312.628,241.667 302.264 C 196.710 278.624,203.289 278.621,158.333 302.310 C 138.625 312.695,122.288 321.025,122.029 320.820 C 121.770 320.614,124.207 303.371,127.445 282.500 C 136.032 227.159,138.651 236.191,103.948 201.447 C 75.304 172.770,74.683 172.003,79.364 171.036 C 82.006 170.491,101.363 167.405,122.382 164.177 C 167.854 157.196,161.812 161.627,182.467 120.105 C 191.615 101.714,199.505 86.667,200.000 86.667 C 200.495 86.667,208.385 101.714,217.533 120.105"/></g></svg>