<svg xmlns="http://www.w3.org/2000/svg" xmlns:xlink="http://www.w3.org/1999/xlink" id="svg" width="400" height="400" viewBox="0 0 400 400"><g id="svgg"><path id="path0" fill="#000" fill-rule="evenodd" stroke="none" d="M213.515 34.378 C 196.313 39.380,186.207 63.528,194.123 80.714 C 209.363 113.798,258.509 102.893,258.509 66.429 C 258.509 42.958,236.912 27.574,213.515 34.378 M190.335 117.235 C 187.769 118.022,170.953 126.197,152.966 135.404 L 120.263 152.143 101.560 175.534 C 80.520 201.849,78.985 205.738,86.623 213.377 C 95.799 222.552,100.536 219.863,121.481 193.583 L 137.412 173.595 148.706 170.512 C 154.918 168.817,160.000 167.578,160.000 167.759 C 160.000 167.940,157.750 179.234,155.000 192.857 C 145.512 239.861,145.499 239.834,191.920 274.286 L 215.981 292.143 233.651 327.381 C 243.898 347.816,252.677 363.570,254.550 364.881 C 263.199 370.939,275.714 364.733,275.714 354.386 C 275.714 352.766,269.740 335.515,262.437 316.050 L 249.160 280.658 233.151 258.970 C 224.347 247.042,217.143 236.546,217.143 235.646 C 217.143 234.746,219.493 221.833,222.365 206.951 L 227.588 179.892 236.231 192.944 L 244.875 205.996 273.138 220.141 C 305.357 236.265,308.941 236.992,315.312 228.695 C 322.848 218.879,316.430 211.615,287.593 197.326 L 263.457 185.366 247.819 160.183 C 222.884 120.028,210.767 110.975,190.335 117.235 M151.525 273.214 C 145.282 303.059,147.193 299.078,126.300 325.774 C 105.287 352.623,104.303 354.977,110.841 362.748 C 118.969 372.406,122.860 370.500,149.928 343.601 C 173.676 320.001,181.679 308.224,186.022 290.480 C 186.391 288.972,156.392 265.714,154.077 265.714 C 153.536 265.714,152.388 269.089,151.525 273.214"/></g></svg>