<svg id="svg" xmlns="http://www.w3.org/2000/svg" xmlns:xlink="http://www.w3.org/1999/xlink" width="400" height="400" viewBox="0, 0, 400,400"><g id="svgg"><path id="path0" d="M244.425 61.381 C 239.874 66.410,241.210 74.825,250.640 100.535 L 259.614 125.000 209.002 125.000 L 158.389 125.000 154.167 116.667 L 149.944 108.333 159.714 108.333 C 174.439 108.333,181.662 95.921,172.353 86.612 C 167.150 81.410,107.960 81.300,102.776 86.483 C 94.264 94.996,100.407 108.333,112.840 108.333 L 120.164 108.333 126.136 120.909 C 130.445 129.982,131.699 134.323,130.638 136.496 C 118.984 160.350,102.180 186.442,99.167 185.362 C 90.065 182.099,59.391 184.189,49.532 188.744 C 4.156 209.708,-6.183 271.185,29.883 305.586 C 62.921 337.099,119.408 329.248,141.419 290.084 L 145.213 283.333 128.730 283.333 C 113.451 283.333,111.971 283.628,108.460 287.365 C 83.698 313.723,35.000 291.715,35.000 254.167 C 35.000 228.155,60.201 205.283,83.742 209.930 L 88.317 210.833 77.492 229.781 C 65.794 250.257,63.868 258.617,69.645 263.845 C 74.518 268.255,209.198 268.294,213.328 263.887 C 214.902 262.208,228.765 238.708,244.135 211.667 C 259.505 184.625,272.262 162.288,272.483 162.029 C 272.705 161.771,275.312 168.288,278.278 176.512 L 283.670 191.466 272.657 201.768 C 235.755 236.287,244.651 296.671,289.900 318.816 C 306.341 326.862,335.326 326.862,351.767 318.816 C 405.035 292.747,405.035 215.266,351.767 189.600 C 342.420 185.097,338.535 184.234,325.000 183.652 L 309.167 182.972 291.667 134.721 C 282.042 108.183,273.917 85.764,273.611 84.901 C 273.301 84.027,277.793 83.333,283.769 83.333 C 296.328 83.333,300.667 80.124,300.667 70.833 C 300.667 59.635,297.559 58.333,270.833 58.333 C 250.038 58.333,246.850 58.701,244.425 61.381 M227.397 186.245 C 216.011 206.180,206.126 222.650,205.431 222.845 C 204.371 223.142,188.119 189.960,173.782 158.228 L 170.065 150.000 209.083 150.000 L 248.101 150.000 227.397 186.245 M158.618 189.583 C 165.072 203.104,173.224 220.354,176.735 227.917 L 183.118 241.667 166.751 241.667 L 150.384 241.667 147.560 232.917 C 143.959 221.759,138.354 212.155,131.815 205.938 C 128.984 203.246,126.667 200.412,126.667 199.640 C 126.667 198.047,145.395 165.000,146.297 165.000 C 146.620 165.000,152.165 176.063,158.618 189.583 M340.763 214.245 C 372.586 229.346,372.508 279.024,340.637 294.148 C 305.303 310.915,267.732 278.698,278.358 240.744 C 280.281 233.877,292.015 218.049,293.737 220.000 C 294.141 220.458,297.704 229.833,301.655 240.833 C 310.233 264.723,311.655 266.667,320.544 266.667 C 335.214 266.667,336.711 257.908,326.667 230.833 C 323.000 220.949,320.000 211.940,320.000 210.813 C 320.000 208.253,332.485 210.317,340.763 214.245 M118.357 233.380 C 122.763 242.017,123.048 241.667,111.628 241.667 L 101.590 241.667 104.128 237.500 C 105.524 235.208,107.825 231.434,109.240 229.114 C 112.329 224.048,113.994 224.828,118.357 233.380 " stroke="none" fill="#000000" fill-rule="evenodd"></path></g></svg>