<svg xmlns="http://www.w3.org/2000/svg" xmlns:xlink="http://www.w3.org/1999/xlink" id="svg" width="400" height="400" viewBox="0 0 400 400"><g id="svgg"><path id="path0" fill="#000" fill-rule="evenodd" stroke="none" d="M138.203 53.790 C 127.545 60.972,125.000 66.875,125.000 84.413 L 125.000 100.000 88.580 100.000 C 47.823 100.000,45.643 100.559,37.123 113.203 L 33.333 118.826 33.333 229.167 L 33.333 339.507 37.123 345.131 C 39.207 348.223,43.443 352.459,46.536 354.544 L 52.160 358.333 200.000 358.333 L 347.840 358.333 353.464 354.544 C 356.557 352.459,360.793 348.223,362.877 345.131 L 366.667 339.507 366.667 229.167 L 366.667 118.826 362.877 113.203 C 354.357 100.559,352.177 100.000,311.420 100.000 L 275.000 100.000 275.000 84.413 C 275.000 66.875,272.455 60.972,261.797 53.790 C 252.986 47.852,147.014 47.852,138.203 53.790 M247.381 77.619 C 249.173 79.411,250.000 83.359,250.000 90.119 L 250.000 100.000 200.000 100.000 L 150.000 100.000 150.000 90.119 C 150.000 74.402,148.022 75.000,200.000 75.000 C 238.470 75.000,245.130 75.368,247.381 77.619 M339.048 127.619 C 341.324 129.896,341.667 137.525,341.667 185.952 L 341.667 241.667 283.333 241.667 L 225.000 241.667 225.000 236.381 C 225.000 226.455,221.841 225.000,200.290 225.000 C 178.418 225.000,175.000 226.499,175.000 236.092 L 175.000 241.667 116.667 241.667 L 58.333 241.667 58.333 185.952 C 58.333 137.525,58.676 129.896,60.952 127.619 C 64.946 123.626,335.054 123.626,339.048 127.619 M175.000 271.952 C 175.000 281.878,178.159 283.333,199.710 283.333 C 221.582 283.333,225.000 281.834,225.000 272.242 L 225.000 266.667 283.333 266.667 L 341.667 266.667 341.667 297.381 C 341.667 323.081,341.239 328.523,339.048 330.714 C 335.054 334.708,64.946 334.708,60.952 330.714 C 58.761 328.523,58.333 323.081,58.333 297.381 L 58.333 266.667 116.667 266.667 L 175.000 266.667 175.000 271.952"/></g></svg>