<svg id="svg" xmlns="http://www.w3.org/2000/svg" xmlns:xlink="http://www.w3.org/1999/xlink" width="400" height="400" viewBox="0, 0, 400,400"><g id="svgg"><path id="path0" d="M244.425 61.381 C 239.844 66.443,241.222 74.827,251.041 101.641 C 260.037 126.208,260.289 127.334,257.291 129.542 C 250.919 134.234,188.643 171.665,187.264 171.632 C 186.477 171.613,178.206 157.550,168.883 140.382 L 151.933 109.167 160.779 108.672 C 174.614 107.899,181.162 95.421,172.353 86.612 C 167.150 81.410,107.960 81.300,102.776 86.483 C 94.141 95.119,100.407 108.309,113.175 108.370 L 120.833 108.407 142.189 147.708 C 153.935 169.324,163.310 187.170,163.023 187.366 C 162.735 187.562,155.626 191.898,147.224 197.003 L 131.949 206.283 126.391 200.536 C 110.327 183.923,72.311 178.069,49.532 188.699 C -5.277 214.277,-5.277 294.219,49.532 319.600 C 58.576 323.788,60.926 324.098,87.857 324.667 L 116.548 325.274 120.861 334.720 C 131.062 357.061,147.633 366.663,175.992 366.665 C 196.775 366.667,200.000 365.138,200.000 355.285 L 200.000 350.000 213.908 350.000 C 229.925 350.000,234.000 347.465,234.000 337.500 C 234.000 327.535,229.925 325.000,213.908 325.000 L 200.000 325.000 200.000 312.500 L 200.000 300.000 213.908 300.000 C 229.925 300.000,234.000 297.465,234.000 287.500 C 234.000 277.535,229.925 275.000,213.908 275.000 L 200.000 275.000 200.000 269.425 C 200.000 259.933,196.496 258.333,175.702 258.335 C 147.598 258.337,131.025 268.021,120.798 290.417 L 116.422 300.000 99.272 300.000 C 56.856 300.000,37.332 286.947,35.325 257.248 C 32.827 220.261,73.991 196.129,103.845 217.079 L 108.523 220.362 89.792 231.794 C 64.222 247.398,59.968 254.042,69.463 263.537 C 77.142 271.216,78.148 270.721,176.338 210.928 C 226.982 180.088,269.042 155.241,269.805 155.713 C 270.568 156.184,273.992 164.429,277.414 174.034 L 283.636 191.498 272.640 201.784 C 235.756 236.287,244.662 296.677,289.900 318.816 C 306.341 326.862,335.326 326.862,351.767 318.816 C 405.035 292.747,405.035 215.266,351.767 189.600 C 342.420 185.097,338.535 184.234,325.000 183.652 L 309.167 182.972 291.667 134.721 C 282.042 108.183,273.917 85.764,273.611 84.901 C 273.301 84.027,277.793 83.333,283.769 83.333 C 296.328 83.333,300.667 80.124,300.667 70.833 C 300.667 59.635,297.559 58.333,270.833 58.333 C 250.038 58.333,246.850 58.701,244.425 61.381 M340.763 214.245 C 372.586 229.346,372.508 279.024,340.637 294.148 C 305.303 310.915,267.732 278.698,278.358 240.744 C 280.281 233.877,292.015 218.049,293.737 220.000 C 294.141 220.458,297.704 229.833,301.655 240.833 C 310.233 264.723,311.655 266.667,320.544 266.667 C 335.214 266.667,336.711 257.908,326.667 230.833 C 323.000 220.949,320.000 211.940,320.000 210.813 C 320.000 208.253,332.485 210.317,340.763 214.245 M174.667 312.544 L 174.667 341.755 168.583 340.655 C 132.375 334.106,135.825 286.791,172.750 283.504 C 174.128 283.381,174.667 291.542,174.667 312.544 " stroke="none" fill="#000000" fill-rule="evenodd"></path></g></svg>