<svg id="svg" xmlns="http://www.w3.org/2000/svg" xmlns:xlink="http://www.w3.org/1999/xlink" width="400" height="400" viewBox="0, 0, 400,400"><g id="svgg"><path id="path0" d="M190.649 27.792 C 187.656 30.786,187.143 32.638,187.143 40.453 L 187.143 49.608 176.071 51.350 C 112.320 61.384,61.384 112.320,51.350 176.071 L 49.608 187.143 40.713 187.143 C 29.608 187.143,24.286 191.304,24.286 199.986 C 24.286 208.912,29.240 212.857,40.450 212.857 L 49.608 212.857 51.350 223.929 C 61.371 287.599,112.401 338.629,176.071 348.650 L 187.143 350.392 187.143 359.287 C 187.143 370.392,191.304 375.714,199.986 375.714 C 208.912 375.714,212.857 370.760,212.857 359.550 L 212.857 350.392 223.929 348.650 C 287.676 338.617,338.617 287.676,348.650 223.929 L 350.392 212.857 359.287 212.857 C 369.756 212.857,375.714 208.607,375.714 201.140 C 375.714 191.452,370.734 187.249,359.185 187.188 L 350.512 187.143 348.888 176.692 C 339.078 113.593,289.632 63.084,226.786 51.967 L 212.857 49.503 212.857 40.397 C 212.857 25.585,200.098 18.343,190.649 27.792 M187.143 84.920 C 187.143 95.514,191.341 100.649,200.000 100.649 C 208.659 100.649,212.857 95.514,212.857 84.920 C 212.857 75.434,214.242 75.153,233.478 80.727 C 275.623 92.940,307.060 124.377,319.273 166.522 C 324.847 185.758,324.566 187.143,315.080 187.143 C 304.486 187.143,299.351 191.341,299.351 200.000 C 299.351 208.659,304.486 212.857,315.080 212.857 C 324.566 212.857,324.847 214.242,319.273 233.478 C 307.060 275.623,275.623 307.060,233.478 319.273 C 214.242 324.847,212.857 324.566,212.857 315.080 C 212.857 304.420,208.860 299.610,200.000 299.610 C 191.140 299.610,187.143 304.420,187.143 315.080 C 187.143 324.566,185.758 324.847,166.522 319.273 C 124.377 307.060,92.940 275.623,80.727 233.478 C 75.153 214.242,75.434 212.857,84.920 212.857 C 95.580 212.857,100.390 208.860,100.390 200.000 C 100.390 191.140,95.580 187.143,84.920 187.143 C 75.434 187.143,75.153 185.758,80.727 166.522 C 94.197 120.042,142.248 77.878,182.500 77.219 L 187.143 77.143 187.143 84.920 " stroke="none" fill="#000000" fill-rule="evenodd"></path></g></svg>