<svg xmlns="http://www.w3.org/2000/svg" xmlns:xlink="http://www.w3.org/1999/xlink" id="svg" width="400" height="400" viewBox="0 0 400 400"><g id="svgg"><path id="path0" fill="#000" fill-rule="evenodd" stroke="none" d="M80.833 54.804 C 68.659 60.648,59.929 69.481,54.281 81.667 L 50.033 90.833 50.018 200.000 L 50.003 309.167 54.804 319.167 C 60.648 331.341,69.481 340.071,81.667 345.719 L 90.833 349.967 200.000 349.982 L 309.167 349.997 319.167 345.196 C 331.341 339.352,340.071 330.519,345.719 318.333 L 349.967 309.167 349.967 200.000 L 349.967 90.833 345.719 81.667 C 340.071 69.481,331.341 60.648,319.167 54.804 L 309.167 50.003 200.000 50.003 L 90.833 50.003 80.833 54.804 M307.718 78.690 C 324.546 87.903,324.167 85.067,324.167 201.667 C 324.167 313.326,324.699 307.681,313.265 317.302 C 305.138 324.141,304.707 324.167,200.000 324.167 C 85.258 324.167,87.891 324.524,78.690 307.718 C 75.673 302.207,73.257 130.442,75.846 105.476 C 77.424 90.249,85.691 79.743,98.538 76.639 C 110.792 73.678,301.987 75.553,307.718 78.690 M152.849 119.614 C 148.031 124.938,148.401 284.142,153.243 288.983 C 157.528 293.268,166.987 293.402,171.584 289.242 C 174.752 286.374,175.000 284.246,175.000 259.891 L 175.000 233.632 200.417 233.017 C 223.252 232.465,226.680 231.989,234.167 228.338 C 277.505 207.200,277.505 142.977,234.167 121.620 C 222.425 115.834,157.715 114.238,152.849 119.614 M221.667 145.768 C 234.074 152.079,240.000 161.527,240.000 175.000 C 240.000 197.439,227.418 206.749,195.417 207.991 L 175.000 208.783 175.000 175.000 L 175.000 141.217 195.417 142.009 C 210.471 142.594,217.365 143.581,221.667 145.768"/></g></svg>