<svg xmlns="http://www.w3.org/2000/svg" xmlns:xlink="http://www.w3.org/1999/xlink" id="svg" width="400" height="400" viewBox="0 0 400 400"><g id="svgg"><path id="path0" fill="#000" fill-rule="evenodd" stroke="none" d="M195.151 41.815 C 186.691 45.201,186.776 44.427,186.720 117.917 L 186.667 186.667 117.917 186.720 C 64.154 186.761,48.545 187.245,46.316 188.939 C 41.853 192.329,39.814 199.293,41.773 204.448 C 45.163 213.362,43.965 213.223,117.917 213.280 L 186.667 213.333 186.720 282.083 C 186.777 356.035,186.638 354.837,195.552 358.227 C 200.707 360.186,207.671 358.147,211.061 353.684 C 212.755 351.455,213.239 335.846,213.280 282.083 L 213.333 213.333 282.083 213.280 C 356.035 213.223,354.837 213.362,358.227 204.448 C 360.186 199.293,358.147 192.329,353.684 188.939 C 351.455 187.245,335.846 186.761,282.083 186.720 L 213.333 186.667 213.333 117.814 C 213.333 44.872,212.986 41.667,205.071 41.667 C 204.265 41.667,202.607 41.339,201.386 40.938 C 200.166 40.537,197.360 40.932,195.151 41.815"/></g></svg>