<svg id="svg" xmlns="http://www.w3.org/2000/svg" xmlns:xlink="http://www.w3.org/1999/xlink" width="400" height="400" viewBox="0, 0, 400,400"><g id="svgg"><path id="path0" d="M139.351 53.295 C 44.693 78.805,17.789 201.973,93.216 264.498 C 132.498 297.060,191.257 301.054,234.894 274.126 L 247.288 266.479 289.231 308.397 C 335.321 354.461,337.893 356.181,347.039 347.035 C 356.241 337.833,354.770 335.630,308.573 289.406 L 266.479 247.288 274.126 234.894 C 331.369 142.130,244.423 24.978,139.351 53.295 M203.358 82.016 C 274.632 107.964,287.257 203.521,225.270 247.865 C 162.968 292.435,76.667 247.751,76.667 170.923 C 76.667 104.764,141.286 59.417,203.358 82.016 " stroke="none" fill="#000000" fill-rule="evenodd"></path></g></svg>