<svg id="svg" xmlns="http://www.w3.org/2000/svg" xmlns:xlink="http://www.w3.org/1999/xlink" width="400" height="400" viewBox="0, 0, 400,400"><g id="svgg"><path id="path0" d="M12.290 1.048 C -0.407 3.901,-4.125 22.949,6.039 33.072 L 12.500 39.506 32.500 40.665 C 52.740 41.838,54.930 42.211,75.833 48.041 C 89.235 51.779,96.476 54.629,111.667 62.142 C 123.272 67.882,123.167 67.817,131.074 74.142 C 133.956 76.447,136.956 78.348,137.741 78.366 C 138.525 78.384,143.018 82.043,147.726 86.497 C 152.434 90.951,156.934 94.874,157.726 95.214 C 159.491 95.973,178.021 117.376,182.550 123.887 C 190.645 135.524,205.000 163.061,205.000 166.951 C 205.000 168.220,206.299 171.113,207.886 173.379 C 209.474 175.646,210.625 177.875,210.444 178.333 C 210.264 178.792,210.796 181.792,211.627 185.000 C 215.935 201.624,218.292 215.812,219.242 230.833 C 220.388 248.948,222.110 252.483,232.254 257.543 C 253.082 267.934,263.932 243.446,255.903 204.167 C 254.591 197.750,253.005 188.563,252.378 183.750 C 251.750 178.938,250.754 175.000,250.164 175.000 C 249.574 175.000,248.106 170.761,246.901 165.579 C 245.696 160.398,244.085 154.960,243.319 153.496 C 242.554 152.031,239.156 144.833,235.767 137.500 C 232.378 130.167,229.089 123.792,228.458 123.333 C 227.827 122.875,226.347 120.117,225.170 117.204 C 223.992 114.291,221.597 110.612,219.848 109.029 C 218.098 107.446,216.667 105.272,216.667 104.199 C 216.667 103.126,214.792 100.486,212.500 98.333 C 210.208 96.180,208.333 93.536,208.333 92.457 C 208.333 90.018,170.105 51.677,167.633 51.638 C 166.643 51.622,164.067 49.747,161.908 47.471 C 159.750 45.195,156.974 43.333,155.741 43.333 C 154.508 43.333,152.899 42.378,152.166 41.210 C 149.342 36.711,115.555 18.929,102.500 15.071 C 98.833 13.988,94.333 12.418,92.500 11.582 C 78.535 5.219,25.015 -1.810,12.290 1.048 M6.590 101.250 C -10.594 116.605,1.815 135.379,30.274 137.082 C 38.559 137.578,47.015 139.095,50.113 140.640 C 53.083 142.121,56.225 143.333,57.097 143.333 C 65.689 143.333,99.704 169.524,102.483 178.280 C 103.074 180.143,104.186 181.667,104.953 181.667 C 109.978 181.667,121.169 214.855,123.384 236.326 C 124.893 250.946,127.736 256.667,133.493 256.667 C 135.130 256.667,136.933 257.417,137.500 258.333 C 140.586 263.327,154.473 256.931,160.084 247.932 C 165.002 240.045,160.942 204.989,153.265 189.057 C 151.469 185.330,150.000 181.018,150.000 179.474 C 150.000 177.930,149.341 176.667,148.536 176.667 C 147.730 176.667,146.070 174.229,144.846 171.250 C 142.296 165.042,137.338 157.411,132.500 152.249 C 130.667 150.293,127.012 145.680,124.378 141.998 C 121.744 138.316,117.056 133.940,113.961 132.273 C 110.866 130.606,108.333 128.790,108.333 128.237 C 108.333 127.684,104.985 124.827,100.892 121.888 C 71.201 100.565,19.917 89.342,6.590 101.250 " stroke="none" fill="#000000" fill-rule="evenodd"></path></g></svg>