<svg xmlns="http://www.w3.org/2000/svg" xmlns:xlink="http://www.w3.org/1999/xlink" id="svg" width="400" height="400" viewBox="0 0 400 400"><g id="svgg"><path id="path0" fill="#000" fill-rule="evenodd" stroke="none" d="M85.624 66.048 C 72.926 68.901,69.208 87.949,79.373 98.072 L 85.833 104.506 105.833 105.665 C 126.073 106.838,128.263 107.211,149.167 113.041 C 162.568 116.779,169.809 119.629,185.000 127.142 C 196.605 132.882,196.500 132.817,204.407 139.142 C 207.290 141.447,210.290 143.348,211.074 143.366 C 211.858 143.384,216.352 147.043,221.059 151.497 C 225.767 155.951,230.267 159.874,231.059 160.214 C 232.824 160.973,251.354 182.376,255.883 188.887 C 263.978 200.524,278.333 228.061,278.333 231.951 C 278.333 233.220,279.632 236.113,281.220 238.379 C 282.807 240.646,283.958 242.875,283.778 243.333 C 283.597 243.792,284.129 246.792,284.961 250.000 C 289.269 266.624,291.626 280.812,292.576 295.833 C 293.721 313.948,295.443 317.483,305.587 322.543 C 326.416 332.934,337.265 308.446,329.236 269.167 C 327.925 262.750,326.338 253.563,325.711 248.750 C 325.084 243.938,324.088 240.000,323.498 240.000 C 322.907 240.000,321.439 235.761,320.234 230.579 C 319.030 225.398,317.418 219.960,316.653 218.496 C 315.888 217.031,312.489 209.833,309.100 202.500 C 305.711 195.167,302.423 188.792,301.791 188.333 C 301.160 187.875,299.681 185.117,298.503 182.204 C 297.326 179.291,294.931 175.612,293.181 174.029 C 291.431 172.446,290.000 170.272,290.000 169.199 C 290.000 168.126,288.125 165.486,285.833 163.333 C 283.542 161.180,281.667 158.536,281.667 157.457 C 281.667 155.018,243.438 116.677,240.966 116.638 C 239.976 116.622,237.400 114.747,235.242 112.471 C 233.083 110.195,230.308 108.333,229.075 108.333 C 227.841 108.333,226.233 107.378,225.499 106.210 C 222.675 101.711,188.888 83.929,175.833 80.071 C 172.167 78.988,167.667 77.418,165.833 76.582 C 151.868 70.219,98.348 63.190,85.624 66.048 M79.923 166.250 C 62.740 181.605,75.148 200.379,103.607 202.082 C 111.893 202.578,120.349 204.095,123.447 205.640 C 126.416 207.121,129.559 208.333,130.431 208.333 C 139.023 208.333,173.037 234.524,175.816 243.280 C 176.408 245.143,177.519 246.667,178.286 246.667 C 183.311 246.667,194.502 279.855,196.718 301.326 C 198.226 315.946,201.069 321.667,206.827 321.667 C 208.464 321.667,210.267 322.417,210.833 323.333 C 213.919 328.327,227.806 321.931,233.417 312.932 C 238.335 305.045,234.275 269.989,226.598 254.057 C 224.803 250.330,223.333 246.018,223.333 244.474 C 223.333 242.930,222.674 241.667,221.869 241.667 C 221.063 241.667,219.403 239.229,218.179 236.250 C 215.629 230.042,210.671 222.411,205.833 217.249 C 204.000 215.293,200.345 210.680,197.711 206.998 C 195.077 203.316,190.390 198.940,187.294 197.273 C 184.199 195.606,181.667 193.790,181.667 193.237 C 181.667 192.684,178.318 189.827,174.226 186.888 C 144.534 165.565,93.250 154.342,79.923 166.250"/></g></svg>