<svg xmlns="http://www.w3.org/2000/svg" xmlns:xlink="http://www.w3.org/1999/xlink" id="svg" width="400" height="400" viewBox="0 0 400 400"><g id="svgg"><path id="path0" fill="#000" fill-rule="evenodd" stroke="none" d="M105.373 53.256 C 87.605 59.708,71.616 74.270,63.661 91.245 L 59.167 100.833 58.698 196.402 L 58.228 291.971 62.535 301.402 C 70.303 318.415,90.132 333.329,104.990 333.332 C 110.440 333.333,109.460 334.237,89.721 347.421 C 78.120 355.169,68.111 362.345,67.479 363.367 C 64.939 367.478,66.035 376.776,69.465 380.206 C 76.860 387.601,81.553 385.671,122.250 358.500 L 159.946 333.333 200.000 333.333 L 240.054 333.333 277.750 358.500 C 318.447 385.671,323.140 387.601,330.535 380.206 C 333.965 376.776,335.061 367.478,332.521 363.367 C 331.889 362.345,321.880 355.169,310.279 347.421 C 290.540 334.237,289.560 333.333,295.010 333.332 C 309.868 333.329,329.697 318.415,337.465 301.402 L 341.772 291.971 341.302 196.402 L 340.833 100.833 335.483 89.900 C 328.877 76.402,313.936 61.658,300.468 55.348 L 290.833 50.833 202.500 50.448 C 119.079 50.084,113.678 50.240,105.373 53.256 M285.000 78.228 C 298.041 83.346,308.513 93.851,313.352 106.667 C 314.894 110.752,315.769 125.612,316.272 156.250 L 316.991 200.000 200.162 200.000 L 83.333 200.000 83.343 162.917 C 83.360 98.700,90.334 83.192,122.112 76.711 C 134.374 74.210,278.176 75.549,285.000 78.228 M160.758 103.416 C 159.023 105.334,157.667 109.319,157.667 112.500 C 157.667 124.502,159.352 125.000,200.000 125.000 C 240.648 125.000,242.333 124.502,242.333 112.500 C 242.333 100.498,240.648 100.000,200.000 100.000 C 165.674 100.000,163.694 100.172,160.758 103.416 M316.361 255.417 C 315.153 310.212,321.212 307.500,200.000 307.500 C 78.788 307.500,84.847 310.212,83.639 255.417 L 82.968 225.000 200.000 225.000 L 317.032 225.000 316.361 255.417 M121.061 254.394 C 110.150 265.305,117.795 283.333,133.333 283.333 C 148.871 283.333,156.517 265.305,145.606 254.394 C 142.098 250.886,139.624 250.000,133.333 250.000 C 127.043 250.000,124.569 250.886,121.061 254.394 M254.394 254.394 C 250.886 257.902,250.000 260.376,250.000 266.667 C 250.000 272.957,250.886 275.431,254.394 278.939 C 257.902 282.448,260.376 283.333,266.667 283.333 C 282.205 283.333,289.850 265.305,278.939 254.394 C 275.431 250.886,272.957 250.000,266.667 250.000 C 260.376 250.000,257.902 250.886,254.394 254.394"/></g></svg>