<svg id="svg" xmlns="http://www.w3.org/2000/svg" xmlns:xlink="http://www.w3.org/1999/xlink" width="400" height="400" viewBox="0, 0, 400,400"><g id="svgg"><path id="path0" d="M134.167 69.791 C 58.323 115.755,51.832 121.870,50.271 148.823 C 49.125 168.614,32.784 166.667,200.000 166.667 C 367.216 166.667,350.875 168.614,349.729 148.823 C 348.908 134.642,343.729 123.487,333.253 113.333 C 321.310 101.758,207.091 33.320,199.817 33.381 C 195.446 33.418,180.588 41.658,134.167 69.791 M254.954 94.986 C 302.875 124.014,320.000 135.938,320.000 140.278 C 320.000 141.042,266.000 141.667,200.000 141.667 C 134.000 141.667,80.000 141.022,80.000 140.234 C 80.000 135.502,195.104 60.811,200.246 62.207 C 200.840 62.368,225.458 77.118,254.954 94.986 M187.727 96.061 C 181.464 102.324,181.464 114.343,187.727 120.606 C 193.991 126.869,206.009 126.869,212.273 120.606 C 218.536 114.343,218.536 102.324,212.273 96.061 C 208.765 92.552,206.290 91.667,200.000 91.667 C 193.710 91.667,191.235 92.552,187.727 96.061 M91.667 182.814 C 83.117 186.077,83.333 184.329,83.333 250.000 C 83.333 307.125,83.534 311.332,86.381 313.908 C 91.329 318.386,309.846 318.108,313.908 313.619 C 316.369 310.900,316.667 304.003,316.667 249.710 C 316.667 181.318,316.918 182.667,304.167 182.667 C 291.630 182.667,291.667 182.498,291.667 240.258 L 291.667 291.667 283.333 291.667 L 275.000 291.667 275.000 240.258 C 275.000 182.498,275.037 182.667,262.500 182.667 C 249.963 182.667,250.000 182.498,250.000 240.258 L 250.000 291.667 241.667 291.667 L 233.333 291.667 233.333 240.258 C 233.333 182.498,233.370 182.667,220.833 182.667 C 208.297 182.667,208.333 182.498,208.333 240.258 L 208.333 291.667 200.000 291.667 L 191.667 291.667 191.667 240.258 C 191.667 182.498,191.703 182.667,179.167 182.667 C 166.630 182.667,166.667 182.498,166.667 240.258 L 166.667 291.667 158.333 291.667 L 150.000 291.667 150.000 240.258 C 150.000 182.498,150.037 182.667,137.500 182.667 C 124.963 182.667,125.000 182.498,125.000 240.258 L 125.000 291.667 116.667 291.667 L 108.333 291.667 108.333 240.258 C 108.333 193.410,108.075 188.617,105.417 186.221 C 101.995 183.138,95.219 181.459,91.667 182.814 M52.425 336.750 C 48.433 341.160,48.433 350.506,52.425 354.917 C 57.302 360.306,342.698 360.306,347.575 354.917 C 351.567 350.506,351.567 341.160,347.575 336.750 C 344.504 333.356,343.535 333.333,200.000 333.333 C 56.465 333.333,55.496 333.356,52.425 336.750 " stroke="none" fill="#000000" fill-rule="evenodd"></path></g></svg>