<?xml version="1.0" encoding="UTF-8"?>
<svg width="60px" height="60px" viewBox="0 0 60 60" version="1.1" xmlns="http://www.w3.org/2000/svg" xmlns:xlink="http://www.w3.org/1999/xlink">
    <!-- Generator: Sketch 55.2 (78181) - https://sketchapp.com -->
    <title>HERE_logo_full@1x</title>
    <desc>Created with Sketch.</desc>
    <g id="HERE_logo_full" stroke="none" stroke-width="1" fill="none" fill-rule="evenodd">
        <g id="Watermark_3rdParty_Day" transform="translate(2.100000, 9.500000)">
            <g id="Watermark_3rdParty" transform="translate(6.085106, 2.222222)">
                <path d="M13.1816831,33.3333333 L7.97382027,38.563452 C7.54175084,38.9973679 6.84122788,38.9973679 6.40915845,38.563452 L0.877243561,33.0078964 C0.180261162,32.3079355 0.673892506,31.1111111 1.65957447,31.1111111 L10.0523595,31.1111111 L2.39741377,23.423452 C1.96527871,22.9894702 1.96535397,22.2858234 2.39758185,21.8519348 L4.97324143,19.2663793 C5.40530315,18.8326575 6.10562765,18.8326929 6.53764588,19.2664584 L9.91257487,22.6550367 C10.1966068,22.0764685 10.5980836,21.518081 11.0836265,21.0298814 C12.3274041,19.7807885 14.0337803,19.2465963 15.7272344,19.6487953 C15.4906325,17.7873723 16.1259995,15.9224471 17.6941855,14.3521846 C18.8952718,13.1491264 20.2614091,12.475537 21.6704917,12.3427886 C21.2840719,11.9059958 21.2997153,11.2367239 21.7170795,10.8187656 L24.0559732,8.47654338 C24.3175299,8.2146144 24.6796835,8.10982993 25.0217179,8.1676817 C25.2334981,6.89393087 26.0138197,5.86093498 26.9811764,5.32336074 C27.2921443,5.15055131 27.6563311,5.14232064 27.9652748,5.27970582 C28.252129,4.18442322 28.863243,3.14164006 29.7936753,2.20987672 C32.6129553,-0.613415596 36.2988621,-0.480706167 39.3304018,2.57269121 C39.503551,2.74733321 40.2403454,3.56935904 40.3859803,3.72590572 C40.7931096,4.16353954 40.7815971,4.84648672 40.3599509,5.27003017 L39.5648874,6.06867127 C39.7613957,6.07708785 39.958144,6.13823505 40.1334165,6.25642097 L42.0695868,7.56197652 C42.4802818,7.83890732 42.658019,8.35597861 42.5048965,8.82837511 C42.4254531,9.07346482 42.2609812,9.44994283 41.9882165,9.91684437 C41.5508245,10.6655447 40.9592204,11.4192244 40.2203354,12.105796 C37.0936905,15.2359555 33.2034175,15.0095862 30.1415153,11.9250064 C29.9249792,11.7071751 29.7216091,11.4829258 29.5320843,11.253022 C29.589585,11.6068707 29.7940402,11.9844612 30.1812521,12.3733279 L34.0204011,16.2299946 C34.4523642,16.6639287 34.4523138,17.3673581 34.0202884,17.8012298 L31.3439479,20.4890075 C31.0984418,20.7355629 30.7662667,20.8420204 30.4459168,20.808389 C30.4369098,20.862469 30.4238236,20.9163886 30.4065171,20.9697376 C30.3270673,21.2146493 30.1625968,21.5909085 29.8898541,22.0576492 C29.4525351,22.806027 28.86105,23.5596726 28.12222,24.2467243 C26.7521484,25.6189753 25.2274996,26.3519377 23.6834497,26.4711143 L23.7529201,26.5408577 C24.1851161,26.9747518 24.1851762,27.6783723 23.7530543,28.1123409 L21.1917777,30.6845631 C20.7598078,31.1183791 20.0594813,31.1184936 19.6273707,30.6848189 L16.2293085,27.274456 C15.405705,26.4494456 14.8388289,25.9944128 14.4642547,25.8343461 C14.3030088,25.7654409 14.3262467,25.7613111 14.2279411,25.859263 C13.9567756,26.1298724 13.9349464,26.2269841 14.0811974,26.5486146 C14.2444302,26.9075908 14.605972,27.385817 15.1896501,27.9821036 L18.6293947,31.436548 C19.3263771,32.136509 18.8327458,33.3333333 17.8470638,33.3333333 L13.1816831,33.3333333 Z" id="Logo" fill-opacity="0.7" fill="#FFFFFF" fill-rule="nonzero"></path>
                <path d="M39.5166809,7.17888889 L41.4528511,8.48444444 C41.4528511,8.48444444 41.0069787,9.86 39.439234,11.3188889 C36.6168511,14.1444444 33.407234,13.6411111 30.9245106,11.14 C30.2739574,10.4855556 29.7628085,9.77222222 29.4131915,9.02888889 C28.6674894,9.66555556 27.6053617,11.3577778 29.3988085,13.1588889 L33.2379574,17.0155556 L30.561617,19.7033333 L27.493617,16.6211111 L22.5702128,21.5655556 C24.5119149,23.5155556 26.3518298,20.92 27.418383,19.32 L29.3545532,20.6255556 C29.3545532,20.6255556 28.9086809,22 27.3409362,23.46 C24.856,25.9488889 22.071234,25.8533333 19.745617,24.0888889 L22.9707234,27.3266667 L20.4094468,29.8988889 L17.0106383,26.4877778 C15.2780426,24.7522222 14.2955745,24.2266667 13.4480851,25.0711111 C12.9009728,25.6171015 12.7070488,26.2014492 13.074787,27.0101669 C13.2975057,27.4999626 13.7262453,28.0720584 14.4073191,28.7677778 L17.8470638,32.2222222 L12.7234043,32.2222222 L3.17974468,22.6377778 L5.75540426,20.0522222 L10.6035745,24.92 C10.3701277,24.03 10.9388085,22.7477778 11.8659574,21.8155556 C13.066383,20.61 15.4926809,19.8188889 17.7253617,22.0611111 L18.067234,22.4011111 C16.3744681,20.1444444 16.2151489,17.4022222 18.4754894,15.1388889 C20.5864681,13.0244444 23.2174468,12.8333333 25.6581277,14.7788889 L22.4982979,11.6055556 L24.8371915,9.26333333 L26.5996596,10.7344444 C25.1845957,8.21 27.0709787,6.54333333 27.5168511,6.29555556 L29.0569362,8.05666667 C28.6022128,6.35444444 29.0115745,4.56222222 30.5748936,2.99666667 C32.9137872,0.654444444 35.8977021,0.688888889 38.546383,3.35666667 C38.8019574,3.61444444 39.1371915,4.01111111 39.5775319,4.48444444 L34.6651915,9.41888889 C36.6068936,11.3677778 38.451234,8.77888889 39.5166809,7.17888889 Z M20.8608511,20.10833 L23.1931064,17.7561078 C22.2150638,16.8016634 21.3421277,16.4372189 20.4813617,17.29833 C19.7732766,18.0094412 19.7179574,18.7438856 20.8608511,20.10833 Z M32.580766,5.15721894 C31.8704681,5.86833005 31.8129362,6.59721894 32.9558298,7.96166338 L35.2914043,5.61499672 C34.3133617,4.66055227 33.4404255,4.29610783 32.580766,5.15721894 Z" id="Logo" fill="#272C36"></path>
                <polygon id="Fill-4-Copy" fill="#2ED5C9" points="12.7234043 32.2222222 7.19148936 37.7777778 1.65957447 32.2222222"></polygon>
            </g>
        </g>
    </g>
</svg>