<?xml version="1.0" encoding="UTF-8"?>
<svg width="60px" height="60px" viewBox="0 0 60 60" version="1.1" xmlns="http://www.w3.org/2000/svg" xmlns:xlink="http://www.w3.org/1999/xlink">
    <!-- Generator: Sketch 55.2 (78181) - https://sketchapp.com -->
    <title>HERE_logo_full_inverted@1x</title>
    <desc>Created with Sketch.</desc>
    <g id="HERE_logo_full_inverted" stroke="none" stroke-width="1" fill="none" fill-rule="evenodd">
        <g id="Watermark_3rdParty_Sat" transform="translate(2.100000, 9.500000)">
            <path d="M14.0589267,40.7856742 C13.6268572,41.2195901 12.9263343,41.2195901 12.4942648,40.7856742 L6.96234994,35.2301186 C6.26536754,34.5301577 6.75899889,33.3333333 7.74468085,33.3333333 L16.1374658,33.3333333 L8.48252016,25.6456742 C8.05038509,25.2116924 8.05046035,24.5080456 8.48268824,24.074157 L11.0583478,21.4886015 C11.4904095,21.0548797 12.190734,21.0549151 12.6227523,21.4886806 L15.9976813,24.8772589 C16.2817132,24.2986907 16.68319,23.7403033 17.1687329,23.2521036 C18.4125105,22.0030107 20.1188867,21.4688185 21.8123407,21.8710175 C21.5757389,20.0095946 22.2111058,18.1446693 23.7792919,16.5744068 C24.9803782,15.3713486 26.3465155,14.6977592 27.7555981,14.5650109 C27.3691783,14.128218 27.3848216,13.4589461 27.8021859,13.0409878 L30.1410795,10.6987656 C30.4026363,10.4368366 30.7647899,10.3320522 31.1068242,10.3899039 C31.3186045,9.1161531 32.0989261,8.0831572 33.0662828,7.54558296 C33.3772507,7.37277353 33.7414375,7.36454286 34.0503811,7.50192804 C34.3372354,6.40664544 34.9483494,5.36386228 35.8787817,4.43209894 C38.6980617,1.60880663 42.3839685,1.74151606 45.4155081,4.79491344 C45.5886574,4.96955543 46.3254518,5.79158126 46.4710866,5.94812794 C46.8782159,6.38576176 46.8667035,7.06870894 46.4450573,7.4922524 L45.6499937,8.29089349 C45.8465021,8.29931008 46.0432504,8.36045728 46.2185229,8.47864319 L48.1546931,9.78419874 C48.5653882,10.0611295 48.7431254,10.5782008 48.5900029,11.0505973 C48.5105595,11.295687 48.3460876,11.6721651 48.0733229,12.1390666 C47.6359308,12.8877669 47.0443268,13.6414467 46.3054417,14.3280182 C43.1787969,17.4581777 39.2885238,17.2318084 36.2266217,14.1472286 C36.0100856,13.9293973 35.8067155,13.7051481 35.6171907,13.4752442 C35.6746914,13.829093 35.8791466,14.2066835 36.2663585,14.5955501 L40.1055074,18.4522168 C40.5374706,18.886151 40.5374201,19.5895803 40.1053947,20.023452 L37.4290543,22.7112298 C37.1835481,22.9577851 36.8513731,23.0642426 36.5310232,23.0306112 C36.5220162,23.0846912 36.50893,23.1386109 36.4916235,23.1919598 C36.4121737,23.4368715 36.2477032,23.8131307 35.9749605,24.2798714 C35.5376415,25.0282492 34.9461564,25.7818948 34.2073264,26.4689466 C32.8372548,27.8411975 31.312606,28.5741599 29.768556,28.6933365 L29.8380265,28.7630799 C30.2702224,29.196974 30.2702825,29.9005946 29.8381607,30.3345631 L27.2768841,32.9067853 C26.8449142,33.3406013 26.1445877,33.3407158 25.7124771,32.9070411 L22.3144148,29.4966783 C21.4908114,28.6716679 20.9239353,28.216635 20.5493611,28.0565683 C20.3881151,27.9876632 20.411353,27.9835333 20.3130475,28.0814852 C20.041882,28.3520947 20.0200527,28.4492064 20.1663038,28.7708368 C20.3295366,29.129813 20.6910784,29.6080392 21.2747564,30.2043258 L24.7145011,33.6587702 C25.4114835,34.3587312 24.9178522,35.5555556 23.9321702,35.5555556 L19.2667895,35.5555556 L14.0589267,40.7856742 Z" id="Logo" fill-opacity="0.7" fill="#0F1621" fill-rule="nonzero"></path>
            <g id="Watermark_3rdParty" stroke-width="1" fill-rule="evenodd" transform="translate(7.744681, 3.333333)">
                <path d="M37.8571064,6.06777778 L39.7932766,7.37333333 C39.7932766,7.37333333 39.3474043,8.74888889 37.7796596,10.2077778 C34.9572766,13.0333333 31.7476596,12.53 29.2649362,10.0288889 C28.614383,9.37444444 28.103234,8.66111111 27.753617,7.91777778 C27.0079149,8.55444444 25.9457872,10.2466667 27.739234,12.0477778 L31.578383,15.9044444 L28.9020426,18.5922222 L25.8340426,15.51 L20.9106383,20.4544444 C22.8523404,22.4044444 24.6922553,19.8088889 25.7588085,18.2088889 L27.6949787,19.5144444 C27.6949787,19.5144444 27.2491064,20.8888889 25.6813617,22.3488889 C23.1964255,24.8377778 20.4116596,24.7422222 18.0860426,22.9777778 L21.3111489,26.2155556 L18.7498723,28.7877778 L15.3510638,25.3766667 C13.6184681,23.6411111 12.636,23.1155556 11.7885106,23.96 C11.2413983,24.5059904 11.0474743,25.0903381 11.4152125,25.8990558 C11.6379313,26.3888514 12.0666709,26.9609473 12.7477447,27.6566667 L16.1874894,31.1111111 L11.0638298,31.1111111 L1.52017021,21.5266667 L4.09582979,18.9411111 L8.944,23.8088889 C8.71055319,22.9188889 9.27923404,21.6366667 10.206383,20.7044444 C11.4068085,19.4988889 13.8331064,18.7077778 16.0657872,20.95 L16.4076596,21.29 C14.7148936,19.0333333 14.5555745,16.2911111 16.8159149,14.0277778 C18.9268936,11.9133333 21.5578723,11.7222222 23.9985532,13.6677778 L20.8387234,10.4944444 L23.177617,8.15222222 L24.9400851,9.62333333 C23.5250213,7.09888889 25.4114043,5.43222222 25.8572766,5.18444444 L27.3973617,6.94555556 C26.9426383,5.24333333 27.352,3.45111111 28.9153191,1.88555556 C31.2542128,-0.456666667 34.2381277,-0.422222222 36.8868085,2.24555556 C37.142383,2.50333333 37.477617,2.9 37.9179574,3.37333333 L33.005617,8.30777778 C34.9473191,10.2566667 36.7916596,7.66777778 37.8571064,6.06777778 Z M19.2012766,18.9972189 L21.5335319,16.6449967 C20.5554894,15.6905523 19.6825532,15.3261078 18.8217872,16.1872189 C18.1137021,16.89833 18.058383,17.6327745 19.2012766,18.9972189 Z M30.9211915,4.04610783 C30.2108936,4.75721894 30.1533617,5.48610783 31.2962553,6.85055227 L33.6318298,4.5038856 C32.6537872,3.54944116 31.7808511,3.18499672 30.9211915,4.04610783 Z" id="Logo" fill="#FFFFFF"></path>
                <polygon id="Fill-4" fill="#2ED5C9" points="11.0638298 31.1111111 5.53191489 36.6666667 0 31.1111111"></polygon>
            </g>
        </g>
    </g>
</svg>